PayapLanna-Bold.ufo
<glyph name="exclam" format="2">
  <advance width="506"/>
  <unicode hex="0021"/>
  <outline>
    <contour>
      <point x="301" y="329" type="curve"/>
      <point x="364" y="1158" type="line"/>
      <point x="324" y="1184" type="line"/>
      <point x="282" y="1168"/>
      <point x="180" y="1120"/>
      <point x="133" y="1094" type="curve"/>
      <point x="195" y="314" type="line"/>
      <point x="218" y="298" type="line"/>
      <point x="244" y="306"/>
      <point x="281" y="314"/>
    </contour>
    <contour>
      <point x="380" y="104" type="curve"/>
      <point x="380" y="180"/>
      <point x="324" y="212"/>
      <point x="265" y="212" type="curve" smooth="yes"/>
      <point x="187" y="212"/>
      <point x="118" y="159"/>
      <point x="118" y="75" type="curve" smooth="yes"/>
      <point x="118" y="0"/>
      <point x="171" y="-32"/>
      <point x="234" y="-32" type="curve" smooth="yes"/>
      <point x="314" y="-32"/>
      <point x="380" y="18"/>
    </contour>
  </outline>
</glyph>
<glyph name="quotedbl" format="2">
  <advance width="768"/>
  <unicode hex="0022"/>
  <outline>
    <contour>
      <point x="599" y="667" type="curve"/>
      <point x="658" y="1161" type="line"/>
      <point x="617" y="1184" type="line"/>
      <point x="595" y="1179"/>
      <point x="456" y="1130"/>
      <point x="432" y="1116" type="curve"/>
      <point x="498" y="650" type="line"/>
      <point x="523" y="650"/>
      <point x="583" y="658"/>
    </contour>
    <contour>
      <point x="277" y="667" type="curve"/>
      <point x="335" y="1161" type="line"/>
      <point x="295" y="1184" type="line"/>
      <point x="272" y="1179"/>
      <point x="134" y="1130"/>
      <point x="110" y="1116" type="curve"/>
      <point x="176" y="650" type="line"/>
      <point x="201" y="650"/>
      <point x="261" y="658"/>
    </contour>
  </outline>
</glyph>
<glyph name="numbersign" format="2">
  <advance width="828"/>
  <unicode hex="0023"/>
  <outline>
    <contour>
      <point x="833" y="760" type="curve"/>
      <point x="813" y="780" type="line"/>
      <point x="179" y="780" type="line"/>
      <point x="171" y="759"/>
      <point x="147" y="707"/>
      <point x="142" y="684" type="curve"/>
      <point x="162" y="664" type="line"/>
      <point x="796" y="664" type="line"/>
      <point x="804" y="682"/>
      <point x="828" y="737"/>
    </contour>
    <contour>
      <point x="506" y="136" type="curve"/>
      <point x="757" y="1016" type="line"/>
      <point x="735" y="1033" type="line"/>
      <point x="710" y="1024"/>
      <point x="662" y="1017"/>
      <point x="639" y="1000" type="curve"/>
      <point x="387" y="117" type="line"/>
      <point x="408" y="101" type="line"/>
      <point x="436" y="111"/>
      <point x="486" y="121"/>
    </contour>
    <contour>
      <point x="253" y="136" type="curve"/>
      <point x="506" y="1016" type="line"/>
      <point x="482" y="1033" type="line"/>
      <point x="459" y="1024"/>
      <point x="411" y="1017"/>
      <point x="388" y="1000" type="curve"/>
      <point x="136" y="117" type="line"/>
      <point x="157" y="101" type="line"/>
      <point x="185" y="111"/>
      <point x="234" y="121"/>
    </contour>
    <contour>
      <point x="746" y="462" type="curve"/>
      <point x="728" y="484" type="line"/>
      <point x="93" y="484" type="line"/>
      <point x="84" y="462"/>
      <point x="62" y="408"/>
      <point x="57" y="388" type="curve"/>
      <point x="75" y="368" type="line"/>
      <point x="712" y="368" type="line"/>
      <point x="720" y="386"/>
      <point x="741" y="441"/>
    </contour>
  </outline>
</glyph>
<glyph name="dollar" format="2">
  <advance width="828"/>
  <unicode hex="0024"/>
  <outline>
    <contour>
      <point x="459" y="-102" type="curve"/>
      <point x="459" y="1083" type="line"/>
      <point x="432" y="1107" type="line"/>
      <point x="401" y="1099"/>
      <point x="393" y="1090"/>
      <point x="363" y="1072" type="curve"/>
      <point x="363" y="-115" type="line"/>
      <point x="391" y="-139" type="line"/>
      <point x="417" y="-132"/>
      <point x="440" y="-119"/>
    </contour>
    <contour>
      <point x="377" y="-8" type="curve" smooth="yes"/>
      <point x="653" y="-8"/>
      <point x="761" y="153"/>
      <point x="761" y="295" type="curve" smooth="yes"/>
      <point x="761" y="627"/>
      <point x="228" y="558"/>
      <point x="228" y="760" type="curve" smooth="yes"/>
      <point x="228" y="821"/>
      <point x="287" y="874"/>
      <point x="390" y="874" type="curve" smooth="yes"/>
      <point x="491" y="874"/>
      <point x="557" y="819"/>
      <point x="604" y="720" type="curve"/>
      <point x="659" y="714" type="line"/>
      <point x="687" y="739"/>
      <point x="739" y="872"/>
      <point x="726" y="887" type="curve"/>
      <point x="685" y="931"/>
      <point x="548" y="971"/>
      <point x="427" y="971" type="curve" smooth="yes"/>
      <point x="149" y="971"/>
      <point x="66" y="822"/>
      <point x="66" y="722" type="curve" smooth="yes"/>
      <point x="66" y="413"/>
      <point x="593" y="507"/>
      <point x="593" y="253" type="curve" smooth="yes"/>
      <point x="593" y="151"/>
      <point x="506" y="106"/>
      <point x="421" y="106" type="curve" smooth="yes"/>
      <point x="281" y="106"/>
      <point x="193" y="196"/>
      <point x="134" y="322" type="curve"/>
      <point x="75" y="326" type="line"/>
      <point x="59" y="266"/>
      <point x="55" y="99"/>
      <point x="69" y="88" type="curve"/>
      <point x="166" y="28"/>
      <point x="286" y="-8"/>
    </contour>
  </outline>
</glyph>
<glyph name="percent" format="2">
  <advance width="1192"/>
  <unicode hex="0025"/>
  <outline>
    <contour>
      <point x="1150" y="247" type="curve"/>
      <point x="1150" y="398"/>
      <point x="1059" y="520"/>
      <point x="901" y="520" type="curve" smooth="yes"/>
      <point x="741" y="520"/>
      <point x="639" y="396"/>
      <point x="639" y="247" type="curve" smooth="yes"/>
      <point x="639" y="99"/>
      <point x="735" y="-24"/>
      <point x="888" y="-24" type="curve" smooth="yes"/>
      <point x="1041" y="-24"/>
      <point x="1150" y="99"/>
    </contour>
    <contour>
      <point x="299" y="5" type="curve"/>
      <point x="1027" y="965" type="line"/>
      <point x="1006" y="988" type="line"/>
      <point x="981" y="982"/>
      <point x="913" y="970"/>
      <point x="890" y="959" type="curve"/>
      <point x="160" y="0" type="line"/>
      <point x="180" y="-24" type="line"/>
      <point x="208" y="-17"/>
      <point x="275" y="-7"/>
    </contour>
    <contour>
      <point x="554" y="717" type="curve"/>
      <point x="554" y="867"/>
      <point x="462" y="990"/>
      <point x="304" y="990" type="curve" smooth="yes"/>
      <point x="145" y="990"/>
      <point x="42" y="866"/>
      <point x="42" y="717" type="curve" smooth="yes"/>
      <point x="42" y="569"/>
      <point x="138" y="445"/>
      <point x="291" y="445" type="curve" smooth="yes"/>
      <point x="445" y="445"/>
      <point x="554" y="569"/>
    </contour>
    <contour>
      <point x="986" y="231" type="curve"/>
      <point x="986" y="91"/>
      <point x="957" y="35"/>
      <point x="901" y="35" type="curve" smooth="yes"/>
      <point x="837" y="35"/>
      <point x="803" y="109"/>
      <point x="803" y="266" type="curve" smooth="yes"/>
      <point x="803" y="406"/>
      <point x="834" y="460"/>
      <point x="888" y="460" type="curve" smooth="yes"/>
      <point x="944" y="460"/>
      <point x="986" y="387"/>
    </contour>
    <contour>
      <point x="390" y="701" type="curve"/>
      <point x="390" y="561"/>
      <point x="360" y="505"/>
      <point x="304" y="505" type="curve" smooth="yes"/>
      <point x="241" y="505"/>
      <point x="206" y="579"/>
      <point x="206" y="736" type="curve" smooth="yes"/>
      <point x="206" y="876"/>
      <point x="238" y="930"/>
      <point x="291" y="930" type="curve" smooth="yes"/>
      <point x="348" y="930"/>
      <point x="390" y="857"/>
    </contour>
  </outline>
</glyph>
<glyph name="ampersand" format="2">
  <advance width="1134"/>
  <unicode hex="0026"/>
  <outline>
    <contour>
      <point x="1130" y="598" type="curve"/>
      <point x="1106" y="633" type="line"/>
      <point x="721" y="633" type="line"/>
      <point x="699" y="625"/>
      <point x="661" y="588"/>
      <point x="650" y="574" type="curve"/>
      <point x="673" y="546" type="line"/>
      <point x="736" y="546"/>
      <point x="795" y="491"/>
      <point x="795" y="401" type="curve" smooth="yes"/>
      <point x="795" y="267"/>
      <point x="639" y="91"/>
      <point x="458" y="91" type="curve" smooth="yes"/>
      <point x="363" y="91"/>
      <point x="259" y="148"/>
      <point x="259" y="298" type="curve" smooth="yes"/>
      <point x="259" y="422"/>
      <point x="309" y="521"/>
      <point x="512" y="649" type="curve"/>
      <point x="638" y="728"/>
      <point x="760" y="852"/>
      <point x="760" y="963" type="curve" smooth="yes"/>
      <point x="760" y="1066"/>
      <point x="692" y="1160"/>
      <point x="530" y="1160" type="curve" smooth="yes"/>
      <point x="359" y="1160"/>
      <point x="217" y="1030"/>
      <point x="217" y="858" type="curve" smooth="yes"/>
      <point x="217" y="478"/>
      <point x="759" y="-24"/>
      <point x="858" y="-24" type="curve" smooth="yes"/>
      <point x="882" y="-24"/>
      <point x="1003" y="7"/>
      <point x="1095" y="48" type="curve"/>
      <point x="1082" y="106" type="line"/>
      <point x="1028" y="93"/>
      <point x="966" y="103"/>
      <point x="912" y="149" type="curve"/>
      <point x="716" y="311"/>
      <point x="397" y="660"/>
      <point x="397" y="904" type="curve" smooth="yes"/>
      <point x="397" y="988"/>
      <point x="423" y="1056"/>
      <point x="482" y="1056" type="curve" smooth="yes"/>
      <point x="531" y="1056"/>
      <point x="571" y="1011"/>
      <point x="571" y="936" type="curve" smooth="yes"/>
      <point x="571" y="866"/>
      <point x="539" y="779"/>
      <point x="428" y="718" type="curve" smooth="yes"/>
      <point x="167" y="573"/>
      <point x="52" y="425"/>
      <point x="52" y="281" type="curve" smooth="yes"/>
      <point x="52" y="81"/>
      <point x="186" y="-24"/>
      <point x="410" y="-24" type="curve" smooth="yes"/>
      <point x="705" y="-24"/>
      <point x="940" y="248"/>
      <point x="940" y="434" type="curve" smooth="yes"/>
      <point x="940" y="474"/>
      <point x="936" y="505"/>
      <point x="914" y="536" type="curve"/>
      <point x="950" y="534"/>
      <point x="1000" y="515"/>
      <point x="1039" y="497" type="curve"/>
      <point x="1066" y="515"/>
      <point x="1104" y="565"/>
    </contour>
  </outline>
</glyph>
<glyph name="quotesingle" format="2">
  <advance width="445"/>
  <unicode hex="0027"/>
  <outline>
    <contour>
      <point x="277" y="667" type="curve"/>
      <point x="335" y="1161" type="line"/>
      <point x="295" y="1184" type="line"/>
      <point x="272" y="1179"/>
      <point x="134" y="1130"/>
      <point x="110" y="1116" type="curve"/>
      <point x="176" y="650" type="line"/>
      <point x="201" y="650"/>
      <point x="261" y="658"/>
    </contour>
  </outline>
</glyph>
<glyph name="parenleft" format="2">
  <advance width="543"/>
  <unicode hex="0028"/>
  <outline>
    <contour>
      <point x="480" y="-252" type="curve"/>
      <point x="524" y="-192" type="line"/>
      <point x="372" y="-45"/>
      <point x="292" y="209"/>
      <point x="292" y="520" type="curve" smooth="yes"/>
      <point x="292" y="863"/>
      <point x="396" y="1092"/>
      <point x="524" y="1220" type="curve"/>
      <point x="480" y="1280" type="line"/>
      <point x="236" y="1135"/>
      <point x="84" y="848"/>
      <point x="84" y="498" type="curve" smooth="yes"/>
      <point x="84" y="159"/>
      <point x="214" y="-110"/>
    </contour>
  </outline>
</glyph>
<glyph name="parenright" format="2">
  <advance width="543"/>
  <unicode hex="0029"/>
  <outline>
    <contour>
      <point x="460" y="529" type="curve"/>
      <point x="460" y="868"/>
      <point x="329" y="1138"/>
      <point x="64" y="1279" type="curve"/>
      <point x="20" y="1219" type="line"/>
      <point x="172" y="1073"/>
      <point x="252" y="817"/>
      <point x="252" y="506" type="curve" smooth="yes"/>
      <point x="252" y="164"/>
      <point x="147" y="-64"/>
      <point x="20" y="-192" type="curve"/>
      <point x="64" y="-252" type="line"/>
      <point x="308" y="-108"/>
      <point x="460" y="178"/>
    </contour>
  </outline>
</glyph>
<glyph name="asterisk" format="2">
  <advance width="725"/>
  <unicode hex="002A"/>
  <outline>
    <contour>
      <point x="400" y="975" type="line"/>
      <point x="443" y="1220" type="line"/>
      <point x="409" y="1248" type="line"/>
      <point x="385" y="1243"/>
      <point x="304" y="1210"/>
      <point x="281" y="1198" type="curve"/>
      <point x="321" y="974" type="line"/>
      <point x="132" y="1133" type="line"/>
      <point x="90" y="1117" type="line"/>
      <point x="82" y="1095"/>
      <point x="71" y="1008"/>
      <point x="69" y="982" type="curve"/>
      <point x="284" y="905" type="line"/>
      <point x="51" y="820" type="line"/>
      <point x="44" y="776" type="line"/>
      <point x="60" y="759"/>
      <point x="129" y="705"/>
      <point x="151" y="691" type="curve"/>
      <point x="324" y="838" type="line"/>
      <point x="281" y="594" type="line"/>
      <point x="317" y="566" type="line"/>
      <point x="340" y="571"/>
      <point x="421" y="603"/>
      <point x="444" y="616" type="curve"/>
      <point x="404" y="838" type="line"/>
      <point x="593" y="680" type="line"/>
      <point x="635" y="696" type="line"/>
      <point x="642" y="719"/>
      <point x="654" y="806"/>
      <point x="655" y="831" type="curve"/>
      <point x="441" y="908" type="line"/>
      <point x="674" y="993" type="line"/>
      <point x="681" y="1038" type="line"/>
      <point x="665" y="1055"/>
      <point x="596" y="1109"/>
      <point x="574" y="1122" type="curve"/>
    </contour>
  </outline>
</glyph>
<glyph name="plus" format="2">
  <advance width="690"/>
  <unicode hex="002B"/>
  <outline>
    <contour>
      <point x="647" y="482" type="curve"/>
      <point x="621" y="507" type="line"/>
      <point x="79" y="507" type="line"/>
      <point x="69" y="486"/>
      <point x="47" y="440"/>
      <point x="42" y="417" type="curve"/>
      <point x="68" y="392" type="line"/>
      <point x="611" y="392" type="line"/>
      <point x="619" y="410"/>
      <point x="641" y="459"/>
    </contour>
    <contour>
      <point x="404" y="179" type="curve"/>
      <point x="404" y="726" type="line"/>
      <point x="379" y="751" type="line"/>
      <point x="356" y="745"/>
      <point x="308" y="728"/>
      <point x="288" y="721" type="curve"/>
      <point x="288" y="172" type="line"/>
      <point x="314" y="149" type="line"/>
      <point x="337" y="153"/>
      <point x="383" y="169"/>
    </contour>
  </outline>
</glyph>
<glyph name="comma" format="2">
  <advance width="441"/>
  <unicode hex="002C"/>
  <outline>
    <contour>
      <point x="384" y="56" type="curve"/>
      <point x="384" y="140"/>
      <point x="358" y="183"/>
      <point x="307" y="207" type="curve"/>
      <point x="251" y="208"/>
      <point x="88" y="148"/>
      <point x="70" y="123" type="curve"/>
      <point x="83" y="61" type="line"/>
      <point x="152" y="66"/>
      <point x="192" y="17"/>
      <point x="192" y="-30" type="curve" smooth="yes"/>
      <point x="192" y="-122"/>
      <point x="156" y="-195"/>
      <point x="96" y="-264" type="curve"/>
      <point x="150" y="-304" type="line"/>
      <point x="280" y="-220"/>
      <point x="384" y="-58"/>
    </contour>
  </outline>
</glyph>
<glyph name="hyphen" format="2">
  <advance width="582"/>
  <unicode hex="002D"/>
  <anchor x="276" y="840" name="U"/>
  <outline>
    <contour>
      <point x="539" y="442" type="curve"/>
      <point x="513" y="468" type="line"/>
      <point x="79" y="468" type="line"/>
      <point x="69" y="447"/>
      <point x="47" y="400"/>
      <point x="42" y="377" type="curve"/>
      <point x="68" y="352" type="line"/>
      <point x="503" y="352" type="line"/>
      <point x="511" y="369"/>
      <point x="533" y="419"/>
    </contour>
  </outline>
</glyph>
<glyph name="period" format="2">
  <advance width="441"/>
  <unicode hex="002E"/>
  <outline>
    <contour>
      <point x="367" y="104" type="curve"/>
      <point x="367" y="180"/>
      <point x="310" y="212"/>
      <point x="252" y="212" type="curve" smooth="yes"/>
      <point x="174" y="212"/>
      <point x="104" y="159"/>
      <point x="104" y="75" type="curve" smooth="yes"/>
      <point x="104" y="0"/>
      <point x="158" y="-32"/>
      <point x="220" y="-32" type="curve" smooth="yes"/>
      <point x="301" y="-32"/>
      <point x="367" y="18"/>
    </contour>
  </outline>
</glyph>
<glyph name="slash" format="2">
  <advance width="780"/>
  <unicode hex="002F"/>
  <outline>
    <contour>
      <point x="193" y="-221" type="curve"/>
      <point x="751" y="1256" type="line"/>
      <point x="716" y="1280" type="line"/>
      <point x="685" y="1272"/>
      <point x="617" y="1253"/>
      <point x="588" y="1234" type="curve"/>
      <point x="27" y="-242" type="line"/>
      <point x="63" y="-268" type="line"/>
      <point x="89" y="-260"/>
      <point x="171" y="-235"/>
    </contour>
  </outline>
</glyph>
<glyph name="zero" format="2">
  <advance width="828"/>
  <unicode hex="0030"/>
  <anchor x="414" y="-80" name="L"/>
  <anchor x="414" y="1096" name="U"/>
  <outline>
    <contour>
      <point x="780" y="481" type="curve"/>
      <point x="780" y="760"/>
      <point x="651" y="988"/>
      <point x="424" y="988" type="curve" smooth="yes"/>
      <point x="192" y="988"/>
      <point x="48" y="756"/>
      <point x="48" y="481" type="curve" smooth="yes"/>
      <point x="48" y="206"/>
      <point x="183" y="-24"/>
      <point x="404" y="-24" type="curve" smooth="yes"/>
      <point x="626" y="-24"/>
      <point x="780" y="206"/>
    </contour>
    <contour>
      <point x="570" y="452" type="curve"/>
      <point x="570" y="181"/>
      <point x="523" y="80"/>
      <point x="424" y="80" type="curve" smooth="yes"/>
      <point x="317" y="80"/>
      <point x="258" y="223"/>
      <point x="258" y="516" type="curve" smooth="yes"/>
      <point x="258" y="783"/>
      <point x="307" y="884"/>
      <point x="404" y="884" type="curve" smooth="yes"/>
      <point x="500" y="884"/>
      <point x="570" y="744"/>
    </contour>
  </outline>
</glyph>
<glyph name="one" format="2">
  <advance width="828"/>
  <unicode hex="0031"/>
  <anchor x="414" y="-80" name="L"/>
  <anchor x="414" y="1096" name="U"/>
  <outline>
    <contour>
      <point x="124" y="0" type="line"/>
      <point x="732" y="0" type="line"/>
      <point x="732" y="66" type="line"/>
      <point x="571" y="86"/>
      <point x="532" y="117"/>
      <point x="532" y="138" type="curve" smooth="yes"/>
      <point x="532" y="962" type="line"/>
      <point x="496" y="996" type="line"/>
      <point x="419" y="961"/>
      <point x="190" y="879"/>
      <point x="99" y="860" type="curve"/>
      <point x="122" y="795" type="line"/>
      <point x="262" y="824"/>
      <point x="312" y="820"/>
      <point x="325" y="806" type="curve" smooth="yes"/>
      <point x="338" y="792"/>
      <point x="340" y="770"/>
      <point x="340" y="728" type="curve" smooth="yes"/>
      <point x="340" y="138" type="line" smooth="yes"/>
      <point x="340" y="116"/>
      <point x="291" y="86"/>
      <point x="124" y="66" type="curve"/>
    </contour>
  </outline>
</glyph>
<glyph name="two" format="2">
  <advance width="828"/>
  <unicode hex="0032"/>
  <anchor x="414" y="-80" name="L"/>
  <anchor x="414" y="1096" name="U"/>
  <outline>
    <contour>
      <point x="728" y="0" type="line"/>
      <point x="740" y="283" type="line"/>
      <point x="676" y="299" type="line"/>
      <point x="676" y="299"/>
      <point x="667" y="138"/>
      <point x="595" y="138" type="curve" smooth="yes"/>
      <point x="275" y="138" type="line"/>
      <point x="617" y="517"/>
      <point x="730" y="641"/>
      <point x="730" y="785" type="curve" smooth="yes"/>
      <point x="730" y="918"/>
      <point x="622" y="988"/>
      <point x="458" y="988" type="curve" smooth="yes"/>
      <point x="258" y="988"/>
      <point x="88" y="848"/>
      <point x="88" y="738" type="curve"/>
      <point x="115" y="684" type="line"/>
      <point x="164" y="688"/>
      <point x="254" y="715"/>
      <point x="290" y="735" type="curve"/>
      <point x="276" y="814"/>
      <point x="316" y="898"/>
      <point x="403" y="898" type="curve" smooth="yes"/>
      <point x="492" y="898"/>
      <point x="528" y="829"/>
      <point x="528" y="739" type="curve" smooth="yes"/>
      <point x="528" y="624"/>
      <point x="441" y="498"/>
      <point x="66" y="59" type="curve"/>
      <point x="89" y="0" type="line"/>
    </contour>
  </outline>
</glyph>
<glyph name="three" format="2">
  <advance width="828"/>
  <unicode hex="0033"/>
  <anchor x="414" y="-80" name="L"/>
  <anchor x="414" y="1096" name="U"/>
  <outline>
    <contour>
      <point x="732" y="304" type="curve"/>
      <point x="732" y="434"/>
      <point x="646" y="544"/>
      <point x="516" y="558" type="curve"/>
      <point x="617" y="592"/>
      <point x="686" y="686"/>
      <point x="686" y="766" type="curve" smooth="yes"/>
      <point x="686" y="875"/>
      <point x="611" y="988"/>
      <point x="416" y="988" type="curve" smooth="yes"/>
      <point x="220" y="988"/>
      <point x="83" y="849"/>
      <point x="83" y="760" type="curve"/>
      <point x="110" y="711" type="line"/>
      <point x="170" y="716"/>
      <point x="244" y="741"/>
      <point x="288" y="766" type="curve"/>
      <point x="268" y="839"/>
      <point x="314" y="897"/>
      <point x="370" y="897" type="curve" smooth="yes"/>
      <point x="452" y="897"/>
      <point x="480" y="825"/>
      <point x="480" y="752" type="curve" smooth="yes"/>
      <point x="480" y="686"/>
      <point x="454" y="595"/>
      <point x="271" y="546" type="curve"/>
      <point x="285" y="474" type="line"/>
      <point x="318" y="480"/>
      <point x="322" y="480"/>
      <point x="352" y="480" type="curve" smooth="yes"/>
      <point x="422" y="480"/>
      <point x="526" y="432"/>
      <point x="526" y="284" type="curve" smooth="yes"/>
      <point x="526" y="148"/>
      <point x="445" y="86"/>
      <point x="344" y="86" type="curve" smooth="yes"/>
      <point x="264" y="86"/>
      <point x="190" y="112"/>
      <point x="93" y="184" type="curve"/>
      <point x="60" y="107" type="line"/>
      <point x="156" y="15"/>
      <point x="282" y="-24"/>
      <point x="366" y="-24" type="curve" smooth="yes"/>
      <point x="586" y="-24"/>
      <point x="732" y="124"/>
    </contour>
  </outline>
</glyph>
<glyph name="four" format="2">
  <advance width="828"/>
  <unicode hex="0034"/>
  <anchor x="414" y="-80" name="L"/>
  <anchor x="414" y="1096" name="U"/>
  <outline>
    <contour>
      <point x="765" y="356" type="curve"/>
      <point x="744" y="380" type="line"/>
      <point x="640" y="380" type="line"/>
      <point x="640" y="962" type="line"/>
      <point x="604" y="996" type="line"/>
      <point x="558" y="978"/>
      <point x="479" y="951"/>
      <point x="428" y="933" type="curve"/>
      <point x="44" y="300" type="line"/>
      <point x="76" y="268" type="line"/>
      <point x="456" y="268" type="line"/>
      <point x="456" y="116" type="line" smooth="yes"/>
      <point x="456" y="97"/>
      <point x="427" y="81"/>
      <point x="288" y="58" type="curve"/>
      <point x="288" y="0" type="line"/>
      <point x="751" y="0" type="line"/>
      <point x="751" y="58" type="line"/>
      <point x="663" y="78"/>
      <point x="640" y="91"/>
      <point x="640" y="107" type="curve" smooth="yes"/>
      <point x="640" y="268" type="line"/>
      <point x="684" y="268" type="line"/>
      <point x="708" y="286"/>
      <point x="742" y="321"/>
    </contour>
    <contour>
      <point x="456" y="784" type="line"/>
      <point x="456" y="380" type="line"/>
      <point x="200" y="380" type="line"/>
    </contour>
  </outline>
</glyph>
<glyph name="five" format="2">
  <advance width="828"/>
  <unicode hex="0035"/>
  <anchor x="415" y="-80" name="L"/>
  <anchor x="415" y="1096" name="U"/>
  <outline>
    <contour>
      <point x="736" y="328" type="curve"/>
      <point x="736" y="484"/>
      <point x="628" y="636"/>
      <point x="413" y="636" type="curve" smooth="yes"/>
      <point x="346" y="636"/>
      <point x="286" y="623"/>
      <point x="238" y="603" type="curve"/>
      <point x="248" y="650"/>
      <point x="265" y="755"/>
      <point x="269" y="818" type="curve"/>
      <point x="614" y="818" type="line"/>
      <point x="639" y="836"/>
      <point x="700" y="914"/>
      <point x="723" y="949" type="curve"/>
      <point x="694" y="978" type="line"/>
      <point x="694" y="978"/>
      <point x="658" y="964"/>
      <point x="597" y="964" type="curve" smooth="yes"/>
      <point x="176" y="964" type="line"/>
      <point x="170" y="851"/>
      <point x="130" y="590"/>
      <point x="110" y="474" type="curve"/>
      <point x="148" y="448" type="line"/>
      <point x="204" y="490"/>
      <point x="262" y="518"/>
      <point x="347" y="518" type="curve" smooth="yes"/>
      <point x="464" y="518"/>
      <point x="542" y="439"/>
      <point x="542" y="293" type="curve" smooth="yes"/>
      <point x="542" y="172"/>
      <point x="466" y="80"/>
      <point x="359" y="80" type="curve" smooth="yes"/>
      <point x="298" y="80"/>
      <point x="216" y="97"/>
      <point x="103" y="175" type="curve"/>
      <point x="63" y="104" type="line"/>
      <point x="155" y="18"/>
      <point x="278" y="-24"/>
      <point x="377" y="-24" type="curve" smooth="yes"/>
      <point x="624" y="-24"/>
      <point x="736" y="142"/>
    </contour>
  </outline>
</glyph>
<glyph name="six" format="2">
  <advance width="828"/>
  <unicode hex="0036"/>
  <anchor x="414" y="-80" name="L"/>
  <anchor x="414" y="1096" name="U"/>
  <outline>
    <contour>
      <point x="776" y="329" type="curve"/>
      <point x="776" y="504"/>
      <point x="668" y="628"/>
      <point x="486" y="628" type="curve" smooth="yes"/>
      <point x="408" y="628"/>
      <point x="294" y="571"/>
      <point x="210" y="458" type="curve"/>
      <point x="226" y="357" type="line"/>
      <point x="289" y="455"/>
      <point x="373" y="516"/>
      <point x="436" y="516" type="curve" smooth="yes"/>
      <point x="504" y="516"/>
      <point x="578" y="478"/>
      <point x="578" y="278" type="curve" smooth="yes"/>
      <point x="578" y="180"/>
      <point x="552" y="78"/>
      <point x="460" y="78" type="curve" smooth="yes"/>
      <point x="359" y="78"/>
      <point x="282" y="176"/>
      <point x="282" y="429" type="curve" smooth="yes"/>
      <point x="282" y="648"/>
      <point x="386" y="860"/>
      <point x="699" y="928" type="curve"/>
      <point x="678" y="999" type="line"/>
      <point x="280" y="943"/>
      <point x="76" y="680"/>
      <point x="76" y="378" type="curve" smooth="yes"/>
      <point x="76" y="137"/>
      <point x="238" y="-24"/>
      <point x="440" y="-24" type="curve" smooth="yes"/>
      <point x="662" y="-24"/>
      <point x="776" y="180"/>
    </contour>
  </outline>
</glyph>
<glyph name="seven" format="2">
  <advance width="828"/>
  <unicode hex="0037"/>
  <anchor x="414" y="-80" name="L"/>
  <anchor x="414" y="1096" name="U"/>
  <outline>
    <contour>
      <point x="768" y="933" type="curve"/>
      <point x="741" y="964" type="line"/>
      <point x="117" y="964" type="line"/>
      <point x="104" y="916"/>
      <point x="84" y="760"/>
      <point x="77" y="710" type="curve"/>
      <point x="132" y="690" type="line"/>
      <point x="177" y="814"/>
      <point x="216" y="818"/>
      <point x="247" y="818" type="curve" smooth="yes"/>
      <point x="604" y="818" type="line"/>
      <point x="486" y="546"/>
      <point x="392" y="334"/>
      <point x="207" y="8" type="curve"/>
      <point x="246" y="-24" type="line"/>
      <point x="298" y="-10"/>
      <point x="386" y="14"/>
      <point x="423" y="41" type="curve"/>
      <point x="479" y="211"/>
      <point x="620" y="589"/>
    </contour>
  </outline>
</glyph>
<glyph name="eight" format="2">
  <advance width="828"/>
  <unicode hex="0038"/>
  <anchor x="414" y="-80" name="L"/>
  <anchor x="414" y="1096" name="U"/>
  <outline>
    <contour>
      <point x="765" y="281" type="curve"/>
      <point x="765" y="620"/>
      <point x="286" y="561"/>
      <point x="286" y="760" type="curve" smooth="yes"/>
      <point x="286" y="832"/>
      <point x="325" y="894"/>
      <point x="396" y="894" type="curve" smooth="yes"/>
      <point x="465" y="894"/>
      <point x="527" y="861"/>
      <point x="527" y="750" type="curve" smooth="yes"/>
      <point x="528" y="689"/>
      <point x="494" y="627"/>
      <point x="420" y="567" type="curve"/>
      <point x="506" y="532" type="line"/>
      <point x="627" y="603"/>
      <point x="725" y="678"/>
      <point x="725" y="775" type="curve" smooth="yes"/>
      <point x="725" y="899"/>
      <point x="627" y="988"/>
      <point x="425" y="988" type="curve" smooth="yes"/>
      <point x="246" y="988"/>
      <point x="104" y="880"/>
      <point x="104" y="732" type="curve" smooth="yes"/>
      <point x="104" y="435"/>
      <point x="559" y="530"/>
      <point x="559" y="247" type="curve" smooth="yes"/>
      <point x="559" y="154"/>
      <point x="511" y="74"/>
      <point x="424" y="74" type="curve" smooth="yes"/>
      <point x="344" y="74"/>
      <point x="269" y="140"/>
      <point x="269" y="252" type="curve" smooth="yes"/>
      <point x="269" y="350"/>
      <point x="313" y="416"/>
      <point x="400" y="491" type="curve"/>
      <point x="313" y="520" type="line"/>
      <point x="168" y="454"/>
      <point x="63" y="347"/>
      <point x="63" y="228" type="curve" smooth="yes"/>
      <point x="63" y="96"/>
      <point x="178" y="-24"/>
      <point x="396" y="-24" type="curve" smooth="yes"/>
      <point x="604" y="-24"/>
      <point x="765" y="116"/>
    </contour>
  </outline>
</glyph>
<glyph name="nine" format="2">
  <advance width="828"/>
  <unicode hex="0039"/>
  <anchor x="414" y="-80" name="L"/>
  <anchor x="414" y="1096" name="U"/>
  <outline>
    <contour>
      <point x="768" y="584" type="curve"/>
      <point x="768" y="868"/>
      <point x="625" y="988"/>
      <point x="428" y="988" type="curve" smooth="yes"/>
      <point x="216" y="988"/>
      <point x="68" y="797"/>
      <point x="68" y="636" type="curve" smooth="yes"/>
      <point x="68" y="476"/>
      <point x="168" y="338"/>
      <point x="356" y="338" type="curve" smooth="yes"/>
      <point x="474" y="338"/>
      <point x="580" y="421"/>
      <point x="634" y="531" type="curve"/>
      <point x="624" y="639" type="line"/>
      <point x="583" y="548"/>
      <point x="507" y="456"/>
      <point x="408" y="456" type="curve" smooth="yes"/>
      <point x="355" y="456"/>
      <point x="266" y="505"/>
      <point x="266" y="684" type="curve" smooth="yes"/>
      <point x="266" y="811"/>
      <point x="318" y="886"/>
      <point x="408" y="886" type="curve" smooth="yes"/>
      <point x="482" y="886"/>
      <point x="562" y="825"/>
      <point x="562" y="512" type="curve" smooth="yes"/>
      <point x="562" y="289"/>
      <point x="487" y="121"/>
      <point x="143" y="36" type="curve"/>
      <point x="164" y="-34" type="line"/>
      <point x="566" y="13"/>
      <point x="768" y="260"/>
    </contour>
  </outline>
</glyph>
<glyph name="less" format="2">
  <advance width="743"/>
  <unicode hex="003C"/>
  <outline>
    <contour>
      <point x="701" y="710" type="curve"/>
      <point x="675" y="736" type="line"/>
      <point x="73" y="518" type="line"/>
      <point x="63" y="496"/>
      <point x="47" y="442"/>
      <point x="42" y="421" type="curve"/>
      <point x="68" y="389" type="line"/>
      <point x="672" y="607" type="line"/>
      <point x="678" y="627"/>
      <point x="696" y="687"/>
    </contour>
    <contour>
      <point x="701" y="266" type="curve"/>
      <point x="682" y="300" type="line"/>
      <point x="73" y="518" type="line"/>
      <point x="63" y="496"/>
      <point x="47" y="442"/>
      <point x="42" y="421" type="curve"/>
      <point x="68" y="389" type="line"/>
      <point x="616" y="192" type="line"/>
      <point x="649" y="212"/>
      <point x="678" y="244"/>
    </contour>
  </outline>
</glyph>
<glyph name="equal" format="2">
  <advance width="743"/>
  <unicode hex="003D"/>
  <outline>
    <contour>
      <point x="701" y="601" type="curve"/>
      <point x="675" y="627" type="line"/>
      <point x="79" y="627" type="line"/>
      <point x="69" y="606"/>
      <point x="47" y="560"/>
      <point x="42" y="537" type="curve"/>
      <point x="68" y="512" type="line"/>
      <point x="665" y="512" type="line"/>
      <point x="672" y="529"/>
      <point x="695" y="579"/>
    </contour>
    <contour>
      <point x="701" y="361" type="curve"/>
      <point x="675" y="387" type="line"/>
      <point x="79" y="387" type="line"/>
      <point x="69" y="366"/>
      <point x="47" y="320"/>
      <point x="42" y="297" type="curve"/>
      <point x="68" y="272" type="line"/>
      <point x="665" y="272" type="line"/>
      <point x="672" y="290"/>
      <point x="695" y="338"/>
    </contour>
  </outline>
</glyph>
<glyph name="greater" format="2">
  <advance width="743"/>
  <unicode hex="003E"/>
  <outline>
    <contour>
      <point x="701" y="507" type="curve"/>
      <point x="676" y="539" type="line"/>
      <point x="127" y="736" type="line"/>
      <point x="98" y="717"/>
      <point x="65" y="684"/>
      <point x="42" y="663" type="curve"/>
      <point x="61" y="627" type="line"/>
      <point x="492" y="473" type="line"/>
      <point x="71" y="321" type="line"/>
      <point x="65" y="301"/>
      <point x="48" y="240"/>
      <point x="42" y="218" type="curve"/>
      <point x="68" y="192" type="line"/>
      <point x="670" y="410" type="line"/>
      <point x="681" y="436"/>
      <point x="695" y="480"/>
    </contour>
  </outline>
</glyph>
<glyph name="question" format="2">
  <advance width="745"/>
  <unicode hex="003F"/>
  <outline>
    <contour>
      <point x="692" y="932" type="curve"/>
      <point x="692" y="1081"/>
      <point x="595" y="1184"/>
      <point x="419" y="1184" type="curve" smooth="yes"/>
      <point x="224" y="1184"/>
      <point x="52" y="1066"/>
      <point x="52" y="916" type="curve" smooth="yes"/>
      <point x="52" y="908"/>
      <point x="52" y="886"/>
      <point x="53" y="878" type="curve"/>
      <point x="81" y="848" type="line"/>
      <point x="128" y="852"/>
      <point x="236" y="878"/>
      <point x="270" y="896" type="curve"/>
      <point x="266" y="911"/>
      <point x="261" y="933"/>
      <point x="261" y="948" type="curve" smooth="yes"/>
      <point x="261" y="1032"/>
      <point x="309" y="1089"/>
      <point x="363" y="1089" type="curve" smooth="yes"/>
      <point x="437" y="1089"/>
      <point x="483" y="1027"/>
      <point x="483" y="896" type="curve" smooth="yes"/>
      <point x="483" y="744"/>
      <point x="279" y="590"/>
      <point x="289" y="406" type="curve"/>
      <point x="295" y="319" type="line"/>
      <point x="321" y="296" type="line"/>
      <point x="351" y="304"/>
      <point x="380" y="314"/>
      <point x="400" y="329" type="curve"/>
      <point x="405" y="406" type="line" smooth="yes"/>
      <point x="417" y="594"/>
      <point x="692" y="691"/>
    </contour>
    <contour>
      <point x="486" y="104" type="curve"/>
      <point x="486" y="180"/>
      <point x="430" y="212"/>
      <point x="371" y="212" type="curve" smooth="yes"/>
      <point x="293" y="212"/>
      <point x="224" y="159"/>
      <point x="224" y="75" type="curve" smooth="yes"/>
      <point x="224" y="0"/>
      <point x="277" y="-32"/>
      <point x="340" y="-32" type="curve" smooth="yes"/>
      <point x="420" y="-32"/>
      <point x="486" y="18"/>
    </contour>
  </outline>
</glyph>
<glyph name="at" format="2">
  <advance width="1436"/>
  <unicode hex="0040"/>
  <outline>
    <contour>
      <point x="1368" y="457" type="curve"/>
      <point x="1368" y="884"/>
      <point x="1128" y="1090"/>
      <point x="781" y="1090" type="curve" smooth="yes"/>
      <point x="382" y="1090"/>
      <point x="68" y="758"/>
      <point x="68" y="372" type="curve" smooth="yes"/>
      <point x="68" y="-67"/>
      <point x="346" y="-330"/>
      <point x="743" y="-330" type="curve" smooth="yes"/>
      <point x="1002" y="-330"/>
      <point x="1170" y="-209"/>
      <point x="1247" y="-122" type="curve"/>
      <point x="1210" y="-53" type="line"/>
      <point x="1146" y="-108"/>
      <point x="986" y="-192"/>
      <point x="782" y="-192" type="curve" smooth="yes"/>
      <point x="486" y="-192"/>
      <point x="248" y="14"/>
      <point x="248" y="419" type="curve" smooth="yes"/>
      <point x="248" y="708"/>
      <point x="423" y="952"/>
      <point x="750" y="952" type="curve" smooth="yes"/>
      <point x="1026" y="952"/>
      <point x="1212" y="774"/>
      <point x="1212" y="409" type="curve" smooth="yes"/>
      <point x="1212" y="229"/>
      <point x="1137" y="129"/>
      <point x="1083" y="129" type="curve" smooth="yes"/>
      <point x="1038" y="129"/>
      <point x="1027" y="162"/>
      <point x="1027" y="228" type="curve" smooth="yes"/>
      <point x="1027" y="560" type="line" smooth="yes"/>
      <point x="1027" y="649"/>
      <point x="1051" y="744"/>
      <point x="1051" y="744" type="curve"/>
      <point x="1026" y="768" type="line"/>
      <point x="978" y="735"/>
      <point x="940" y="716"/>
      <point x="882" y="695" type="curve"/>
      <point x="831" y="757"/>
      <point x="796" y="768"/>
      <point x="747" y="768" type="curve" smooth="yes"/>
      <point x="527" y="768"/>
      <point x="398" y="551"/>
      <point x="398" y="349" type="curve" smooth="yes"/>
      <point x="398" y="93"/>
      <point x="524" y="-24"/>
      <point x="633" y="-24" type="curve" smooth="yes"/>
      <point x="718" y="-24"/>
      <point x="752" y="2"/>
      <point x="840" y="105" type="curve"/>
      <point x="860" y="6"/>
      <point x="909" y="-24"/>
      <point x="973" y="-24" type="curve" smooth="yes"/>
      <point x="1163" y="-24"/>
      <point x="1368" y="186"/>
    </contour>
    <contour>
      <point x="835" y="584" type="curve"/>
      <point x="835" y="224" type="line"/>
      <point x="778" y="146"/>
      <point x="755" y="128"/>
      <point x="714" y="128" type="curve" smooth="yes"/>
      <point x="656" y="128"/>
      <point x="590" y="192"/>
      <point x="590" y="374" type="curve" smooth="yes"/>
      <point x="590" y="574"/>
      <point x="640" y="662"/>
      <point x="734" y="662" type="curve" smooth="yes"/>
      <point x="786" y="662"/>
      <point x="811" y="632"/>
    </contour>
  </outline>
</glyph>
<glyph name="A" format="2">
  <advance width="1029"/>
  <unicode hex="0041"/>
  <anchor x="506" y="0" name="H"/>
  <anchor x="506" y="-80" name="L"/>
  <anchor x="811" y="0" name="O"/>
  <anchor x="506" y="1096" name="U"/>
  <outline>
    <contour>
      <point x="313" y="344" type="line"/>
      <point x="631" y="344" type="line"/>
      <point x="712" y="112" type="line" smooth="yes"/>
      <point x="724" y="77"/>
      <point x="697" y="63"/>
      <point x="614" y="58" type="curve"/>
      <point x="614" y="0" type="line"/>
      <point x="1012" y="0" type="line"/>
      <point x="1012" y="58" type="line"/>
      <point x="943" y="66"/>
      <point x="924" y="83"/>
      <point x="913" y="112" type="curve" smooth="yes"/>
      <point x="577" y="1053" type="line"/>
      <point x="522" y="1037"/>
      <point x="450" y="1008"/>
      <point x="400" y="965" type="curve"/>
      <point x="120" y="112" type="line" smooth="yes"/>
      <point x="110" y="80"/>
      <point x="72" y="71"/>
      <point x="0" y="58" type="curve"/>
      <point x="0" y="0" type="line"/>
      <point x="349" y="0" type="line"/>
      <point x="349" y="58" type="line"/>
      <point x="262" y="68"/>
      <point x="226" y="80"/>
      <point x="237" y="112" type="curve" smooth="yes"/>
    </contour>
    <contour>
      <point x="597" y="440" type="line"/>
      <point x="345" y="440" type="line"/>
      <point x="465" y="811" type="line"/>
    </contour>
  </outline>
</glyph>
<glyph name="B" format="2">
  <advance width="984"/>
  <unicode hex="0042"/>
  <anchor x="463" y="-80" name="L"/>
  <anchor x="463" y="1096" name="U"/>
  <outline>
    <contour>
      <point x="902" y="284" type="curve"/>
      <point x="902" y="432"/>
      <point x="792" y="552"/>
      <point x="632" y="578" type="curve"/>
      <point x="751" y="615"/>
      <point x="814" y="701"/>
      <point x="814" y="816" type="curve" smooth="yes"/>
      <point x="814" y="950"/>
      <point x="667" y="1032"/>
      <point x="423" y="1032" type="curve" smooth="yes"/>
      <point x="295" y="1032"/>
      <point x="119" y="1007"/>
      <point x="23" y="984" type="curve"/>
      <point x="34" y="916" type="line"/>
      <point x="124" y="933"/>
      <point x="288" y="946"/>
      <point x="372" y="946" type="curve" smooth="yes"/>
      <point x="554" y="946"/>
      <point x="612" y="883"/>
      <point x="612" y="776" type="curve" smooth="yes"/>
      <point x="612" y="684"/>
      <point x="571" y="592"/>
      <point x="359" y="592" type="curve" smooth="yes"/>
      <point x="292" y="592" type="line"/>
      <point x="300" y="492" type="line"/>
      <point x="340" y="502"/>
      <point x="381" y="511"/>
      <point x="452" y="511" type="curve" smooth="yes"/>
      <point x="637" y="511"/>
      <point x="693" y="387"/>
      <point x="693" y="269" type="curve" smooth="yes"/>
      <point x="693" y="149"/>
      <point x="613" y="74"/>
      <point x="459" y="74" type="curve" smooth="yes"/>
      <point x="411" y="74"/>
      <point x="368" y="78"/>
      <point x="336" y="96" type="curve"/>
      <point x="98" y="0" type="line"/>
      <point x="212" y="-4"/>
      <point x="382" y="-11"/>
      <point x="489" y="-11" type="curve"/>
      <point x="747" y="-11"/>
      <point x="902" y="103"/>
    </contour>
    <contour>
      <point x="34" y="0" type="line"/>
      <point x="442" y="0" type="line"/>
      <point x="442" y="52" type="line"/>
      <point x="364" y="66"/>
      <point x="344" y="88"/>
      <point x="344" y="101" type="curve" smooth="yes"/>
      <point x="344" y="984" type="line"/>
      <point x="144" y="968" type="line"/>
      <point x="144" y="107" type="line" smooth="yes"/>
      <point x="144" y="92"/>
      <point x="106" y="72"/>
      <point x="34" y="58" type="curve"/>
    </contour>
  </outline>
</glyph>
<glyph name="C" format="2">
  <advance width="914"/>
  <unicode hex="0043"/>
  <anchor x="484" y="0" name="H"/>
  <anchor x="509" y="-80" name="L"/>
  <anchor x="509" y="1096" name="U"/>
  <outline>
    <contour>
      <point x="856" y="168" type="curve"/>
      <point x="852" y="176"/>
      <point x="826" y="215"/>
      <point x="814" y="222" type="curve"/>
      <point x="703" y="130"/>
      <point x="602" y="108"/>
      <point x="544" y="108" type="curve" smooth="yes"/>
      <point x="404" y="108"/>
      <point x="246" y="226"/>
      <point x="246" y="498" type="curve" smooth="yes"/>
      <point x="246" y="830"/>
      <point x="388" y="926"/>
      <point x="497" y="926" type="curve" smooth="yes"/>
      <point x="580" y="926"/>
      <point x="652" y="885"/>
      <point x="705" y="792" type="curve"/>
      <point x="757" y="781" type="line"/>
      <point x="782" y="806"/>
      <point x="853" y="942"/>
      <point x="841" y="952" type="curve" smooth="yes"/>
      <point x="786" y="996"/>
      <point x="667" y="1032"/>
      <point x="552" y="1032" type="curve" smooth="yes"/>
      <point x="267" y="1032"/>
      <point x="44" y="809"/>
      <point x="44" y="468" type="curve" smooth="yes"/>
      <point x="44" y="159"/>
      <point x="253" y="-24"/>
      <point x="468" y="-24" type="curve" smooth="yes"/>
      <point x="591" y="-24"/>
      <point x="720" y="29"/>
    </contour>
  </outline>
</glyph>
<glyph name="D" format="2">
  <advance width="1043"/>
  <unicode hex="0044"/>
  <anchor x="471" y="-80" name="L"/>
  <anchor x="471" y="1096" name="U"/>
  <outline>
    <contour>
      <point x="976" y="540" type="curve"/>
      <point x="976" y="850"/>
      <point x="789" y="1032"/>
      <point x="462" y="1032" type="curve" smooth="yes"/>
      <point x="324" y="1032"/>
      <point x="129" y="1010"/>
      <point x="23" y="984" type="curve"/>
      <point x="34" y="910" type="line"/>
      <point x="122" y="924"/>
      <point x="284" y="946"/>
      <point x="404" y="946" type="curve" smooth="yes"/>
      <point x="637" y="946"/>
      <point x="762" y="792"/>
      <point x="762" y="509" type="curve" smooth="yes"/>
      <point x="762" y="209"/>
      <point x="588" y="85"/>
      <point x="465" y="85" type="curve" smooth="yes"/>
      <point x="352" y="85"/>
      <point x="344" y="107"/>
      <point x="344" y="144" type="curve"/>
      <point x="65" y="0" type="line"/>
      <point x="237" y="0"/>
      <point x="336" y="0"/>
      <point x="495" y="0" type="curve" smooth="yes"/>
      <point x="714" y="0"/>
      <point x="976" y="140"/>
    </contour>
    <contour>
      <point x="34" y="0" type="line"/>
      <point x="430" y="0" type="line"/>
      <point x="430" y="72" type="line"/>
      <point x="352" y="88"/>
      <point x="344" y="105"/>
      <point x="344" y="147" type="curve" smooth="yes"/>
      <point x="344" y="991" type="line"/>
      <point x="144" y="991" type="line"/>
      <point x="144" y="107" type="line" smooth="yes"/>
      <point x="144" y="92"/>
      <point x="106" y="72"/>
      <point x="34" y="58" type="curve"/>
    </contour>
  </outline>
</glyph>
<glyph name="E" format="2">
  <advance width="860"/>
  <unicode hex="0045"/>
  <anchor x="428" y="0" name="H"/>
  <anchor x="428" y="-80" name="L"/>
  <anchor x="645" y="0" name="O"/>
  <anchor x="860" y="880" name="R"/>
  <anchor x="428" y="1096" name="U"/>
  <outline>
    <contour>
      <point x="771" y="982" type="curve"/>
      <point x="738" y="1008" type="line"/>
      <point x="325" y="1008" type="line"/>
      <point x="302" y="912" type="line"/>
      <point x="612" y="912" type="line" smooth="yes"/>
      <point x="652" y="912"/>
      <point x="673" y="858"/>
      <point x="678" y="760" type="curve"/>
      <point x="738" y="760" type="line"/>
      <point x="751" y="800"/>
      <point x="768" y="927"/>
    </contour>
    <contour>
      <point x="688" y="559" type="curve"/>
      <point x="662" y="588" type="line"/>
      <point x="308" y="588" type="line"/>
      <point x="291" y="502" type="line"/>
      <point x="456" y="502" type="line" smooth="yes"/>
      <point x="546" y="502"/>
      <point x="582" y="490"/>
      <point x="615" y="458" type="curve"/>
      <point x="638" y="475"/>
      <point x="671" y="530"/>
    </contour>
    <contour>
      <point x="823" y="243" type="curve"/>
      <point x="764" y="263" type="line"/>
      <point x="719" y="138"/>
      <point x="684" y="96"/>
      <point x="586" y="96" type="curve" smooth="yes"/>
      <point x="507" y="96" type="line" smooth="yes"/>
      <point x="366" y="96"/>
      <point x="344" y="116"/>
      <point x="344" y="147" type="curve" smooth="yes"/>
      <point x="344" y="917" type="line" smooth="yes"/>
      <point x="344" y="932"/>
      <point x="388" y="942"/>
      <point x="460" y="949" type="curve"/>
      <point x="460" y="1008" type="line"/>
      <point x="34" y="1008" type="line"/>
      <point x="34" y="949" type="line"/>
      <point x="110" y="934"/>
      <point x="144" y="912"/>
      <point x="144" y="900" type="curve" smooth="yes"/>
      <point x="144" y="107" type="line" smooth="yes"/>
      <point x="144" y="92"/>
      <point x="106" y="72"/>
      <point x="34" y="58" type="curve"/>
      <point x="34" y="0" type="line"/>
      <point x="790" y="0" type="line"/>
      <point x="799" y="31"/>
      <point x="815" y="151"/>
    </contour>
  </outline>
</glyph>
<glyph name="F" format="2">
  <advance width="831"/>
  <unicode hex="0046"/>
  <anchor x="405" y="-80" name="L"/>
  <anchor x="405" y="1096" name="U"/>
  <outline>
    <contour>
      <point x="777" y="982" type="curve"/>
      <point x="746" y="1008" type="line"/>
      <point x="325" y="1008" type="line"/>
      <point x="302" y="912" type="line"/>
      <point x="619" y="912" type="line" smooth="yes"/>
      <point x="660" y="912"/>
      <point x="681" y="858"/>
      <point x="684" y="760" type="curve"/>
      <point x="746" y="760" type="line"/>
      <point x="759" y="800"/>
      <point x="776" y="927"/>
    </contour>
    <contour>
      <point x="666" y="559" type="curve"/>
      <point x="637" y="588" type="line"/>
      <point x="286" y="588" type="line"/>
      <point x="194" y="502" type="line"/>
      <point x="433" y="502" type="line" smooth="yes"/>
      <point x="522" y="502"/>
      <point x="560" y="490"/>
      <point x="591" y="458" type="curve"/>
      <point x="613" y="475"/>
      <point x="646" y="524"/>
    </contour>
    <contour>
      <point x="34" y="0" type="line"/>
      <point x="478" y="0" type="line"/>
      <point x="478" y="58" type="line"/>
      <point x="373" y="78"/>
      <point x="344" y="94"/>
      <point x="344" y="107" type="curve" smooth="yes"/>
      <point x="344" y="917" type="line" smooth="yes"/>
      <point x="344" y="932"/>
      <point x="398" y="942"/>
      <point x="460" y="949" type="curve"/>
      <point x="460" y="1008" type="line"/>
      <point x="34" y="1008" type="line"/>
      <point x="34" y="949" type="line"/>
      <point x="110" y="934"/>
      <point x="144" y="912"/>
      <point x="144" y="900" type="curve" smooth="yes"/>
      <point x="144" y="107" type="line" smooth="yes"/>
      <point x="144" y="92"/>
      <point x="106" y="72"/>
      <point x="34" y="58" type="curve"/>
    </contour>
  </outline>
</glyph>
<glyph name="G" format="2">
  <advance width="985"/>
  <unicode hex="0047"/>
  <anchor x="508" y="0" name="H"/>
  <anchor x="525" y="-80" name="L"/>
  <anchor x="525" y="1096" name="U"/>
  <outline>
    <contour>
      <point x="952" y="441" type="curve"/>
      <point x="952" y="500" type="line"/>
      <point x="553" y="500" type="line"/>
      <point x="553" y="441" type="line"/>
      <point x="673" y="420"/>
      <point x="682" y="399"/>
      <point x="682" y="376" type="curve" smooth="yes"/>
      <point x="682" y="78" type="line" smooth="yes"/>
      <point x="682" y="64"/>
      <point x="874" y="135"/>
      <point x="874" y="135" type="curve"/>
      <point x="874" y="376" type="line" smooth="yes"/>
      <point x="874" y="400"/>
      <point x="891" y="427"/>
    </contour>
    <contour>
      <point x="875" y="950" type="curve"/>
      <point x="806" y="1002"/>
      <point x="672" y="1032"/>
      <point x="601" y="1032" type="curve" smooth="yes"/>
      <point x="284" y="1032"/>
      <point x="44" y="820"/>
      <point x="44" y="465" type="curve" smooth="yes"/>
      <point x="44" y="136"/>
      <point x="274" y="-24"/>
      <point x="506" y="-24" type="curve" smooth="yes"/>
      <point x="603" y="-24"/>
      <point x="715" y="5"/>
      <point x="874" y="135" type="curve"/>
      <point x="867" y="143"/>
      <point x="778" y="184"/>
      <point x="764" y="192" type="curve"/>
      <point x="709" y="139"/>
      <point x="648" y="102"/>
      <point x="540" y="102" type="curve" smooth="yes"/>
      <point x="390" y="102"/>
      <point x="246" y="224"/>
      <point x="246" y="509" type="curve" smooth="yes"/>
      <point x="246" y="842"/>
      <point x="422" y="932"/>
      <point x="502" y="932" type="curve" smooth="yes"/>
      <point x="595" y="932"/>
      <point x="666" y="898"/>
      <point x="736" y="795" type="curve"/>
      <point x="786" y="784" type="line"/>
      <point x="814" y="809"/>
      <point x="890" y="939"/>
    </contour>
  </outline>
</glyph>
<glyph name="H" format="2">
  <advance width="1119"/>
  <unicode hex="0048"/>
  <anchor x="246" y="0" name="H"/>
  <anchor x="552" y="-80" name="L"/>
  <anchor x="552" y="1096" name="U"/>
  <outline>
    <contour>
      <point x="650" y="0" type="line"/>
      <point x="1070" y="0" type="line"/>
      <point x="1070" y="58" type="line"/>
      <point x="993" y="72"/>
      <point x="960" y="94"/>
      <point x="960" y="107" type="curve" smooth="yes"/>
      <point x="960" y="900" type="line" smooth="yes"/>
      <point x="960" y="915"/>
      <point x="998" y="934"/>
      <point x="1070" y="949" type="curve"/>
      <point x="1070" y="1008" type="line"/>
      <point x="650" y="1008" type="line"/>
      <point x="650" y="949" type="line"/>
      <point x="726" y="934"/>
      <point x="760" y="912"/>
      <point x="760" y="900" type="curve" smooth="yes"/>
      <point x="760" y="107" type="line" smooth="yes"/>
      <point x="760" y="92"/>
      <point x="722" y="72"/>
      <point x="650" y="58" type="curve"/>
    </contour>
    <contour>
      <point x="321" y="480" type="line"/>
      <point x="776" y="480" type="line"/>
      <point x="776" y="576" type="line"/>
      <point x="321" y="576" type="line"/>
    </contour>
    <contour>
      <point x="34" y="0" type="line"/>
      <point x="454" y="0" type="line"/>
      <point x="454" y="58" type="line"/>
      <point x="376" y="72"/>
      <point x="344" y="94"/>
      <point x="344" y="107" type="curve" smooth="yes"/>
      <point x="344" y="900" type="line" smooth="yes"/>
      <point x="344" y="915"/>
      <point x="382" y="934"/>
      <point x="454" y="949" type="curve"/>
      <point x="454" y="1008" type="line"/>
      <point x="34" y="1008" type="line"/>
      <point x="34" y="949" type="line"/>
      <point x="110" y="934"/>
      <point x="144" y="912"/>
      <point x="144" y="900" type="curve" smooth="yes"/>
      <point x="144" y="107" type="line" smooth="yes"/>
      <point x="144" y="92"/>
      <point x="106" y="72"/>
      <point x="34" y="58" type="curve"/>
    </contour>
  </outline>
</glyph>
<glyph name="I" format="2">
  <advance width="536"/>
  <unicode hex="0049"/>
  <anchor x="260" y="0" name="H"/>
  <anchor x="260" y="-80" name="L"/>
  <anchor x="306" y="0" name="O"/>
  <anchor x="480" y="880" name="R"/>
  <anchor x="260" y="1096" name="U"/>
  <outline>
    <contour>
      <point x="50" y="0" type="line"/>
      <point x="470" y="0" type="line"/>
      <point x="470" y="58" type="line"/>
      <point x="393" y="72"/>
      <point x="360" y="94"/>
      <point x="360" y="107" type="curve" smooth="yes"/>
      <point x="360" y="900" type="line" smooth="yes"/>
      <point x="360" y="915"/>
      <point x="398" y="934"/>
      <point x="470" y="949" type="curve"/>
      <point x="470" y="1008" type="line"/>
      <point x="50" y="1008" type="line"/>
      <point x="50" y="949" type="line"/>
      <point x="126" y="934"/>
      <point x="160" y="912"/>
      <point x="160" y="900" type="curve" smooth="yes"/>
      <point x="160" y="107" type="line" smooth="yes"/>
      <point x="160" y="92"/>
      <point x="122" y="72"/>
      <point x="50" y="58" type="curve"/>
    </contour>
  </outline>
</glyph>
<glyph name="J" format="2">
  <advance width="548"/>
  <unicode hex="004A"/>
  <anchor x="283" y="-480" name="L"/>
  <anchor x="283" y="1096" name="U"/>
  <outline>
    <contour>
      <point x="498" y="949" type="curve"/>
      <point x="498" y="1008" type="line"/>
      <point x="38" y="1008" type="line"/>
      <point x="38" y="949" type="line"/>
      <point x="166" y="931"/>
      <point x="188" y="912"/>
      <point x="188" y="900" type="curve" smooth="yes"/>
      <point x="188" y="88" type="line" smooth="yes"/>
      <point x="188" y="-162"/>
      <point x="129" y="-199"/>
      <point x="73" y="-199" type="curve" smooth="yes"/>
      <point x="32" y="-199"/>
      <point x="-18" y="-181"/>
      <point x="-77" y="-130" type="curve"/>
      <point x="-106" y="-141"/>
      <point x="-212" y="-234"/>
      <point x="-212" y="-258" type="curve" smooth="yes"/>
      <point x="-212" y="-282"/>
      <point x="-114" y="-334"/>
      <point x="-20" y="-334" type="curve" smooth="yes"/>
      <point x="51" y="-334"/>
      <point x="142" y="-294"/>
      <point x="198" y="-248" type="curve" smooth="yes"/>
      <point x="282" y="-180"/>
      <point x="388" y="-88"/>
      <point x="388" y="146" type="curve" smooth="yes"/>
      <point x="388" y="900" type="line" smooth="yes"/>
      <point x="388" y="915"/>
      <point x="426" y="934"/>
    </contour>
  </outline>
</glyph>
<glyph name="K" format="2">
  <advance width="1013"/>
  <unicode hex="004B"/>
  <anchor x="247" y="0" name="H"/>
  <anchor x="522" y="-80" name="L"/>
  <anchor x="503" y="1096" name="U"/>
  <outline>
    <contour>
      <point x="960" y="949" type="curve"/>
      <point x="960" y="1008" type="line"/>
      <point x="600" y="1008" type="line"/>
      <point x="600" y="949" type="line"/>
      <point x="684" y="942"/>
      <point x="690" y="936"/>
      <point x="641" y="878" type="curve" smooth="yes"/>
      <point x="332" y="514" type="line"/>
      <point x="467" y="514" type="line"/>
      <point x="836" y="900" type="line" smooth="yes"/>
      <point x="869" y="935"/>
      <point x="891" y="940"/>
    </contour>
    <contour>
      <point x="1011" y="41" type="curve"/>
      <point x="1005" y="100" type="line"/>
      <point x="950" y="93"/>
      <point x="912" y="94"/>
      <point x="878" y="131" type="curve" smooth="yes"/>
      <point x="459" y="576" type="line"/>
      <point x="332" y="514" type="line"/>
      <point x="725" y="23" type="line" smooth="yes"/>
      <point x="746" y="-3"/>
      <point x="769" y="-11"/>
      <point x="800" y="-11" type="curve" smooth="yes"/>
      <point x="851" y="-11"/>
      <point x="948" y="21"/>
    </contour>
    <contour>
      <point x="34" y="0" type="line"/>
      <point x="454" y="0" type="line"/>
      <point x="454" y="58" type="line"/>
      <point x="376" y="72"/>
      <point x="344" y="94"/>
      <point x="344" y="107" type="curve" smooth="yes"/>
      <point x="344" y="900" type="line" smooth="yes"/>
      <point x="344" y="915"/>
      <point x="382" y="934"/>
      <point x="454" y="949" type="curve"/>
      <point x="454" y="1008" type="line"/>
      <point x="34" y="1008" type="line"/>
      <point x="34" y="949" type="line"/>
      <point x="110" y="934"/>
      <point x="144" y="912"/>
      <point x="144" y="900" type="curve" smooth="yes"/>
      <point x="144" y="107" type="line" smooth="yes"/>
      <point x="144" y="92"/>
      <point x="106" y="72"/>
      <point x="34" y="58" type="curve"/>
    </contour>
  </outline>
</glyph>
<glyph name="L" format="2">
  <advance width="834"/>
  <unicode hex="004C"/>
  <anchor x="424" y="0" name="H"/>
  <anchor x="424" y="-80" name="L"/>
  <anchor x="654" y="720" name="R"/>
  <anchor x="398" y="1096" name="U"/>
  <outline>
    <contour>
      <point x="815" y="243" type="curve"/>
      <point x="756" y="263" type="line"/>
      <point x="711" y="138"/>
      <point x="681" y="96"/>
      <point x="583" y="96" type="curve" smooth="yes"/>
      <point x="492" y="96" type="line" smooth="yes"/>
      <point x="376" y="96"/>
      <point x="344" y="117"/>
      <point x="344" y="155" type="curve" smooth="yes"/>
      <point x="344" y="900" type="line" smooth="yes"/>
      <point x="344" y="915"/>
      <point x="382" y="934"/>
      <point x="454" y="949" type="curve"/>
      <point x="454" y="1008" type="line"/>
      <point x="34" y="1008" type="line"/>
      <point x="34" y="949" type="line"/>
      <point x="110" y="934"/>
      <point x="144" y="912"/>
      <point x="144" y="900" type="curve" smooth="yes"/>
      <point x="144" y="107" type="line" smooth="yes"/>
      <point x="144" y="92"/>
      <point x="106" y="72"/>
      <point x="34" y="58" type="curve"/>
      <point x="34" y="0" type="line"/>
      <point x="782" y="0" type="line"/>
      <point x="790" y="31"/>
      <point x="807" y="151"/>
    </contour>
  </outline>
</glyph>
<glyph name="M" format="2">
  <advance width="1386"/>
  <unicode hex="004D"/>
  <anchor x="1122" y="0" name="H"/>
  <anchor x="685" y="-80" name="L"/>
  <anchor x="685" y="1096" name="U"/>
  <outline>
    <contour>
      <point x="910" y="0" type="line"/>
      <point x="1328" y="0" type="line"/>
      <point x="1328" y="58" type="line"/>
      <point x="1251" y="72"/>
      <point x="1212" y="94"/>
      <point x="1212" y="107" type="curve" smooth="yes"/>
      <point x="1204" y="947" type="line"/>
      <point x="1020" y="901" type="line"/>
      <point x="1028" y="107" type="line" smooth="yes"/>
      <point x="1028" y="92"/>
      <point x="982" y="72"/>
      <point x="910" y="58" type="curve"/>
    </contour>
    <contour>
      <point x="1306" y="949" type="curve"/>
      <point x="1306" y="1008" type="line"/>
      <point x="1035" y="1008" type="line" smooth="yes"/>
      <point x="1015" y="1008"/>
      <point x="1005" y="1003"/>
      <point x="978" y="940" type="curve" smooth="yes"/>
      <point x="650" y="209" type="line" smooth="yes"/>
      <point x="635" y="175"/>
      <point x="654" y="134"/>
      <point x="679" y="0" type="curve"/>
      <point x="682" y="0" type="line"/>
      <point x="1046" y="813" type="line" smooth="yes"/>
      <point x="1080" y="889"/>
      <point x="1234" y="949"/>
    </contour>
    <contour>
      <point x="706" y="211" type="curve" smooth="yes"/>
      <point x="384" y="940" type="line" smooth="yes"/>
      <point x="358" y="998"/>
      <point x="348" y="1008"/>
      <point x="326" y="1008" type="curve" smooth="yes"/>
      <point x="50" y="1008" type="line"/>
      <point x="50" y="949" type="line"/>
      <point x="108" y="949"/>
      <point x="199" y="927"/>
      <point x="241" y="830" type="curve" smooth="yes"/>
      <point x="607" y="0" type="line"/>
      <point x="679" y="0" type="line"/>
      <point x="705" y="134"/>
      <point x="720" y="178"/>
    </contour>
    <contour>
      <point x="42" y="0" type="line"/>
      <point x="378" y="0" type="line"/>
      <point x="378" y="58" type="line"/>
      <point x="301" y="72"/>
      <point x="268" y="94"/>
      <point x="268" y="107" type="curve" smooth="yes"/>
      <point x="276" y="952" type="line"/>
      <point x="160" y="932" type="line"/>
      <point x="152" y="107" type="line" smooth="yes"/>
      <point x="152" y="92"/>
      <point x="114" y="72"/>
      <point x="42" y="58" type="curve"/>
    </contour>
  </outline>
</glyph>
<glyph name="N" format="2">
  <advance width="1087"/>
  <unicode hex="004E"/>
  <anchor x="855" y="0" name="H"/>
  <anchor x="544" y="-80" name="L"/>
  <anchor x="544" y="1096" name="U"/>
  <outline>
    <contour>
      <point x="1054" y="949" type="curve"/>
      <point x="1054" y="1008" type="line"/>
      <point x="714" y="1008" type="line"/>
      <point x="714" y="949" type="line"/>
      <point x="799" y="937"/>
      <point x="824" y="912"/>
      <point x="824" y="900" type="curve" smooth="yes"/>
      <point x="824" y="56" type="line"/>
      <point x="944" y="25" type="line"/>
      <point x="944" y="900" type="line" smooth="yes"/>
      <point x="944" y="915"/>
      <point x="977" y="939"/>
    </contour>
    <contour>
      <point x="944" y="-24" type="curve"/>
      <point x="944" y="114" type="line"/>
      <point x="944" y="114"/>
      <point x="860" y="217"/>
      <point x="837" y="248" type="curve" smooth="yes"/>
      <point x="334" y="945" type="line" smooth="yes"/>
      <point x="294" y="1000"/>
      <point x="288" y="1008"/>
      <point x="257" y="1008" type="curve" smooth="yes"/>
      <point x="34" y="1008" type="line"/>
      <point x="34" y="949" type="line"/>
      <point x="90" y="940"/>
      <point x="146" y="899"/>
      <point x="190" y="838" type="curve" smooth="yes"/>
      <point x="752" y="58" type="line" smooth="yes"/>
      <point x="781" y="19"/>
      <point x="842" y="-15"/>
    </contour>
    <contour>
      <point x="34" y="0" type="line"/>
      <point x="374" y="0" type="line"/>
      <point x="374" y="58" type="line"/>
      <point x="291" y="69"/>
      <point x="264" y="94"/>
      <point x="264" y="107" type="curve" smooth="yes"/>
      <point x="264" y="976" type="line"/>
      <point x="144" y="932" type="line"/>
      <point x="144" y="107" type="line" smooth="yes"/>
      <point x="144" y="92"/>
      <point x="112" y="68"/>
      <point x="34" y="58" type="curve"/>
    </contour>
  </outline>
</glyph>
<glyph name="O" format="2">
  <advance width="1019"/>
  <unicode hex="004F"/>
  <anchor x="485" y="0" name="H"/>
  <anchor x="511" y="-80" name="L"/>
  <anchor x="562" y="0" name="O"/>
  <anchor x="1005" y="880" name="R"/>
  <anchor x="511" y="1096" name="U"/>
  <outline>
    <contour>
      <point x="478" y="-24" type="curve" smooth="yes"/>
      <point x="738" y="-24"/>
      <point x="958" y="228"/>
      <point x="958" y="517" type="curve" smooth="yes"/>
      <point x="958" y="778"/>
      <point x="806" y="1032"/>
      <point x="524" y="1032" type="curve" smooth="yes"/>
      <point x="243" y="1032"/>
      <point x="44" y="780"/>
      <point x="44" y="489" type="curve" smooth="yes"/>
      <point x="44" y="220"/>
      <point x="209" y="-24"/>
    </contour>
    <contour>
      <point x="513" y="84" type="curve" smooth="yes"/>
      <point x="367" y="84"/>
      <point x="246" y="273"/>
      <point x="246" y="512" type="curve" smooth="yes"/>
      <point x="246" y="773"/>
      <point x="330" y="928"/>
      <point x="483" y="928" type="curve" smooth="yes"/>
      <point x="647" y="928"/>
      <point x="756" y="724"/>
      <point x="756" y="503" type="curve" smooth="yes"/>
      <point x="756" y="220"/>
      <point x="654" y="84"/>
    </contour>
  </outline>
</glyph>
<glyph name="P" format="2">
  <advance width="928"/>
  <unicode hex="0050"/>
  <anchor x="446" y="-80" name="L"/>
  <anchor x="446" y="1096" name="U"/>
  <outline>
    <contour>
      <point x="869" y="748" type="curve"/>
      <point x="869" y="932"/>
      <point x="703" y="1032"/>
      <point x="456" y="1032" type="curve" smooth="yes"/>
      <point x="314" y="1032"/>
      <point x="139" y="1012"/>
      <point x="23" y="984" type="curve"/>
      <point x="34" y="910" type="line"/>
      <point x="137" y="928"/>
      <point x="298" y="946"/>
      <point x="410" y="946" type="curve" smooth="yes"/>
      <point x="563" y="946"/>
      <point x="667" y="867"/>
      <point x="667" y="716" type="curve" smooth="yes"/>
      <point x="667" y="565"/>
      <point x="574" y="500"/>
      <point x="482" y="500" type="curve" smooth="yes"/>
      <point x="444" y="500"/>
      <point x="415" y="504"/>
      <point x="371" y="524" type="curve"/>
      <point x="395" y="440" type="line"/>
      <point x="431" y="424"/>
      <point x="481" y="416"/>
      <point x="530" y="416" type="curve" smooth="yes"/>
      <point x="672" y="416"/>
      <point x="869" y="527"/>
    </contour>
    <contour>
      <point x="34" y="0" type="line"/>
      <point x="478" y="0" type="line"/>
      <point x="478" y="58" type="line"/>
      <point x="366" y="76"/>
      <point x="344" y="94"/>
      <point x="344" y="107" type="curve" smooth="yes"/>
      <point x="344" y="950" type="line"/>
      <point x="144" y="950" type="line"/>
      <point x="144" y="107" type="line" smooth="yes"/>
      <point x="144" y="92"/>
      <point x="106" y="72"/>
      <point x="34" y="58" type="curve"/>
    </contour>
  </outline>
</glyph>
<glyph name="Q" format="2">
  <advance width="1019"/>
  <unicode hex="0051"/>
  <anchor x="524" y="-214" name="L"/>
  <anchor x="524" y="1096" name="U"/>
  <outline>
    <contour>
      <point x="958" y="517" type="curve"/>
      <point x="958" y="778"/>
      <point x="806" y="1032"/>
      <point x="524" y="1032" type="curve" smooth="yes"/>
      <point x="243" y="1032"/>
      <point x="44" y="780"/>
      <point x="44" y="489" type="curve" smooth="yes"/>
      <point x="44" y="217"/>
      <point x="214" y="-24"/>
      <point x="478" y="-24" type="curve" smooth="yes"/>
      <point x="738" y="-24"/>
      <point x="958" y="228"/>
    </contour>
    <contour>
      <point x="1133" y="-99" type="curve"/>
      <point x="1094" y="-47" type="line"/>
      <point x="1030" y="-94"/>
      <point x="1008" y="-104"/>
      <point x="982" y="-104" type="curve" smooth="yes"/>
      <point x="872" y="-104"/>
      <point x="751" y="6"/>
      <point x="605" y="39" type="curve" smooth="yes"/>
      <point x="577" y="45"/>
      <point x="418" y="16"/>
      <point x="418" y="16" type="curve"/>
      <point x="603" y="-12"/>
      <point x="794" y="-262"/>
      <point x="977" y="-262" type="curve" smooth="yes"/>
      <point x="1010" y="-262"/>
      <point x="1083" y="-192"/>
    </contour>
    <contour>
      <point x="756" y="503" type="curve"/>
      <point x="756" y="220"/>
      <point x="654" y="84"/>
      <point x="513" y="84" type="curve" smooth="yes"/>
      <point x="367" y="84"/>
      <point x="246" y="273"/>
      <point x="246" y="512" type="curve" smooth="yes"/>
      <point x="246" y="773"/>
      <point x="329" y="928"/>
      <point x="483" y="928" type="curve" smooth="yes"/>
      <point x="646" y="928"/>
      <point x="756" y="724"/>
    </contour>
  </outline>
</glyph>
<glyph name="R" format="2">
  <advance width="991"/>
  <unicode hex="0052"/>
  <anchor x="247" y="0" name="H"/>
  <anchor x="447" y="-80" name="L"/>
  <anchor x="447" y="1096" name="U"/>
  <outline>
    <contour>
      <point x="825" y="789" type="curve"/>
      <point x="825" y="927"/>
      <point x="712" y="1032"/>
      <point x="423" y="1032" type="curve" smooth="yes"/>
      <point x="270" y="1032"/>
      <point x="135" y="1008"/>
      <point x="23" y="984" type="curve"/>
      <point x="34" y="910" type="line"/>
      <point x="143" y="927"/>
      <point x="294" y="946"/>
      <point x="387" y="946" type="curve" smooth="yes"/>
      <point x="572" y="946"/>
      <point x="623" y="863"/>
      <point x="623" y="764" type="curve" smooth="yes"/>
      <point x="623" y="636"/>
      <point x="559" y="559"/>
      <point x="415" y="559" type="curve" smooth="yes"/>
      <point x="388" y="559"/>
      <point x="367" y="560"/>
      <point x="329" y="567" type="curve"/>
      <point x="334" y="479" type="line"/>
      <point x="367" y="471"/>
      <point x="399" y="468"/>
      <point x="428" y="468" type="curve" smooth="yes"/>
      <point x="647" y="468"/>
      <point x="825" y="584"/>
    </contour>
    <contour>
      <point x="995" y="41" type="curve"/>
      <point x="983" y="100" type="line"/>
      <point x="911" y="93"/>
      <point x="888" y="102"/>
      <point x="854" y="147" type="curve" smooth="yes"/>
      <point x="568" y="542" type="line"/>
      <point x="449" y="489" type="line"/>
      <point x="689" y="32" type="line" smooth="yes"/>
      <point x="704" y="8"/>
      <point x="737" y="-11"/>
      <point x="768" y="-11" type="curve" smooth="yes"/>
      <point x="809" y="-11"/>
      <point x="924" y="18"/>
    </contour>
    <contour>
      <point x="34" y="0" type="line"/>
      <point x="454" y="0" type="line"/>
      <point x="454" y="58" type="line"/>
      <point x="376" y="72"/>
      <point x="344" y="94"/>
      <point x="344" y="107" type="curve" smooth="yes"/>
      <point x="344" y="958" type="line"/>
      <point x="144" y="958" type="line"/>
      <point x="144" y="107" type="line" smooth="yes"/>
      <point x="144" y="92"/>
      <point x="106" y="72"/>
      <point x="34" y="58" type="curve"/>
    </contour>
  </outline>
</glyph>
<glyph name="S" format="2">
  <advance width="840"/>
  <unicode hex="0053"/>
  <anchor x="409" y="0" name="H"/>
  <anchor x="427" y="-80" name="L"/>
  <anchor x="427" y="1096" name="U"/>
  <outline>
    <contour>
      <point x="656" y="804" type="line"/>
      <point x="682" y="827"/>
      <point x="739" y="945"/>
      <point x="724" y="958" type="curve"/>
      <point x="685" y="1000"/>
      <point x="571" y="1032"/>
      <point x="456" y="1032" type="curve" smooth="yes"/>
      <point x="198" y="1032"/>
      <point x="89" y="867"/>
      <point x="89" y="767" type="curve" smooth="yes"/>
      <point x="89" y="458"/>
      <point x="594" y="507"/>
      <point x="594" y="247" type="curve" smooth="yes"/>
      <point x="594" y="145"/>
      <point x="504" y="90"/>
      <point x="408" y="90" type="curve" smooth="yes"/>
      <point x="300" y="90"/>
      <point x="204" y="177"/>
      <point x="155" y="303" type="curve"/>
      <point x="98" y="307" type="line"/>
      <point x="76" y="225"/>
      <point x="78" y="62"/>
      <point x="92" y="54" type="curve" smooth="yes"/>
      <point x="168" y="6"/>
      <point x="299" y="-24"/>
      <point x="376" y="-24" type="curve" smooth="yes"/>
      <point x="646" y="-24"/>
      <point x="774" y="159"/>
      <point x="774" y="301" type="curve" smooth="yes"/>
      <point x="774" y="617"/>
      <point x="265" y="615"/>
      <point x="265" y="817" type="curve" smooth="yes"/>
      <point x="265" y="878"/>
      <point x="309" y="939"/>
      <point x="415" y="939" type="curve" smooth="yes"/>
      <point x="476" y="939"/>
      <point x="556" y="908"/>
      <point x="603" y="808" type="curve"/>
    </contour>
  </outline>
</glyph>
<glyph name="T" format="2">
  <advance width="950"/>
  <unicode hex="0054"/>
  <anchor x="461" y="0" name="H"/>
  <anchor x="460" y="-80" name="L"/>
  <anchor x="460" y="1096" name="U"/>
  <outline>
    <contour>
      <point x="920" y="982" type="curve"/>
      <point x="890" y="1008" type="line"/>
      <point x="539" y="1008" type="line"/>
      <point x="516" y="912" type="line"/>
      <point x="762" y="912" type="line" smooth="yes"/>
      <point x="807" y="912"/>
      <point x="809" y="851"/>
      <point x="830" y="752" type="curve"/>
      <point x="890" y="752" type="line"/>
      <point x="903" y="819"/>
      <point x="918" y="927"/>
    </contour>
    <contour>
      <point x="161" y="912" type="curve" smooth="yes"/>
      <point x="426" y="912" type="line"/>
      <point x="416" y="1008" type="line"/>
      <point x="34" y="1008" type="line"/>
      <point x="23" y="952"/>
      <point x="6" y="828"/>
      <point x="2" y="766" type="curve"/>
      <point x="60" y="745" type="line"/>
      <point x="108" y="869"/>
      <point x="128" y="912"/>
    </contour>
    <contour>
      <point x="239" y="0" type="line"/>
      <point x="690" y="0" type="line"/>
      <point x="690" y="58" type="line"/>
      <point x="591" y="78"/>
      <point x="564" y="102"/>
      <point x="564" y="116" type="curve" smooth="yes"/>
      <point x="564" y="917" type="line" smooth="yes"/>
      <point x="564" y="932"/>
      <point x="607" y="934"/>
      <point x="679" y="949" type="curve"/>
      <point x="679" y="1008" type="line"/>
      <point x="260" y="1008" type="line"/>
      <point x="260" y="949" type="line"/>
      <point x="337" y="934"/>
      <point x="364" y="930"/>
      <point x="364" y="917" type="curve" smooth="yes"/>
      <point x="364" y="116" type="line" smooth="yes"/>
      <point x="364" y="100"/>
      <point x="338" y="78"/>
      <point x="239" y="58" type="curve"/>
    </contour>
  </outline>
</glyph>
<glyph name="U" format="2">
  <advance width="1095"/>
  <unicode hex="0055"/>
  <anchor x="553" y="0" name="H"/>
  <anchor x="553" y="-80" name="L"/>
  <anchor x="622" y="0" name="O"/>
  <anchor x="1094" y="880" name="R"/>
  <anchor x="553" y="1096" name="U"/>
  <outline>
    <contour>
      <point x="1050" y="949" type="curve"/>
      <point x="1050" y="1008" type="line"/>
      <point x="690" y="1008" type="line"/>
      <point x="690" y="949" type="line"/>
      <point x="766" y="934"/>
      <point x="800" y="912"/>
      <point x="800" y="900" type="curve" smooth="yes"/>
      <point x="800" y="398" type="line" smooth="yes"/>
      <point x="800" y="240"/>
      <point x="746" y="92"/>
      <point x="594" y="92" type="curve" smooth="yes"/>
      <point x="411" y="92"/>
      <point x="344" y="202"/>
      <point x="344" y="407" type="curve" smooth="yes"/>
      <point x="344" y="900" type="line" smooth="yes"/>
      <point x="344" y="915"/>
      <point x="382" y="934"/>
      <point x="454" y="949" type="curve"/>
      <point x="454" y="1008" type="line"/>
      <point x="34" y="1008" type="line"/>
      <point x="34" y="949" type="line"/>
      <point x="110" y="934"/>
      <point x="144" y="912"/>
      <point x="144" y="900" type="curve" smooth="yes"/>
      <point x="144" y="355" type="line" smooth="yes"/>
      <point x="144" y="95"/>
      <point x="324" y="-24"/>
      <point x="544" y="-24" type="curve" smooth="yes"/>
      <point x="775" y="-24"/>
      <point x="940" y="139"/>
      <point x="940" y="419" type="curve" smooth="yes"/>
      <point x="940" y="900" type="line" smooth="yes"/>
      <point x="940" y="915"/>
      <point x="978" y="934"/>
    </contour>
  </outline>
</glyph>
<glyph name="V" format="2">
  <advance width="1088"/>
  <unicode hex="0056"/>
  <anchor x="533" y="0" name="H"/>
  <anchor x="536" y="-80" name="L"/>
  <anchor x="499" y="0" name="O"/>
  <anchor x="544" y="1096" name="U"/>
  <outline>
    <contour>
      <point x="1062" y="949" type="curve"/>
      <point x="1062" y="1008" type="line"/>
      <point x="717" y="1008" type="line"/>
      <point x="717" y="949" type="line"/>
      <point x="804" y="939"/>
      <point x="830" y="928"/>
      <point x="818" y="896" type="curve" smooth="yes"/>
      <point x="581" y="228" type="line"/>
      <point x="321" y="898" type="line" smooth="yes"/>
      <point x="309" y="928"/>
      <point x="333" y="943"/>
      <point x="418" y="949" type="curve"/>
      <point x="418" y="1008" type="line"/>
      <point x="10" y="1008" type="line"/>
      <point x="10" y="949" type="line"/>
      <point x="77" y="940"/>
      <point x="106" y="924"/>
      <point x="117" y="896" type="curve" smooth="yes"/>
      <point x="481" y="-24" type="line"/>
      <point x="533" y="-11"/>
      <point x="620" y="18"/>
      <point x="637" y="65" type="curve" smooth="yes"/>
      <point x="938" y="896" type="line"/>
      <point x="948" y="926"/>
      <point x="990" y="936"/>
    </contour>
  </outline>
</glyph>
<glyph name="W" format="2">
  <advance width="1392"/>
  <unicode hex="0057"/>
  <anchor x="700" y="-80" name="L"/>
  <anchor x="700" y="1096" name="U"/>
  <outline>
    <contour>
      <point x="1385" y="949" type="curve"/>
      <point x="1385" y="1008" type="line"/>
      <point x="1028" y="1008" type="line"/>
      <point x="1028" y="949" type="line"/>
      <point x="1100" y="937"/>
      <point x="1156" y="924"/>
      <point x="1151" y="900" type="curve"/>
      <point x="1023" y="308" type="line"/>
      <point x="754" y="1008" type="line"/>
      <point x="674" y="1008" type="line"/>
      <point x="441" y="308" type="line"/>
      <point x="304" y="893" type="line" smooth="yes"/>
      <point x="299" y="916"/>
      <point x="303" y="939"/>
      <point x="407" y="949" type="curve"/>
      <point x="407" y="1008" type="line"/>
      <point x="16" y="1008" type="line"/>
      <point x="16" y="949" type="line"/>
      <point x="92" y="936"/>
      <point x="120" y="920"/>
      <point x="126" y="893" type="curve" smooth="yes"/>
      <point x="334" y="-24" type="line"/>
      <point x="377" y="-14"/>
      <point x="446" y="1"/>
      <point x="461" y="47" type="curve" smooth="yes"/>
      <point x="690" y="701" type="line"/>
      <point x="963" y="-24" type="line"/>
      <point x="996" y="-16"/>
      <point x="1071" y="1"/>
      <point x="1080" y="47" type="curve" smooth="yes"/>
      <point x="1264" y="900" type="line" smooth="yes"/>
      <point x="1267" y="916"/>
      <point x="1291" y="930"/>
    </contour>
  </outline>
</glyph>
<glyph name="X" format="2">
  <advance width="1032"/>
  <unicode hex="0058"/>
  <anchor x="516" y="-80" name="L"/>
  <anchor x="516" y="1096" name="U"/>
  <outline>
    <contour>
      <point x="974" y="949" type="curve"/>
      <point x="974" y="1008" type="line"/>
      <point x="611" y="1008" type="line"/>
      <point x="611" y="949" type="line"/>
      <point x="706" y="942"/>
      <point x="722" y="930"/>
      <point x="692" y="882" type="curve" smooth="yes"/>
      <point x="464" y="521" type="line"/>
      <point x="520" y="400" type="line"/>
      <point x="827" y="882" type="line" smooth="yes"/>
      <point x="856" y="927"/>
      <point x="896" y="940"/>
    </contour>
    <contour>
      <point x="586" y="0" type="line"/>
      <point x="1013" y="0" type="line"/>
      <point x="1013" y="58" type="line"/>
      <point x="950" y="66"/>
      <point x="924" y="80"/>
      <point x="892" y="125" type="curve" smooth="yes"/>
      <point x="374" y="882" type="line" smooth="yes"/>
      <point x="342" y="928"/>
      <point x="369" y="940"/>
      <point x="459" y="949" type="curve"/>
      <point x="459" y="1008" type="line"/>
      <point x="26" y="1008" type="line"/>
      <point x="26" y="949" type="line"/>
      <point x="97" y="939"/>
      <point x="119" y="929"/>
      <point x="151" y="882" type="curve" smooth="yes"/>
      <point x="670" y="125" type="line" smooth="yes"/>
      <point x="700" y="83"/>
      <point x="680" y="68"/>
      <point x="586" y="58" type="curve"/>
    </contour>
    <contour>
      <point x="299" y="125" type="curve" smooth="yes"/>
      <point x="522" y="462" type="line"/>
      <point x="476" y="601" type="line"/>
      <point x="164" y="125" type="line" smooth="yes"/>
      <point x="136" y="82"/>
      <point x="87" y="63"/>
      <point x="18" y="58" type="curve"/>
      <point x="18" y="0" type="line"/>
      <point x="378" y="0" type="line"/>
      <point x="378" y="58" type="line"/>
      <point x="280" y="64"/>
      <point x="268" y="79"/>
    </contour>
  </outline>
</glyph>
<glyph name="Y" format="2">
  <advance width="1003"/>
  <unicode hex="0059"/>
  <anchor x="501" y="-80" name="L"/>
  <anchor x="501" y="1096" name="U"/>
  <outline>
    <contour>
      <point x="976" y="949" type="curve"/>
      <point x="976" y="1008" type="line"/>
      <point x="642" y="1008" type="line"/>
      <point x="642" y="949" type="line"/>
      <point x="724" y="939"/>
      <point x="746" y="924"/>
      <point x="730" y="896" type="curve" smooth="yes"/>
      <point x="544" y="542" type="line"/>
      <point x="469" y="696"/>
      <point x="370" y="873"/>
      <point x="291" y="978" type="curve" smooth="yes"/>
      <point x="273" y="1002"/>
      <point x="240" y="1016"/>
      <point x="211" y="1016" type="curve" smooth="yes"/>
      <point x="167" y="1016"/>
      <point x="62" y="1002"/>
      <point x="0" y="993" type="curve"/>
      <point x="3" y="934" type="line"/>
      <point x="92" y="934"/>
      <point x="109" y="920"/>
      <point x="128" y="896" type="curve"/>
      <point x="208" y="789"/>
      <point x="342" y="562"/>
      <point x="418" y="385" type="curve"/>
      <point x="584" y="385" type="line"/>
      <point x="858" y="896" type="line" smooth="yes"/>
      <point x="873" y="924"/>
      <point x="904" y="936"/>
    </contour>
    <contour>
      <point x="276" y="0" type="line"/>
      <point x="728" y="0" type="line"/>
      <point x="728" y="58" type="line"/>
      <point x="628" y="78"/>
      <point x="601" y="102"/>
      <point x="601" y="116" type="curve" smooth="yes"/>
      <point x="601" y="509" type="line"/>
      <point x="401" y="509" type="line"/>
      <point x="401" y="116" type="line" smooth="yes"/>
      <point x="401" y="100"/>
      <point x="372" y="78"/>
      <point x="276" y="58" type="curve"/>
    </contour>
  </outline>
</glyph>
<glyph name="Z" format="2">
  <advance width="892"/>
  <unicode hex="005A"/>
  <anchor x="446" y="-80" name="L"/>
  <anchor x="463" y="1096" name="U"/>
  <outline>
    <contour>
      <point x="834" y="282" type="curve"/>
      <point x="766" y="299" type="line"/>
      <point x="726" y="168"/>
      <point x="702" y="104"/>
      <point x="657" y="104" type="curve" smooth="yes"/>
      <point x="292" y="104" type="line"/>
      <point x="826" y="967" type="line"/>
      <point x="800" y="1008" type="line"/>
      <point x="266" y="1008" type="line" smooth="yes"/>
      <point x="203" y="1008"/>
      <point x="172" y="1008"/>
      <point x="114" y="1020" type="curve"/>
      <point x="84" y="732" type="line"/>
      <point x="154" y="716" type="line"/>
      <point x="177" y="827"/>
      <point x="232" y="904"/>
      <point x="266" y="904" type="curve" smooth="yes"/>
      <point x="580" y="904" type="line"/>
      <point x="41" y="42" type="line"/>
      <point x="70" y="0" type="line"/>
      <point x="825" y="0" type="line"/>
      <point x="826" y="62"/>
      <point x="831" y="213"/>
    </contour>
  </outline>
</glyph>
<glyph name="bracketleft" format="2">
  <advance width="552"/>
  <unicode hex="005B"/>
  <outline>
    <contour>
      <point x="532" y="-181" type="curve"/>
      <point x="498" y="-152" type="line"/>
      <point x="284" y="-152" type="line"/>
      <point x="284" y="1164" type="line"/>
      <point x="503" y="1164" type="line"/>
      <point x="509" y="1176"/>
      <point x="526" y="1226"/>
      <point x="531" y="1253" type="curve"/>
      <point x="498" y="1280" type="line"/>
      <point x="100" y="1280" type="line"/>
      <point x="100" y="-268" type="line"/>
      <point x="503" y="-268" type="line"/>
      <point x="511" y="-249"/>
      <point x="527" y="-202"/>
    </contour>
  </outline>
</glyph>
<glyph name="backslash" format="2">
  <advance width="768"/>
  <unicode hex="005C"/>
  <outline>
    <contour>
      <point x="702" y="-268" type="curve"/>
      <point x="736" y="-242" type="line"/>
      <point x="188" y="1234" type="line"/>
      <point x="158" y="1253"/>
      <point x="98" y="1272"/>
      <point x="67" y="1280" type="curve"/>
      <point x="32" y="1256" type="line"/>
      <point x="580" y="-221" type="line"/>
      <point x="600" y="-235"/>
      <point x="676" y="-260"/>
    </contour>
  </outline>
</glyph>
<glyph name="bracketright" format="2">
  <advance width="504"/>
  <unicode hex="005D"/>
  <outline>
    <contour>
      <point x="54" y="-268" type="line"/>
      <point x="452" y="-268" type="line"/>
      <point x="452" y="1280" type="line"/>
      <point x="48" y="1280" type="line"/>
      <point x="41" y="1261"/>
      <point x="24" y="1214"/>
      <point x="20" y="1192" type="curve"/>
      <point x="54" y="1164" type="line"/>
      <point x="268" y="1164" type="line"/>
      <point x="268" y="-152" type="line"/>
      <point x="48" y="-152" type="line"/>
      <point x="42" y="-165"/>
      <point x="26" y="-214"/>
      <point x="21" y="-240" type="curve"/>
    </contour>
  </outline>
</glyph>
<glyph name="asciicircum" format="2">
  <advance width="806"/>
  <unicode hex="005E"/>
  <anchor x="403" y="1352" name="U"/>
  <outline>
    <contour>
      <point x="725" y="508" type="curve"/>
      <point x="444" y="1240" type="line"/>
      <point x="414" y="1225"/>
      <point x="364" y="1194"/>
      <point x="337" y="1169" type="curve"/>
      <point x="80" y="473" type="line"/>
      <point x="98" y="452" type="line"/>
      <point x="120" y="462"/>
      <point x="162" y="486"/>
      <point x="184" y="508" type="curve"/>
      <point x="384" y="1052" type="line"/>
      <point x="611" y="473" type="line"/>
      <point x="640" y="452" type="line"/>
      <point x="676" y="468"/>
      <point x="699" y="483"/>
    </contour>
  </outline>
</glyph>
<glyph name="underscore" format="2">
  <advance width="648"/>
  <unicode hex="005F"/>
  <outline>
    <contour>
      <point x="680" y="-129" type="curve"/>
      <point x="654" y="-104" type="line"/>
      <point x="6" y="-104" type="line"/>
      <point x="-3" y="-125"/>
      <point x="-25" y="-171"/>
      <point x="-30" y="-194" type="curve"/>
      <point x="-4" y="-220" type="line"/>
      <point x="644" y="-220" type="line"/>
      <point x="652" y="-202"/>
      <point x="674" y="-152"/>
    </contour>
  </outline>
</glyph>
<glyph name="grave" format="2">
  <advance width="522"/>
  <unicode hex="0060"/>
  <anchor x="261" y="1128" name="U"/>
  <outline>
    <contour>
      <point x="361" y="868" type="curve"/>
      <point x="187" y="1209" type="line"/>
      <point x="160" y="1207"/>
      <point x="31" y="1183"/>
      <point x="10" y="1178" type="curve"/>
      <point x="-13" y="1133" type="line"/>
      <point x="292" y="831" type="line"/>
      <point x="310" y="837"/>
      <point x="348" y="856"/>
    </contour>
  </outline>
</glyph>
<glyph name="a" format="2">
  <advance width="818"/>
  <unicode hex="0061"/>
  <anchor x="334" y="0" name="H"/>
  <anchor x="393" y="-80" name="L"/>
  <anchor x="623" y="0" name="O"/>
  <anchor x="818" y="720" name="R"/>
  <anchor x="411" y="840" name="U"/>
  <outline>
    <contour>
      <point x="812" y="89" type="curve"/>
      <point x="794" y="149" type="line"/>
      <point x="752" y="132"/>
      <point x="737" y="128"/>
      <point x="722" y="128" type="curve" smooth="yes"/>
      <point x="703" y="128"/>
      <point x="690" y="145"/>
      <point x="690" y="190" type="curve" smooth="yes"/>
      <point x="690" y="575" type="line" smooth="yes"/>
      <point x="690" y="685"/>
      <point x="624" y="768"/>
      <point x="477" y="768" type="curve" smooth="yes"/>
      <point x="300" y="768"/>
      <point x="120" y="667"/>
      <point x="68" y="540" type="curve"/>
      <point x="85" y="497" type="line"/>
      <point x="112" y="491"/>
      <point x="296" y="541"/>
      <point x="293" y="561" type="curve" smooth="yes"/>
      <point x="287" y="625"/>
      <point x="343" y="663"/>
      <point x="394" y="664" type="curve" smooth="yes"/>
      <point x="474" y="664"/>
      <point x="498" y="615"/>
      <point x="498" y="549" type="curve" smooth="yes"/>
      <point x="498" y="131" type="line" smooth="yes"/>
      <point x="498" y="36"/>
      <point x="530" y="-24"/>
      <point x="573" y="-24" type="curve" smooth="yes"/>
      <point x="612" y="-24"/>
      <point x="722" y="27"/>
    </contour>
    <contour>
      <point x="506" y="378" type="curve"/>
      <point x="506" y="456" type="line"/>
      <point x="242" y="416"/>
      <point x="173" y="372"/>
      <point x="121" y="320" type="curve" smooth="yes"/>
      <point x="81" y="281"/>
      <point x="52" y="232"/>
      <point x="52" y="160" type="curve" smooth="yes"/>
      <point x="52" y="36"/>
      <point x="145" y="-24"/>
      <point x="234" y="-24" type="curve" smooth="yes"/>
      <point x="306" y="-24"/>
      <point x="412" y="9"/>
      <point x="512" y="117" type="curve"/>
      <point x="506" y="206" type="line"/>
      <point x="422" y="132"/>
      <point x="371" y="116"/>
      <point x="329" y="116" type="curve" smooth="yes"/>
      <point x="301" y="116"/>
      <point x="255" y="134"/>
      <point x="255" y="207" type="curve" smooth="yes"/>
      <point x="255" y="252"/>
      <point x="273" y="281"/>
      <point x="301" y="309" type="curve" smooth="yes"/>
      <point x="330" y="338"/>
      <point x="372" y="356"/>
    </contour>
  </outline>
</glyph>
<glyph name="b" format="2">
  <advance width="880"/>
  <unicode hex="0062"/>
  <anchor x="410" y="0" name="H"/>
  <anchor x="410" y="-80" name="L"/>
  <anchor x="885" y="720" name="R"/>
  <anchor x="454" y="1296" name="U"/>
  <outline>
    <contour>
      <point x="820" y="405" type="curve"/>
      <point x="820" y="627"/>
      <point x="721" y="768"/>
      <point x="563" y="768" type="curve" smooth="yes"/>
      <point x="502" y="768"/>
      <point x="398" y="733"/>
      <point x="292" y="641" type="curve"/>
      <point x="292" y="1206" type="line"/>
      <point x="280" y="1218"/>
      <point x="269" y="1228"/>
      <point x="256" y="1240" type="curve"/>
      <point x="177" y="1207"/>
      <point x="102" y="1192"/>
      <point x="2" y="1176" type="curve"/>
      <point x="2" y="1120" type="line"/>
      <point x="89" y="1109"/>
      <point x="100" y="1107"/>
      <point x="100" y="1012" type="curve" smooth="yes"/>
      <point x="100" y="76" type="line"/>
      <point x="215" y="18"/>
      <point x="340" y="-24"/>
      <point x="399" y="-24" type="curve" smooth="yes"/>
      <point x="605" y="-24"/>
      <point x="820" y="220"/>
    </contour>
    <contour>
      <point x="643" y="332" type="curve"/>
      <point x="643" y="209"/>
      <point x="589" y="110"/>
      <point x="477" y="110" type="curve" smooth="yes"/>
      <point x="446" y="110"/>
      <point x="376" y="128"/>
      <point x="292" y="174" type="curve"/>
      <point x="292" y="542" type="line"/>
      <point x="369" y="608"/>
      <point x="428" y="630"/>
      <point x="465" y="630" type="curve" smooth="yes"/>
      <point x="562" y="630"/>
      <point x="643" y="545"/>
    </contour>
  </outline>
</glyph>
<glyph name="c" format="2">
  <advance width="746"/>
  <unicode hex="0063"/>
  <anchor x="408" y="0" name="H"/>
  <anchor x="408" y="-80" name="L"/>
  <anchor x="756" y="720" name="R"/>
  <anchor x="408" y="840" name="U"/>
  <outline>
    <contour>
      <point x="714" y="152" type="curve"/>
      <point x="670" y="202" type="line"/>
      <point x="558" y="119"/>
      <point x="513" y="110"/>
      <point x="453" y="110" type="curve" smooth="yes"/>
      <point x="337" y="110"/>
      <point x="244" y="210"/>
      <point x="244" y="380" type="curve" smooth="yes"/>
      <point x="244" y="586"/>
      <point x="330" y="668"/>
      <point x="424" y="668" type="curve" smooth="yes"/>
      <point x="509" y="668"/>
      <point x="555" y="608"/>
      <point x="590" y="503" type="curve"/>
      <point x="644" y="495" type="line"/>
      <point x="664" y="525"/>
      <point x="712" y="678"/>
      <point x="708" y="704" type="curve"/>
      <point x="672" y="742"/>
      <point x="554" y="768"/>
      <point x="484" y="768" type="curve" smooth="yes"/>
      <point x="230" y="768"/>
      <point x="52" y="584"/>
      <point x="52" y="355" type="curve" smooth="yes"/>
      <point x="52" y="117"/>
      <point x="210" y="-24"/>
      <point x="384" y="-24" type="curve" smooth="yes"/>
      <point x="484" y="-24"/>
      <point x="574" y="-5"/>
    </contour>
  </outline>
</glyph>
<glyph name="d" format="2">
  <advance width="918"/>
  <unicode hex="0064"/>
  <anchor x="440" y="0" name="H"/>
  <anchor x="446" y="-80" name="L"/>
  <anchor x="918" y="720" name="R"/>
  <anchor x="277" y="840" name="U"/>
  <outline>
    <contour>
      <point x="912" y="91" type="curve"/>
      <point x="890" y="149" type="line"/>
      <point x="832" y="124"/>
      <point x="818" y="125"/>
      <point x="806" y="132" type="curve" smooth="yes"/>
      <point x="794" y="141"/>
      <point x="788" y="164"/>
      <point x="788" y="239" type="curve" smooth="yes"/>
      <point x="788" y="1210" type="line"/>
      <point x="757" y="1240" type="line"/>
      <point x="702" y="1222"/>
      <point x="603" y="1199"/>
      <point x="486" y="1188" type="curve"/>
      <point x="486" y="1132" type="line"/>
      <point x="592" y="1125"/>
      <point x="596" y="1112"/>
      <point x="596" y="995" type="curve" smooth="yes"/>
      <point x="596" y="241" type="line" smooth="yes"/>
      <point x="596" y="68"/>
      <point x="620" y="-24"/>
      <point x="675" y="-24" type="curve" smooth="yes"/>
      <point x="704" y="-24"/>
      <point x="814" y="25"/>
    </contour>
    <contour>
      <point x="655" y="172" type="curve"/>
      <point x="652" y="180"/>
      <point x="633" y="231"/>
      <point x="619" y="237" type="curve"/>
      <point x="544" y="165"/>
      <point x="491" y="128"/>
      <point x="425" y="128" type="curve" smooth="yes"/>
      <point x="337" y="128"/>
      <point x="244" y="229"/>
      <point x="244" y="398" type="curve" smooth="yes"/>
      <point x="244" y="583"/>
      <point x="322" y="662"/>
      <point x="428" y="662" type="curve" smooth="yes"/>
      <point x="502" y="662"/>
      <point x="562" y="622"/>
      <point x="601" y="555" type="curve"/>
      <point x="636" y="576"/>
      <point x="648" y="614"/>
      <point x="648" y="678" type="curve"/>
      <point x="565" y="755"/>
      <point x="504" y="768"/>
      <point x="440" y="768" type="curve" smooth="yes"/>
      <point x="211" y="768"/>
      <point x="52" y="569"/>
      <point x="52" y="355" type="curve" smooth="yes"/>
      <point x="52" y="117"/>
      <point x="202" y="-24"/>
      <point x="344" y="-24" type="curve" smooth="yes"/>
      <point x="461" y="-24"/>
      <point x="523" y="31"/>
    </contour>
  </outline>
</glyph>
<glyph name="e" format="2">
  <advance width="792"/>
  <unicode hex="0065"/>
  <anchor x="419" y="0" name="H"/>
  <anchor x="419" y="-80" name="L"/>
  <anchor x="446" y="0" name="O"/>
  <anchor x="816" y="720" name="R"/>
  <anchor x="428" y="840" name="U"/>
  <outline>
    <contour>
      <point x="740" y="439" type="curve"/>
      <point x="740" y="611"/>
      <point x="646" y="768"/>
      <point x="437" y="768" type="curve" smooth="yes"/>
      <point x="356" y="768"/>
      <point x="273" y="734"/>
      <point x="216" y="692" type="curve" smooth="yes"/>
      <point x="108" y="613"/>
      <point x="52" y="497"/>
      <point x="52" y="353" type="curve" smooth="yes"/>
      <point x="52" y="127"/>
      <point x="202" y="-24"/>
      <point x="384" y="-24" type="curve" smooth="yes"/>
      <point x="511" y="-24"/>
      <point x="587" y="6"/>
      <point x="736" y="156" type="curve"/>
      <point x="731" y="164"/>
      <point x="708" y="199"/>
      <point x="694" y="206" type="curve"/>
      <point x="569" y="120"/>
      <point x="518" y="110"/>
      <point x="450" y="110" type="curve" smooth="yes"/>
      <point x="321" y="110"/>
      <point x="250" y="229"/>
      <point x="250" y="391" type="curve" smooth="yes"/>
      <point x="250" y="561"/>
      <point x="292" y="672"/>
      <point x="408" y="672" type="curve" smooth="yes"/>
      <point x="518" y="672"/>
      <point x="549" y="556"/>
      <point x="549" y="492" type="curve" smooth="yes"/>
      <point x="549" y="470"/>
      <point x="543" y="464"/>
      <point x="519" y="464" type="curve" smooth="yes"/>
      <point x="147" y="464" type="line"/>
      <point x="145" y="374" type="line"/>
      <point x="628" y="374" type="line"/>
      <point x="663" y="387"/>
      <point x="721" y="418"/>
    </contour>
  </outline>
</glyph>
<glyph name="f" format="2">
  <advance width="556"/>
  <unicode hex="0066"/>
  <anchor x="250" y="0" name="H"/>
  <anchor x="260" y="-80" name="L"/>
  <anchor x="384" y="1296" name="U"/>
  <outline>
    <contour>
      <point x="712" y="1163" type="curve"/>
      <point x="712" y="1181"/>
      <point x="615" y="1240"/>
      <point x="520" y="1240" type="curve" smooth="yes"/>
      <point x="455" y="1240"/>
      <point x="361" y="1206"/>
      <point x="283" y="1130" type="curve" smooth="yes"/>
      <point x="197" y="1049"/>
      <point x="148" y="944"/>
      <point x="148" y="768" type="curve" smooth="yes"/>
      <point x="148" y="744" type="line"/>
      <point x="92" y="744" type="line"/>
      <point x="30" y="672" type="line"/>
      <point x="52" y="644" type="line"/>
      <point x="148" y="644" type="line"/>
      <point x="148" y="105" type="line" smooth="yes"/>
      <point x="148" y="92"/>
      <point x="114" y="71"/>
      <point x="42" y="58" type="curve"/>
      <point x="42" y="0" type="line"/>
      <point x="501" y="0" type="line"/>
      <point x="501" y="58" type="line"/>
      <point x="376" y="81"/>
      <point x="340" y="92"/>
      <point x="340" y="105" type="curve" smooth="yes"/>
      <point x="340" y="644" type="line"/>
      <point x="425" y="644"/>
      <point x="465" y="628"/>
      <point x="490" y="616" type="curve"/>
      <point x="509" y="631"/>
      <point x="548" y="679"/>
      <point x="568" y="714" type="curve"/>
      <point x="539" y="744" type="line"/>
      <point x="340" y="744" type="line"/>
      <point x="340" y="812" type="line" smooth="yes"/>
      <point x="340" y="1058"/>
      <point x="389" y="1116"/>
      <point x="444" y="1116" type="curve" smooth="yes"/>
      <point x="478" y="1116"/>
      <point x="530" y="1089"/>
      <point x="580" y="1026" type="curve"/>
      <point x="612" y="1041"/>
      <point x="712" y="1127"/>
    </contour>
  </outline>
</glyph>
<glyph name="g" format="2">
  <advance width="847"/>
  <unicode hex="0067"/>
  <anchor x="419" y="-376" name="H"/>
  <anchor x="419" y="-480" name="L"/>
  <anchor x="847" y="720" name="R"/>
  <anchor x="419" y="840" name="U"/>
  <outline>
    <contour>
      <point x="830" y="-84" type="curve" smooth="yes"/>
      <point x="830" y="21"/>
      <point x="762" y="80"/>
      <point x="511" y="112" type="curve"/>
      <point x="345" y="133"/>
      <point x="330" y="149"/>
      <point x="330" y="168" type="curve" smooth="yes"/>
      <point x="330" y="177"/>
      <point x="343" y="216"/>
      <point x="433" y="280" type="curve"/>
      <point x="289" y="266" type="line"/>
      <point x="165" y="186"/>
      <point x="121" y="123"/>
      <point x="121" y="98" type="curve" smooth="yes"/>
      <point x="121" y="47"/>
      <point x="234" y="-6"/>
      <point x="444" y="-33" type="curve" smooth="yes"/>
      <point x="614" y="-54"/>
      <point x="644" y="-96"/>
      <point x="644" y="-137" type="curve" smooth="yes"/>
      <point x="644" y="-212"/>
      <point x="585" y="-280"/>
      <point x="459" y="-280" type="curve" smooth="yes"/>
      <point x="314" y="-280"/>
      <point x="204" y="-217"/>
      <point x="204" y="-146" type="curve" smooth="yes"/>
      <point x="204" y="-110"/>
      <point x="213" y="-65"/>
      <point x="361" y="24" type="curve"/>
      <point x="356" y="45"/>
      <point x="267" y="48"/>
      <point x="267" y="48" type="curve"/>
      <point x="58" y="-58"/>
      <point x="12" y="-118"/>
      <point x="12" y="-177" type="curve" smooth="yes"/>
      <point x="12" y="-332"/>
      <point x="236" y="-394"/>
      <point x="403" y="-394" type="curve" smooth="yes"/>
      <point x="609" y="-394"/>
      <point x="830" y="-235"/>
    </contour>
    <contour>
      <point x="845" y="738" type="curve"/>
      <point x="823" y="768" type="line"/>
      <point x="773" y="749"/>
      <point x="672" y="714"/>
      <point x="562" y="706" type="curve"/>
      <point x="593" y="633" type="line"/>
      <point x="684" y="630"/>
      <point x="742" y="636"/>
      <point x="799" y="646" type="curve"/>
      <point x="818" y="672"/>
      <point x="838" y="714"/>
    </contour>
    <contour>
      <point x="718" y="512" type="curve" smooth="yes"/>
      <point x="718" y="651"/>
      <point x="592" y="768"/>
      <point x="418" y="768" type="curve" smooth="yes"/>
      <point x="232" y="768"/>
      <point x="68" y="638"/>
      <point x="68" y="481" type="curve" smooth="yes"/>
      <point x="68" y="332"/>
      <point x="205" y="236"/>
      <point x="386" y="236" type="curve" smooth="yes"/>
      <point x="563" y="236"/>
      <point x="718" y="349"/>
    </contour>
    <contour>
      <point x="534" y="480" type="curve" smooth="yes"/>
      <point x="534" y="379"/>
      <point x="479" y="332"/>
      <point x="417" y="332" type="curve" smooth="yes"/>
      <point x="302" y="332"/>
      <point x="252" y="419"/>
      <point x="252" y="527" type="curve" smooth="yes"/>
      <point x="252" y="626"/>
      <point x="316" y="676"/>
      <point x="368" y="676" type="curve" smooth="yes"/>
      <point x="476" y="676"/>
      <point x="534" y="587"/>
    </contour>
  </outline>
</glyph>
<glyph name="h" format="2">
  <advance width="952"/>
  <unicode hex="0068"/>
  <anchor x="243" y="0" name="H"/>
  <anchor x="485" y="-80" name="L"/>
  <anchor x="485" y="1296" name="U"/>
  <outline>
    <contour>
      <point x="530" y="0" type="line"/>
      <point x="934" y="0" type="line"/>
      <point x="934" y="58" type="line"/>
      <point x="850" y="80"/>
      <point x="828" y="92"/>
      <point x="828" y="107" type="curve" smooth="yes"/>
      <point x="828" y="562" type="line" smooth="yes"/>
      <point x="828" y="712"/>
      <point x="743" y="768"/>
      <point x="651" y="768" type="curve" smooth="yes"/>
      <point x="568" y="768"/>
      <point x="458" y="725"/>
      <point x="336" y="625" type="curve"/>
      <point x="336" y="1206" type="line"/>
      <point x="300" y="1240" type="line"/>
      <point x="221" y="1208"/>
      <point x="158" y="1192"/>
      <point x="38" y="1176" type="curve"/>
      <point x="38" y="1120" type="line"/>
      <point x="141" y="1108"/>
      <point x="144" y="1103"/>
      <point x="144" y="1014" type="curve" smooth="yes"/>
      <point x="144" y="107" type="line" smooth="yes"/>
      <point x="144" y="89"/>
      <point x="108" y="76"/>
      <point x="38" y="58" type="curve"/>
      <point x="38" y="0" type="line"/>
      <point x="442" y="0" type="line"/>
      <point x="442" y="58" type="line"/>
      <point x="373" y="72"/>
      <point x="336" y="91"/>
      <point x="336" y="107" type="curve" smooth="yes"/>
      <point x="336" y="511" type="line"/>
      <point x="419" y="582"/>
      <point x="484" y="622"/>
      <point x="545" y="622" type="curve" smooth="yes"/>
      <point x="610" y="622"/>
      <point x="636" y="588"/>
      <point x="636" y="458" type="curve" smooth="yes"/>
      <point x="636" y="107" type="line" smooth="yes"/>
      <point x="636" y="92"/>
      <point x="606" y="78"/>
      <point x="530" y="58" type="curve"/>
    </contour>
  </outline>
</glyph>
<glyph name="i" format="2">
  <advance width="492"/>
  <unicode hex="0069"/>
  <anchor x="252" y="0" name="H"/>
  <anchor x="252" y="-80" name="L"/>
  <anchor x="298" y="0" name="O"/>
  <anchor x="492" y="720" name="R"/>
  <anchor x="252" y="840" name="U"/>
  <outline>
    <contour>
      <point x="378" y="1008" type="curve" smooth="yes"/>
      <point x="378" y="1070"/>
      <point x="325" y="1096"/>
      <point x="268" y="1096" type="curve" smooth="yes"/>
      <point x="193" y="1096"/>
      <point x="134" y="1048"/>
      <point x="134" y="976" type="curve" smooth="yes"/>
      <point x="134" y="915"/>
      <point x="184" y="887"/>
      <point x="243" y="887" type="curve" smooth="yes"/>
      <point x="320" y="887"/>
      <point x="378" y="936"/>
    </contour>
    <contour>
      <point x="50" y="0" type="line"/>
      <point x="454" y="0" type="line"/>
      <point x="454" y="58" type="line"/>
      <point x="376" y="72"/>
      <point x="348" y="94"/>
      <point x="348" y="107" type="curve" smooth="yes"/>
      <point x="348" y="768" type="line"/>
      <point x="296" y="768" type="line"/>
      <point x="224" y="741"/>
      <point x="141" y="722"/>
      <point x="50" y="710" type="curve"/>
      <point x="50" y="654" type="line"/>
      <point x="155" y="644"/>
      <point x="156" y="627"/>
      <point x="156" y="518" type="curve" smooth="yes"/>
      <point x="156" y="107" type="line" smooth="yes"/>
      <point x="156" y="92"/>
      <point x="122" y="72"/>
      <point x="50" y="58" type="curve"/>
    </contour>
  </outline>
</glyph>
<glyph name="j" format="2">
  <advance width="472"/>
  <unicode hex="006A"/>
  <anchor x="248" y="-480" name="L"/>
  <anchor x="248" y="840" name="U"/>
  <outline>
    <contour>
      <point x="377" y="1008" type="curve" smooth="yes"/>
      <point x="377" y="1070"/>
      <point x="324" y="1096"/>
      <point x="267" y="1096" type="curve" smooth="yes"/>
      <point x="192" y="1096"/>
      <point x="133" y="1048"/>
      <point x="133" y="976" type="curve" smooth="yes"/>
      <point x="133" y="915"/>
      <point x="183" y="887"/>
      <point x="243" y="887" type="curve" smooth="yes"/>
      <point x="319" y="887"/>
      <point x="377" y="936"/>
    </contour>
    <contour>
      <point x="344" y="85" type="curve" smooth="yes"/>
      <point x="344" y="768" type="line"/>
      <point x="290" y="768" type="line"/>
      <point x="205" y="740"/>
      <point x="158" y="726"/>
      <point x="46" y="710" type="curve"/>
      <point x="46" y="654" type="line"/>
      <point x="151" y="642"/>
      <point x="152" y="627"/>
      <point x="152" y="518" type="curve" smooth="yes"/>
      <point x="152" y="34" type="line" smooth="yes"/>
      <point x="152" y="-206"/>
      <point x="103" y="-256"/>
      <point x="48" y="-256" type="curve" smooth="yes"/>
      <point x="8" y="-256"/>
      <point x="-57" y="-231"/>
      <point x="-92" y="-190" type="curve"/>
      <point x="-123" y="-204"/>
      <point x="-230" y="-290"/>
      <point x="-230" y="-320" type="curve" smooth="yes"/>
      <point x="-230" y="-344"/>
      <point x="-126" y="-394"/>
      <point x="-43" y="-394" type="curve" smooth="yes"/>
      <point x="15" y="-394"/>
      <point x="104" y="-352"/>
      <point x="162" y="-308" type="curve" smooth="yes"/>
      <point x="247" y="-242"/>
      <point x="344" y="-160"/>
    </contour>
  </outline>
</glyph>
<glyph name="k" format="2">
  <advance width="898"/>
  <unicode hex="006B"/>
  <anchor x="230" y="0" name="H"/>
  <anchor x="468" y="-80" name="L"/>
  <anchor x="898" y="720" name="R"/>
  <anchor x="468" y="1296" name="U"/>
  <outline>
    <contour>
      <point x="876" y="685" type="curve"/>
      <point x="876" y="744" type="line"/>
      <point x="519" y="744" type="line"/>
      <point x="519" y="685" type="line"/>
      <point x="575" y="685"/>
      <point x="611" y="678"/>
      <point x="541" y="615" type="curve" smooth="yes"/>
      <point x="324" y="420" type="line"/>
      <point x="427" y="396" type="line"/>
      <point x="736" y="630" type="line" smooth="yes"/>
      <point x="782" y="664"/>
      <point x="829" y="680"/>
    </contour>
    <contour>
      <point x="33" y="0" type="line"/>
      <point x="419" y="0" type="line"/>
      <point x="419" y="58" type="line"/>
      <point x="339" y="83"/>
      <point x="331" y="91"/>
      <point x="331" y="107" type="curve" smooth="yes"/>
      <point x="331" y="1206" type="line"/>
      <point x="295" y="1240" type="line"/>
      <point x="223" y="1207"/>
      <point x="136" y="1191"/>
      <point x="33" y="1176" type="curve"/>
      <point x="33" y="1120" type="line"/>
      <point x="125" y="1109"/>
      <point x="139" y="1107"/>
      <point x="139" y="1012" type="curve" smooth="yes"/>
      <point x="139" y="107" type="line" smooth="yes"/>
      <point x="139" y="88"/>
      <point x="103" y="76"/>
      <point x="33" y="58" type="curve"/>
    </contour>
    <contour>
      <point x="904" y="26" type="curve"/>
      <point x="899" y="84" type="line"/>
      <point x="837" y="80"/>
      <point x="812" y="84"/>
      <point x="782" y="118" type="curve" smooth="yes"/>
      <point x="462" y="481" type="line"/>
      <point x="325" y="420" type="line"/>
      <point x="617" y="34" type="line" smooth="yes"/>
      <point x="640" y="3"/>
      <point x="670" y="-8"/>
      <point x="715" y="-8" type="curve" smooth="yes"/>
      <point x="737" y="-8"/>
      <point x="841" y="12"/>
    </contour>
  </outline>
</glyph>
<glyph name="l" format="2">
  <advance width="492"/>
  <unicode hex="006C"/>
  <anchor x="252" y="0" name="H"/>
  <anchor x="252" y="-80" name="L"/>
  <anchor x="476" y="720" name="R"/>
  <anchor x="252" y="1352" name="U"/>
  <outline>
    <contour>
      <point x="42" y="0" type="line"/>
      <point x="462" y="0" type="line"/>
      <point x="462" y="58" type="line"/>
      <point x="374" y="72"/>
      <point x="348" y="91"/>
      <point x="348" y="107" type="curve" smooth="yes"/>
      <point x="348" y="1206" type="line"/>
      <point x="313" y="1240" type="line"/>
      <point x="229" y="1205"/>
      <point x="156" y="1191"/>
      <point x="50" y="1176" type="curve"/>
      <point x="50" y="1120" type="line"/>
      <point x="139" y="1109"/>
      <point x="156" y="1107"/>
      <point x="156" y="1012" type="curve" smooth="yes"/>
      <point x="156" y="107" type="line" smooth="yes"/>
      <point x="156" y="89"/>
      <point x="134" y="74"/>
      <point x="42" y="58" type="curve"/>
    </contour>
  </outline>
</glyph>
<glyph name="m" format="2">
  <advance width="1382"/>
  <unicode hex="006D"/>
  <anchor x="1156" y="0" name="H"/>
  <anchor x="701" y="-80" name="L"/>
  <anchor x="701" y="840" name="U"/>
  <outline>
    <contour>
      <point x="966" y="0" type="line"/>
      <point x="1364" y="0" type="line"/>
      <point x="1364" y="58" type="line"/>
      <point x="1280" y="80"/>
      <point x="1252" y="92"/>
      <point x="1252" y="107" type="curve" smooth="yes"/>
      <point x="1252" y="562" type="line" smooth="yes"/>
      <point x="1252" y="712"/>
      <point x="1164" y="768"/>
      <point x="1062" y="768" type="curve" smooth="yes"/>
      <point x="984" y="768"/>
      <point x="901" y="738"/>
      <point x="782" y="635" type="curve"/>
      <point x="779" y="646" type="line" smooth="yes"/>
      <point x="767" y="714"/>
      <point x="712" y="768"/>
      <point x="610" y="768" type="curve" smooth="yes"/>
      <point x="533" y="768"/>
      <point x="452" y="740"/>
      <point x="332" y="634" type="curve"/>
      <point x="324" y="734" type="line"/>
      <point x="290" y="768" type="line"/>
      <point x="214" y="740"/>
      <point x="148" y="722"/>
      <point x="38" y="710" type="curve"/>
      <point x="38" y="654" type="line"/>
      <point x="141" y="642"/>
      <point x="144" y="635"/>
      <point x="144" y="550" type="curve" smooth="yes"/>
      <point x="144" y="107" type="line" smooth="yes"/>
      <point x="144" y="89"/>
      <point x="108" y="76"/>
      <point x="38" y="58" type="curve"/>
      <point x="38" y="0" type="line"/>
      <point x="436" y="0" type="line"/>
      <point x="436" y="58" type="line"/>
      <point x="367" y="72"/>
      <point x="336" y="91"/>
      <point x="336" y="107" type="curve" smooth="yes"/>
      <point x="336" y="530" type="line"/>
      <point x="414" y="598"/>
      <point x="475" y="630"/>
      <point x="523" y="630" type="curve" smooth="yes"/>
      <point x="583" y="630"/>
      <point x="602" y="613"/>
      <point x="602" y="482" type="curve" smooth="yes"/>
      <point x="602" y="107" type="line" smooth="yes"/>
      <point x="602" y="92"/>
      <point x="585" y="78"/>
      <point x="508" y="58" type="curve"/>
      <point x="508" y="0" type="line"/>
      <point x="894" y="0" type="line"/>
      <point x="894" y="58" type="line"/>
      <point x="810" y="80"/>
      <point x="794" y="92"/>
      <point x="794" y="107" type="curve" smooth="yes"/>
      <point x="794" y="530" type="line"/>
      <point x="862" y="597"/>
      <point x="929" y="630"/>
      <point x="975" y="630" type="curve" smooth="yes"/>
      <point x="1033" y="630"/>
      <point x="1060" y="613"/>
      <point x="1060" y="482" type="curve" smooth="yes"/>
      <point x="1060" y="107" type="line" smooth="yes"/>
      <point x="1060" y="92"/>
      <point x="1043" y="78"/>
      <point x="966" y="58" type="curve"/>
    </contour>
  </outline>
</glyph>
<glyph name="n" format="2">
  <advance width="952"/>
  <unicode hex="006E"/>
  <anchor x="732" y="0" name="H"/>
  <anchor x="485" y="-80" name="L"/>
  <anchor x="485" y="840" name="U"/>
  <outline>
    <contour>
      <point x="530" y="0" type="line"/>
      <point x="934" y="0" type="line"/>
      <point x="934" y="58" type="line"/>
      <point x="850" y="80"/>
      <point x="828" y="92"/>
      <point x="828" y="107" type="curve" smooth="yes"/>
      <point x="828" y="562" type="line" smooth="yes"/>
      <point x="828" y="712"/>
      <point x="743" y="768"/>
      <point x="651" y="768" type="curve" smooth="yes"/>
      <point x="568" y="768"/>
      <point x="456" y="725"/>
      <point x="332" y="618" type="curve"/>
      <point x="324" y="734" type="line"/>
      <point x="290" y="768" type="line"/>
      <point x="212" y="738"/>
      <point x="140" y="721"/>
      <point x="38" y="710" type="curve"/>
      <point x="38" y="654" type="line"/>
      <point x="142" y="642"/>
      <point x="144" y="634"/>
      <point x="144" y="550" type="curve" smooth="yes"/>
      <point x="144" y="107" type="line" smooth="yes"/>
      <point x="144" y="89"/>
      <point x="108" y="76"/>
      <point x="38" y="58" type="curve"/>
      <point x="38" y="0" type="line"/>
      <point x="442" y="0" type="line"/>
      <point x="442" y="58" type="line"/>
      <point x="373" y="72"/>
      <point x="336" y="91"/>
      <point x="336" y="107" type="curve" smooth="yes"/>
      <point x="336" y="511" type="line"/>
      <point x="439" y="598"/>
      <point x="501" y="622"/>
      <point x="551" y="622" type="curve" smooth="yes"/>
      <point x="614" y="622"/>
      <point x="636" y="588"/>
      <point x="636" y="470" type="curve" smooth="yes"/>
      <point x="636" y="107" type="line" smooth="yes"/>
      <point x="636" y="92"/>
      <point x="606" y="78"/>
      <point x="530" y="58" type="curve"/>
    </contour>
  </outline>
</glyph>
<glyph name="o" format="2">
  <advance width="860"/>
  <unicode hex="006F"/>
  <anchor x="447" y="0" name="H"/>
  <anchor x="447" y="-80" name="L"/>
  <anchor x="481" y="0" name="O"/>
  <anchor x="862" y="720" name="R"/>
  <anchor x="447" y="840" name="U"/>
  <outline>
    <contour>
      <point x="808" y="388" type="curve" smooth="yes"/>
      <point x="808" y="606"/>
      <point x="664" y="768"/>
      <point x="446" y="768" type="curve" smooth="yes"/>
      <point x="216" y="768"/>
      <point x="52" y="567"/>
      <point x="52" y="355" type="curve" smooth="yes"/>
      <point x="52" y="137"/>
      <point x="195" y="-24"/>
      <point x="414" y="-24" type="curve" smooth="yes"/>
      <point x="627" y="-24"/>
      <point x="808" y="175"/>
    </contour>
    <contour>
      <point x="606" y="352" type="curve" smooth="yes"/>
      <point x="606" y="175"/>
      <point x="564" y="76"/>
      <point x="437" y="76" type="curve" smooth="yes"/>
      <point x="338" y="76"/>
      <point x="254" y="209"/>
      <point x="254" y="378" type="curve" smooth="yes"/>
      <point x="254" y="542"/>
      <point x="290" y="668"/>
      <point x="422" y="668" type="curve" smooth="yes"/>
      <point x="532" y="668"/>
      <point x="606" y="520"/>
    </contour>
  </outline>
</glyph>
<glyph name="p" format="2">
  <advance width="916"/>
  <unicode hex="0070"/>
  <anchor x="241" y="-384" name="H"/>
  <anchor x="450" y="-480" name="L"/>
  <anchor x="923" y="720" name="R"/>
  <anchor x="450" y="840" name="U"/>
  <outline>
    <contour>
      <point x="552" y="-24" type="curve" smooth="yes"/>
      <point x="684" y="-24"/>
      <point x="864" y="190"/>
      <point x="864" y="399" type="curve" smooth="yes"/>
      <point x="864" y="651"/>
      <point x="739" y="768"/>
      <point x="594" y="768" type="curve" smooth="yes"/>
      <point x="533" y="768"/>
      <point x="449" y="739"/>
      <point x="331" y="635" type="curve"/>
      <point x="324" y="734" type="line"/>
      <point x="290" y="768" type="line"/>
      <point x="209" y="738"/>
      <point x="159" y="726"/>
      <point x="38" y="710" type="curve"/>
      <point x="38" y="654" type="line"/>
      <point x="139" y="649"/>
      <point x="144" y="630"/>
      <point x="144" y="550" type="curve" smooth="yes"/>
      <point x="144" y="-276" type="line" smooth="yes"/>
      <point x="144" y="-294"/>
      <point x="108" y="-308"/>
      <point x="38" y="-325" type="curve"/>
      <point x="38" y="-384" type="line"/>
      <point x="471" y="-384" type="line"/>
      <point x="471" y="-325" type="line"/>
      <point x="371" y="-310"/>
      <point x="336" y="-292"/>
      <point x="336" y="-276" type="curve" smooth="yes"/>
      <point x="336" y="66" type="line"/>
      <point x="429" y="0"/>
      <point x="490" y="-24"/>
    </contour>
    <contour>
      <point x="498" y="632" type="curve" smooth="yes"/>
      <point x="589" y="632"/>
      <point x="684" y="545"/>
      <point x="684" y="340" type="curve" smooth="yes"/>
      <point x="684" y="192"/>
      <point x="627" y="110"/>
      <point x="544" y="110" type="curve" smooth="yes"/>
      <point x="493" y="110"/>
      <point x="449" y="116"/>
      <point x="336" y="182" type="curve"/>
      <point x="336" y="542" type="line"/>
      <point x="429" y="619"/>
      <point x="460" y="632"/>
    </contour>
  </outline>
</glyph>
<glyph name="q" format="2">
  <advance width="898"/>
  <unicode hex="0071"/>
  <anchor x="469" y="-480" name="L"/>
  <anchor x="903" y="720" name="R"/>
  <anchor x="469" y="840" name="U"/>
  <outline>
    <contour>
      <point x="454" y="-384" type="line"/>
      <point x="887" y="-384" type="line"/>
      <point x="887" y="-325" type="line"/>
      <point x="805" y="-310"/>
      <point x="782" y="-292"/>
      <point x="782" y="-276" type="curve" smooth="yes"/>
      <point x="782" y="555" type="line" smooth="yes"/>
      <point x="782" y="652"/>
      <point x="806" y="738"/>
      <point x="806" y="738" type="curve"/>
      <point x="776" y="768" type="line"/>
      <point x="749" y="741"/>
      <point x="624" y="671"/>
      <point x="590" y="660" type="curve"/>
      <point x="590" y="-276" type="line" smooth="yes"/>
      <point x="590" y="-294"/>
      <point x="554" y="-310"/>
      <point x="454" y="-325" type="curve"/>
    </contour>
    <contour>
      <point x="649" y="172" type="curve"/>
      <point x="644" y="180"/>
      <point x="627" y="231"/>
      <point x="613" y="237" type="curve"/>
      <point x="538" y="165"/>
      <point x="485" y="128"/>
      <point x="419" y="128" type="curve" smooth="yes"/>
      <point x="331" y="128"/>
      <point x="244" y="222"/>
      <point x="244" y="404" type="curve" smooth="yes"/>
      <point x="244" y="586"/>
      <point x="320" y="662"/>
      <point x="422" y="662" type="curve" smooth="yes"/>
      <point x="484" y="662"/>
      <point x="562" y="616"/>
      <point x="595" y="549" type="curve"/>
      <point x="630" y="570"/>
      <point x="642" y="608"/>
      <point x="642" y="672" type="curve"/>
      <point x="559" y="755"/>
      <point x="504" y="768"/>
      <point x="440" y="768" type="curve" smooth="yes"/>
      <point x="376" y="768"/>
      <point x="293" y="737"/>
      <point x="233" y="698" type="curve" smooth="yes"/>
      <point x="158" y="648"/>
      <point x="52" y="542"/>
      <point x="52" y="355" type="curve" smooth="yes"/>
      <point x="52" y="117"/>
      <point x="202" y="-24"/>
      <point x="326" y="-24" type="curve" smooth="yes"/>
      <point x="449" y="-24"/>
      <point x="517" y="31"/>
    </contour>
  </outline>
</glyph>
<glyph name="r" format="2">
  <advance width="726"/>
  <unicode hex="0072"/>
  <anchor x="235" y="0" name="H"/>
  <anchor x="235" y="-80" name="L"/>
  <anchor x="402" y="840" name="U"/>
  <outline>
    <contour>
      <point x="700" y="732" type="curve" smooth="yes"/>
      <point x="661" y="754"/>
      <point x="614" y="768"/>
      <point x="573" y="768" type="curve" smooth="yes"/>
      <point x="481" y="768"/>
      <point x="392" y="700"/>
      <point x="334" y="618" type="curve"/>
      <point x="324" y="734" type="line"/>
      <point x="290" y="768" type="line"/>
      <point x="201" y="738"/>
      <point x="154" y="727"/>
      <point x="38" y="710" type="curve"/>
      <point x="38" y="654" type="line"/>
      <point x="97" y="650"/>
      <point x="111" y="646"/>
      <point x="125" y="632" type="curve" smooth="yes"/>
      <point x="135" y="622"/>
      <point x="144" y="601"/>
      <point x="144" y="530" type="curve" smooth="yes"/>
      <point x="144" y="107" type="line" smooth="yes"/>
      <point x="144" y="89"/>
      <point x="108" y="74"/>
      <point x="38" y="58" type="curve"/>
      <point x="38" y="0" type="line"/>
      <point x="477" y="0" type="line"/>
      <point x="477" y="58" type="line"/>
      <point x="377" y="72"/>
      <point x="336" y="91"/>
      <point x="336" y="107" type="curve" smooth="yes"/>
      <point x="336" y="456" type="line"/>
      <point x="399" y="596"/>
      <point x="459" y="620"/>
      <point x="500" y="620" type="curve" smooth="yes"/>
      <point x="552" y="620"/>
      <point x="582" y="549"/>
      <point x="589" y="462" type="curve"/>
      <point x="647" y="462" type="line"/>
      <point x="674" y="520"/>
      <point x="720" y="720"/>
    </contour>
  </outline>
</glyph>
<glyph name="s" format="2">
  <advance width="686"/>
  <unicode hex="0073"/>
  <anchor x="331" y="0" name="H"/>
  <anchor x="342" y="-80" name="L"/>
  <anchor x="342" y="840" name="U"/>
  <outline>
    <contour>
      <point x="625" y="226" type="curve" smooth="yes"/>
      <point x="625" y="345"/>
      <point x="522" y="399"/>
      <point x="429" y="447" type="curve" smooth="yes"/>
      <point x="316" y="505"/>
      <point x="246" y="537"/>
      <point x="246" y="606" type="curve" smooth="yes"/>
      <point x="246" y="650"/>
      <point x="283" y="684"/>
      <point x="347" y="684" type="curve" smooth="yes"/>
      <point x="417" y="684"/>
      <point x="469" y="632"/>
      <point x="495" y="538" type="curve"/>
      <point x="550" y="532" type="line"/>
      <point x="576" y="567"/>
      <point x="610" y="695"/>
      <point x="596" y="706" type="curve" smooth="yes"/>
      <point x="547" y="744"/>
      <point x="447" y="768"/>
      <point x="356" y="768" type="curve" smooth="yes"/>
      <point x="211" y="768"/>
      <point x="70" y="686"/>
      <point x="70" y="554" type="curve" smooth="yes"/>
      <point x="70" y="452"/>
      <point x="168" y="393"/>
      <point x="257" y="347" type="curve" smooth="yes"/>
      <point x="354" y="296"/>
      <point x="449" y="249"/>
      <point x="449" y="163" type="curve" smooth="yes"/>
      <point x="449" y="103"/>
      <point x="410" y="74"/>
      <point x="336" y="74" type="curve" smooth="yes"/>
      <point x="243" y="74"/>
      <point x="165" y="146"/>
      <point x="142" y="259" type="curve"/>
      <point x="77" y="268" type="line"/>
      <point x="56" y="190"/>
      <point x="58" y="42"/>
      <point x="72" y="34" type="curve" smooth="yes"/>
      <point x="143" y="-6"/>
      <point x="239" y="-24"/>
      <point x="308" y="-24" type="curve" smooth="yes"/>
      <point x="400" y="-24"/>
      <point x="625" y="0"/>
    </contour>
  </outline>
</glyph>
<glyph name="t" format="2">
  <advance width="606"/>
  <unicode hex="0074"/>
  <anchor x="296" y="0" name="H"/>
  <anchor x="296" y="-80" name="L"/>
  <anchor x="442" y="720" name="R"/>
  <anchor x="296" y="1056" name="U"/>
  <outline>
    <contour>
      <point x="588" y="123" type="curve"/>
      <point x="553" y="182" type="line"/>
      <point x="464" y="134"/>
      <point x="421" y="122"/>
      <point x="383" y="122" type="curve" smooth="yes"/>
      <point x="343" y="122"/>
      <point x="316" y="159"/>
      <point x="316" y="269" type="curve" smooth="yes"/>
      <point x="316" y="644" type="line"/>
      <point x="369" y="644" type="line" smooth="yes"/>
      <point x="426" y="644"/>
      <point x="482" y="628"/>
      <point x="508" y="616" type="curve"/>
      <point x="529" y="631"/>
      <point x="568" y="679"/>
      <point x="588" y="714" type="curve"/>
      <point x="559" y="744" type="line"/>
      <point x="316" y="744" type="line"/>
      <point x="316" y="1004" type="line"/>
      <point x="285" y="1030" type="line"/>
      <point x="124" y="910" type="line"/>
      <point x="124" y="744" type="line"/>
      <point x="66" y="744" type="line"/>
      <point x="4" y="672" type="line"/>
      <point x="26" y="644" type="line"/>
      <point x="124" y="644" type="line"/>
      <point x="124" y="194" type="line" smooth="yes"/>
      <point x="124" y="46"/>
      <point x="201" y="-24"/>
      <point x="292" y="-24" type="curve" smooth="yes"/>
      <point x="348" y="-24"/>
      <point x="448" y="22"/>
    </contour>
  </outline>
</glyph>
<glyph name="u" format="2">
  <advance width="922"/>
  <unicode hex="0075"/>
  <anchor x="428" y="0" name="H"/>
  <anchor x="461" y="-80" name="L"/>
  <anchor x="703" y="0" name="O"/>
  <anchor x="981" y="720" name="R"/>
  <anchor x="461" y="840" name="U"/>
  <outline>
    <contour>
      <point x="915" y="89" type="curve"/>
      <point x="895" y="149" type="line"/>
      <point x="840" y="126"/>
      <point x="822" y="121"/>
      <point x="810" y="131" type="curve" smooth="yes"/>
      <point x="796" y="142"/>
      <point x="792" y="161"/>
      <point x="792" y="227" type="curve" smooth="yes"/>
      <point x="792" y="730" type="line"/>
      <point x="762" y="768" type="line"/>
      <point x="685" y="748"/>
      <point x="600" y="730"/>
      <point x="494" y="721" type="curve"/>
      <point x="494" y="665" type="line"/>
      <point x="592" y="660"/>
      <point x="600" y="646"/>
      <point x="600" y="550" type="curve" smooth="yes"/>
      <point x="600" y="209" type="line"/>
      <point x="512" y="133"/>
      <point x="453" y="114"/>
      <point x="408" y="114" type="curve" smooth="yes"/>
      <point x="349" y="114"/>
      <point x="316" y="141"/>
      <point x="316" y="273" type="curve" smooth="yes"/>
      <point x="316" y="730" type="line"/>
      <point x="287" y="768" type="line"/>
      <point x="199" y="740"/>
      <point x="133" y="730"/>
      <point x="26" y="721" type="curve"/>
      <point x="26" y="665" type="line"/>
      <point x="122" y="655"/>
      <point x="124" y="652"/>
      <point x="124" y="550" type="curve" smooth="yes"/>
      <point x="124" y="223" type="line" smooth="yes"/>
      <point x="124" y="23"/>
      <point x="227" y="-24"/>
      <point x="326" y="-24" type="curve" smooth="yes"/>
      <point x="394" y="-24"/>
      <point x="467" y="-6"/>
      <point x="600" y="108" type="curve"/>
      <point x="612" y="0"/>
      <point x="648" y="-24"/>
      <point x="686" y="-24" type="curve" smooth="yes"/>
      <point x="712" y="-24"/>
      <point x="836" y="38"/>
    </contour>
  </outline>
</glyph>
<glyph name="v" format="2">
  <advance width="832"/>
  <unicode hex="0076"/>
  <anchor x="408" y="0" name="H"/>
  <anchor x="424" y="-80" name="L"/>
  <anchor x="378" y="0" name="O"/>
  <anchor x="441" y="840" name="U"/>
  <outline>
    <contour>
      <point x="821" y="685" type="curve"/>
      <point x="821" y="744" type="line"/>
      <point x="562" y="744" type="line"/>
      <point x="562" y="685" type="line"/>
      <point x="635" y="673"/>
      <point x="641" y="663"/>
      <point x="628" y="631" type="curve" smooth="yes"/>
      <point x="466" y="228" type="line"/>
      <point x="294" y="631" type="line" smooth="yes"/>
      <point x="279" y="665"/>
      <point x="290" y="675"/>
      <point x="372" y="685" type="curve"/>
      <point x="372" y="744" type="line"/>
      <point x="10" y="744" type="line"/>
      <point x="10" y="685" type="line"/>
      <point x="62" y="673"/>
      <point x="80" y="659"/>
      <point x="92" y="631" type="curve" smooth="yes"/>
      <point x="374" y="-24" type="line"/>
      <point x="426" y="-11"/>
      <point x="494" y="17"/>
      <point x="512" y="65" type="curve" smooth="yes"/>
      <point x="739" y="631" type="line" smooth="yes"/>
      <point x="751" y="661"/>
      <point x="758" y="670"/>
    </contour>
  </outline>
</glyph>
<glyph name="w" format="2">
  <advance width="1174"/>
  <unicode hex="0077"/>
  <anchor x="593" y="-80" name="L"/>
  <anchor x="609" y="840" name="U"/>
  <outline>
    <contour>
      <point x="1164" y="685" type="curve"/>
      <point x="1164" y="744" type="line"/>
      <point x="904" y="744" type="line"/>
      <point x="904" y="685" type="line"/>
      <point x="977" y="673"/>
      <point x="981" y="660"/>
      <point x="973" y="636" type="curve" smooth="yes"/>
      <point x="858" y="258" type="line"/>
      <point x="657" y="744" type="line"/>
      <point x="644" y="744"/>
      <point x="600" y="744"/>
      <point x="600" y="744" type="curve"/>
      <point x="564" y="496" type="line"/>
      <point x="791" y="-24" type="line"/>
      <point x="818" y="-17"/>
      <point x="893" y="0"/>
      <point x="907" y="47" type="curve" smooth="yes"/>
      <point x="1084" y="636" type="line" smooth="yes"/>
      <point x="1091" y="660"/>
      <point x="1104" y="670"/>
    </contour>
    <contour>
      <point x="425" y="47" type="curve" smooth="yes"/>
      <point x="656" y="612" type="line"/>
      <point x="652" y="744" type="line"/>
      <point x="652" y="744"/>
      <point x="610" y="744"/>
      <point x="596" y="744" type="curve"/>
      <point x="404" y="258" type="line"/>
      <point x="284" y="636" type="line" smooth="yes"/>
      <point x="277" y="656"/>
      <point x="280" y="675"/>
      <point x="372" y="685" type="curve"/>
      <point x="372" y="744" type="line"/>
      <point x="10" y="744" type="line"/>
      <point x="10" y="685" type="line"/>
      <point x="62" y="673"/>
      <point x="91" y="655"/>
      <point x="97" y="636" type="curve"/>
      <point x="312" y="-24" type="line"/>
      <point x="340" y="-17"/>
      <point x="409" y="-1"/>
    </contour>
  </outline>
</glyph>
<glyph name="x" format="2">
  <advance width="854"/>
  <unicode hex="0078"/>
  <anchor x="661" y="0" name="H"/>
  <anchor x="426" y="-80" name="L"/>
  <anchor x="426" y="840" name="U"/>
  <outline>
    <contour>
      <point x="820" y="685" type="curve"/>
      <point x="820" y="744" type="line"/>
      <point x="515" y="744" type="line"/>
      <point x="515" y="685" type="line"/>
      <point x="580" y="679"/>
      <point x="595" y="669"/>
      <point x="556" y="618" type="curve" smooth="yes"/>
      <point x="394" y="407" type="line"/>
      <point x="466" y="345" type="line"/>
      <point x="675" y="616" type="line" smooth="yes"/>
      <point x="705" y="655"/>
      <point x="733" y="679"/>
    </contour>
    <contour>
      <point x="449" y="0" type="line"/>
      <point x="842" y="0" type="line"/>
      <point x="842" y="58" type="line"/>
      <point x="772" y="68"/>
      <point x="744" y="98"/>
      <point x="720" y="130" type="curve"/>
      <point x="370" y="618" type="line" smooth="yes"/>
      <point x="333" y="669"/>
      <point x="349" y="679"/>
      <point x="414" y="685" type="curve"/>
      <point x="414" y="744" type="line"/>
      <point x="18" y="744" type="line"/>
      <point x="18" y="685" type="line"/>
      <point x="99" y="679"/>
      <point x="120" y="655"/>
      <point x="148" y="616" type="curve" smooth="yes"/>
      <point x="502" y="125" type="line" smooth="yes"/>
      <point x="544" y="68"/>
      <point x="502" y="63"/>
      <point x="449" y="58" type="curve"/>
    </contour>
    <contour>
      <point x="258" y="125" type="curve" smooth="yes"/>
      <point x="430" y="346" type="line"/>
      <point x="359" y="410" type="line"/>
      <point x="142" y="130" type="line" smooth="yes"/>
      <point x="117" y="98"/>
      <point x="89" y="71"/>
      <point x="10" y="58" type="curve"/>
      <point x="10" y="0" type="line"/>
      <point x="319" y="0" type="line"/>
      <point x="319" y="58" type="line"/>
      <point x="268" y="63"/>
      <point x="215" y="70"/>
    </contour>
  </outline>
</glyph>
<glyph name="y" format="2">
  <advance width="832"/>
  <unicode hex="0079"/>
  <anchor x="652" y="-80" name="L"/>
  <anchor x="838" y="720" name="R"/>
  <anchor x="434" y="840" name="U"/>
  <outline>
    <contour>
      <point x="821" y="685" type="curve"/>
      <point x="821" y="744" type="line"/>
      <point x="560" y="744" type="line"/>
      <point x="560" y="685" type="line"/>
      <point x="627" y="674"/>
      <point x="634" y="663"/>
      <point x="622" y="631" type="curve" smooth="yes"/>
      <point x="465" y="229" type="line"/>
      <point x="300" y="631" type="line" smooth="yes"/>
      <point x="286" y="665"/>
      <point x="296" y="675"/>
      <point x="372" y="685" type="curve"/>
      <point x="372" y="744" type="line"/>
      <point x="10" y="744" type="line"/>
      <point x="10" y="685" type="line"/>
      <point x="62" y="673"/>
      <point x="87" y="660"/>
      <point x="98" y="631" type="curve" smooth="yes"/>
      <point x="367" y="-18" type="line"/>
      <point x="344" y="-73" type="line" smooth="yes"/>
      <point x="305" y="-165"/>
      <point x="257" y="-208"/>
      <point x="218" y="-222" type="curve" smooth="yes"/>
      <point x="178" y="-235"/>
      <point x="120" y="-230"/>
      <point x="68" y="-195" type="curve"/>
      <point x="33" y="-216"/>
      <point x="-49" y="-320"/>
      <point x="-49" y="-339" type="curve" smooth="yes"/>
      <point x="-49" y="-359"/>
      <point x="32" y="-394"/>
      <point x="113" y="-394" type="curve" smooth="yes"/>
      <point x="250" y="-394"/>
      <point x="375" y="-295"/>
      <point x="466" y="-59" type="curve" smooth="yes"/>
      <point x="733" y="631" type="line" smooth="yes"/>
      <point x="745" y="662"/>
      <point x="757" y="670"/>
    </contour>
  </outline>
</glyph>
<glyph name="z" format="2">
  <advance width="759"/>
  <unicode hex="007A"/>
  <anchor x="382" y="0" name="H"/>
  <anchor x="382" y="-80" name="L"/>
  <anchor x="406" y="840" name="U"/>
  <outline>
    <contour>
      <point x="705" y="264" type="curve"/>
      <point x="649" y="278" type="line"/>
      <point x="619" y="163"/>
      <point x="604" y="96"/>
      <point x="565" y="96" type="curve" smooth="yes"/>
      <point x="291" y="96" type="line"/>
      <point x="715" y="709" type="line"/>
      <point x="698" y="744" type="line"/>
      <point x="250" y="744" type="line" smooth="yes"/>
      <point x="181" y="744"/>
      <point x="156" y="744"/>
      <point x="109" y="756" type="curve"/>
      <point x="89" y="495" type="line"/>
      <point x="146" y="480" type="line"/>
      <point x="174" y="596"/>
      <point x="217" y="648"/>
      <point x="264" y="648" type="curve" smooth="yes"/>
      <point x="471" y="648" type="line"/>
      <point x="48" y="36" type="line"/>
      <point x="69" y="0" type="line"/>
      <point x="695" y="0" type="line"/>
      <point x="702" y="37"/>
      <point x="705" y="197"/>
    </contour>
  </outline>
</glyph>
<glyph name="braceleft" format="2">
  <advance width="573"/>
  <unicode hex="007B"/>
  <outline>
    <contour>
      <point x="554" y="1218" type="curve"/>
      <point x="521" y="1280" type="line"/>
      <point x="344" y="1208"/>
      <point x="208" y="1112"/>
      <point x="208" y="968" type="curve" smooth="yes"/>
      <point x="208" y="848"/>
      <point x="240" y="808"/>
      <point x="240" y="690" type="curve" smooth="yes"/>
      <point x="240" y="610"/>
      <point x="187" y="551"/>
      <point x="68" y="518" type="curve"/>
      <point x="82" y="452" type="line"/>
      <point x="113" y="456"/>
      <point x="104" y="456"/>
      <point x="134" y="456" type="curve" smooth="yes"/>
      <point x="201" y="456"/>
      <point x="240" y="424"/>
      <point x="240" y="337" type="curve" smooth="yes"/>
      <point x="240" y="216"/>
      <point x="208" y="159"/>
      <point x="208" y="45" type="curve" smooth="yes"/>
      <point x="208" y="-108"/>
      <point x="319" y="-180"/>
      <point x="515" y="-252" type="curve"/>
      <point x="546" y="-179" type="line"/>
      <point x="433" y="-116"/>
      <point x="412" y="-65"/>
      <point x="412" y="22" type="curve" smooth="yes"/>
      <point x="412" y="116"/>
      <point x="445" y="192"/>
      <point x="445" y="308" type="curve" smooth="yes"/>
      <point x="445" y="425"/>
      <point x="396" y="503"/>
      <point x="289" y="522" type="curve"/>
      <point x="379" y="561"/>
      <point x="445" y="649"/>
      <point x="445" y="738" type="curve" smooth="yes"/>
      <point x="445" y="850"/>
      <point x="412" y="901"/>
      <point x="412" y="1013" type="curve" smooth="yes"/>
      <point x="412" y="1094"/>
      <point x="470" y="1166"/>
    </contour>
  </outline>
</glyph>
<glyph name="bar" format="2">
  <advance width="400"/>
  <unicode hex="007C"/>
  <outline>
    <contour>
      <point x="268" y="-295" type="curve"/>
      <point x="268" y="1312" type="line"/>
      <point x="233" y="1336" type="line"/>
      <point x="202" y="1328"/>
      <point x="161" y="1308"/>
      <point x="132" y="1290" type="curve"/>
      <point x="132" y="-318" type="line"/>
      <point x="166" y="-343" type="line"/>
      <point x="192" y="-334"/>
      <point x="248" y="-312"/>
    </contour>
  </outline>
</glyph>
<glyph name="braceright" format="2">
  <advance width="573"/>
  <unicode hex="007D"/>
  <outline>
    <contour>
      <point x="505" y="508" type="curve"/>
      <point x="492" y="575" type="line"/>
      <point x="460" y="570"/>
      <point x="469" y="570"/>
      <point x="440" y="570" type="curve" smooth="yes"/>
      <point x="372" y="570"/>
      <point x="333" y="603"/>
      <point x="333" y="690" type="curve" smooth="yes"/>
      <point x="333" y="810"/>
      <point x="365" y="868"/>
      <point x="365" y="982" type="curve" smooth="yes"/>
      <point x="365" y="1136"/>
      <point x="255" y="1207"/>
      <point x="58" y="1279" type="curve"/>
      <point x="27" y="1206" type="line"/>
      <point x="140" y="1144"/>
      <point x="161" y="1093"/>
      <point x="161" y="1005" type="curve" smooth="yes"/>
      <point x="161" y="911"/>
      <point x="128" y="835"/>
      <point x="128" y="719" type="curve" smooth="yes"/>
      <point x="128" y="601"/>
      <point x="177" y="524"/>
      <point x="284" y="504" type="curve"/>
      <point x="194" y="465"/>
      <point x="128" y="378"/>
      <point x="128" y="289" type="curve" smooth="yes"/>
      <point x="128" y="177"/>
      <point x="161" y="126"/>
      <point x="161" y="14" type="curve" smooth="yes"/>
      <point x="161" y="-66"/>
      <point x="103" y="-138"/>
      <point x="19" y="-190" type="curve"/>
      <point x="52" y="-252" type="line"/>
      <point x="229" y="-180"/>
      <point x="365" y="-84"/>
      <point x="365" y="59" type="curve" smooth="yes"/>
      <point x="365" y="179"/>
      <point x="333" y="219"/>
      <point x="333" y="337" type="curve" smooth="yes"/>
      <point x="333" y="417"/>
      <point x="386" y="476"/>
    </contour>
  </outline>
</glyph>
<glyph name="asciitilde" format="2">
  <advance width="799"/>
  <unicode hex="007E"/>
  <outline>
    <contour>
      <point x="772" y="625" type="curve"/>
      <point x="717" y="651" type="line"/>
      <point x="673" y="564"/>
      <point x="615" y="523"/>
      <point x="570" y="523" type="curve" smooth="yes"/>
      <point x="485" y="523"/>
      <point x="393" y="651"/>
      <point x="281" y="651" type="curve" smooth="yes"/>
      <point x="168" y="651"/>
      <point x="72" y="500"/>
      <point x="27" y="395" type="curve"/>
      <point x="81" y="368" type="line"/>
      <point x="126" y="456"/>
      <point x="180" y="497"/>
      <point x="226" y="497" type="curve" smooth="yes"/>
      <point x="318" y="497"/>
      <point x="428" y="369"/>
      <point x="517" y="369" type="curve" smooth="yes"/>
      <point x="631" y="369"/>
      <point x="728" y="520"/>
    </contour>
  </outline>
</glyph>
<glyph name="exclamdown" format="2">
  <advance width="506"/>
  <unicode hex="00A1"/>
  <outline>
    <contour>
      <point x="379" y="660" type="curve"/>
      <point x="379" y="736"/>
      <point x="326" y="768"/>
      <point x="263" y="768" type="curve" smooth="yes"/>
      <point x="183" y="768"/>
      <point x="117" y="717"/>
      <point x="117" y="632" type="curve" smooth="yes"/>
      <point x="117" y="556"/>
      <point x="173" y="523"/>
      <point x="232" y="523" type="curve" smooth="yes"/>
      <point x="310" y="523"/>
      <point x="379" y="576"/>
    </contour>
    <contour>
      <point x="363" y="-359" type="curve"/>
      <point x="301" y="421" type="line"/>
      <point x="278" y="437" type="line"/>
      <point x="251" y="429"/>
      <point x="215" y="421"/>
      <point x="195" y="406" type="curve"/>
      <point x="132" y="-423" type="line"/>
      <point x="172" y="-449" type="line"/>
      <point x="214" y="-434"/>
      <point x="316" y="-385"/>
    </contour>
  </outline>
</glyph>
<glyph name="cent" format="2">
  <advance width="828"/>
  <unicode hex="00A2"/>
  <outline>
    <contour>
      <point x="494" y="5" type="curve"/>
      <point x="494" y="972" type="line"/>
      <point x="467" y="996" type="line"/>
      <point x="434" y="988"/>
      <point x="427" y="977"/>
      <point x="398" y="959" type="curve"/>
      <point x="398" y="-6" type="line"/>
      <point x="424" y="-32" type="line"/>
      <point x="449" y="-24"/>
      <point x="474" y="-11"/>
    </contour>
    <contour>
      <point x="757" y="286" type="curve"/>
      <point x="708" y="342" type="line"/>
      <point x="600" y="239"/>
      <point x="548" y="221"/>
      <point x="478" y="221" type="curve" smooth="yes"/>
      <point x="350" y="221"/>
      <point x="246" y="309"/>
      <point x="246" y="492" type="curve" smooth="yes"/>
      <point x="246" y="691"/>
      <point x="351" y="758"/>
      <point x="449" y="758" type="curve" smooth="yes"/>
      <point x="559" y="758"/>
      <point x="616" y="680"/>
      <point x="636" y="642" type="curve"/>
      <point x="688" y="628" type="line"/>
      <point x="707" y="655"/>
      <point x="756" y="775"/>
      <point x="752" y="799" type="curve"/>
      <point x="716" y="839"/>
      <point x="591" y="863"/>
      <point x="521" y="863" type="curve" smooth="yes"/>
      <point x="255" y="863"/>
      <point x="71" y="696"/>
      <point x="71" y="468" type="curve" smooth="yes"/>
      <point x="71" y="231"/>
      <point x="267" y="103"/>
      <point x="421" y="103" type="curve" smooth="yes"/>
      <point x="535" y="103"/>
      <point x="618" y="129"/>
    </contour>
  </outline>
</glyph>
<glyph name="sterling" format="2">
  <advance width="828"/>
  <unicode hex="00A3"/>
  <outline>
    <contour>
      <point x="760" y="932" type="curve"/>
      <point x="661" y="982"/>
      <point x="577" y="988"/>
      <point x="521" y="988" type="curve" smooth="yes"/>
      <point x="267" y="988"/>
      <point x="121" y="770"/>
      <point x="145" y="462" type="curve" smooth="yes"/>
      <point x="169" y="158"/>
      <point x="141" y="117"/>
      <point x="39" y="33" type="curve"/>
      <point x="69" y="-24" type="line"/>
      <point x="226" y="76"/>
      <point x="608" y="-79"/>
      <point x="751" y="0" type="curve"/>
      <point x="759" y="31"/>
      <point x="782" y="153"/>
      <point x="790" y="245" type="curve"/>
      <point x="732" y="265" type="line"/>
      <point x="686" y="140"/>
      <point x="649" y="113"/>
      <point x="551" y="110" type="curve" smooth="yes"/>
      <point x="432" y="107"/>
      <point x="424" y="122"/>
      <point x="278" y="110" type="curve"/>
      <point x="346" y="206"/>
      <point x="377" y="322"/>
      <point x="360" y="476" type="curve" smooth="yes"/>
      <point x="318" y="868"/>
      <point x="431" y="890"/>
      <point x="498" y="890" type="curve" smooth="yes"/>
      <point x="594" y="890"/>
      <point x="652" y="810"/>
      <point x="668" y="678" type="curve"/>
      <point x="729" y="678" type="line"/>
      <point x="742" y="718"/>
      <point x="759" y="877"/>
    </contour>
    <contour>
      <point x="576" y="416" type="line"/>
      <point x="608" y="489" type="line"/>
      <point x="582" y="513" type="line"/>
      <point x="62" y="513" type="line"/>
      <point x="56" y="496"/>
      <point x="38" y="458"/>
      <point x="33" y="442" type="curve"/>
      <point x="56" y="416" type="line"/>
    </contour>
  </outline>
</glyph>
<glyph name="currency" format="2">
  <advance width="828"/>
  <unicode hex="00A4"/>
  <outline>
    <contour>
      <point x="292" y="605" type="curve"/>
      <point x="327" y="639"/>
      <point x="371" y="656"/>
      <point x="415" y="656" type="curve" smooth="yes"/>
      <point x="460" y="656"/>
      <point x="502" y="639"/>
      <point x="537" y="605" type="curve" smooth="yes"/>
      <point x="571" y="571"/>
      <point x="589" y="526"/>
      <point x="589" y="481" type="curve" smooth="yes"/>
      <point x="589" y="437"/>
      <point x="571" y="392"/>
      <point x="538" y="358" type="curve" smooth="yes"/>
      <point x="504" y="323"/>
      <point x="460" y="307"/>
      <point x="415" y="307" type="curve" smooth="yes"/>
      <point x="371" y="307"/>
      <point x="327" y="323"/>
      <point x="291" y="359" type="curve" smooth="yes"/>
      <point x="257" y="392"/>
      <point x="240" y="436"/>
      <point x="240" y="480" type="curve" smooth="yes"/>
      <point x="240" y="525"/>
      <point x="258" y="571"/>
    </contour>
    <contour>
      <point x="223" y="675" type="curve"/>
      <point x="168" y="621"/>
      <point x="142" y="550"/>
      <point x="142" y="479" type="curve" smooth="yes"/>
      <point x="142" y="410"/>
      <point x="168" y="341"/>
      <point x="220" y="288" type="curve" smooth="yes"/>
      <point x="275" y="234"/>
      <point x="345" y="208"/>
      <point x="415" y="208" type="curve" smooth="yes"/>
      <point x="486" y="208"/>
      <point x="556" y="234"/>
      <point x="608" y="287" type="curve" smooth="yes"/>
      <point x="661" y="340"/>
      <point x="688" y="410"/>
      <point x="688" y="479" type="curve" smooth="yes"/>
      <point x="688" y="550"/>
      <point x="660" y="622"/>
      <point x="606" y="675" type="curve" smooth="yes"/>
      <point x="553" y="729"/>
      <point x="485" y="756"/>
      <point x="415" y="756" type="curve" smooth="yes"/>
      <point x="346" y="756"/>
      <point x="277" y="729"/>
    </contour>
    <contour>
      <point x="301" y="299" type="line"/>
      <point x="269" y="368" type="line"/>
      <point x="233" y="366" type="line"/>
      <point x="79" y="212" type="line"/>
      <point x="88" y="190"/>
      <point x="101" y="166"/>
      <point x="111" y="148" type="curve"/>
      <point x="145" y="145" type="line"/>
    </contour>
    <contour>
      <point x="227" y="602" type="line"/>
      <point x="295" y="634" type="line"/>
      <point x="293" y="670" type="line"/>
      <point x="147" y="816" type="line"/>
      <point x="125" y="807"/>
      <point x="101" y="795"/>
      <point x="82" y="784" type="curve"/>
      <point x="80" y="749" type="line"/>
    </contour>
    <contour>
      <point x="681" y="146" type="line"/>
      <point x="749" y="177" type="line"/>
      <point x="748" y="213" type="line"/>
      <point x="600" y="361" type="line"/>
      <point x="580" y="351"/>
      <point x="554" y="339"/>
      <point x="536" y="328" type="curve"/>
      <point x="534" y="293" type="line"/>
    </contour>
    <contour>
      <point x="747" y="748" type="line"/>
      <point x="716" y="816" type="line"/>
      <point x="681" y="815" type="line"/>
      <point x="525" y="660" type="line"/>
      <point x="535" y="639"/>
      <point x="548" y="614"/>
      <point x="558" y="596" type="curve"/>
      <point x="593" y="593" type="line"/>
    </contour>
  </outline>
</glyph>
<glyph name="yen" format="2">
  <advance width="828"/>
  <unicode hex="00A5"/>
  <outline>
    <contour>
      <point x="182" y="0" type="line"/>
      <point x="634" y="0" type="line"/>
      <point x="634" y="58" type="line"/>
      <point x="534" y="78"/>
      <point x="508" y="102"/>
      <point x="508" y="116" type="curve" smooth="yes"/>
      <point x="508" y="310" type="line"/>
      <point x="712" y="310" type="line"/>
      <point x="741" y="388" type="line"/>
      <point x="721" y="406" type="line"/>
      <point x="508" y="406" type="line"/>
      <point x="508" y="421" type="line"/>
      <point x="734" y="852" type="line" smooth="yes"/>
      <point x="750" y="879"/>
      <point x="780" y="891"/>
      <point x="853" y="904" type="curve"/>
      <point x="853" y="963" type="line"/>
      <point x="518" y="963" type="line"/>
      <point x="518" y="904" type="line"/>
      <point x="601" y="894"/>
      <point x="623" y="880"/>
      <point x="607" y="852" type="curve" smooth="yes"/>
      <point x="453" y="559" type="line"/>
      <point x="379" y="712"/>
      <point x="311" y="829"/>
      <point x="232" y="934" type="curve" smooth="yes"/>
      <point x="214" y="957"/>
      <point x="181" y="971"/>
      <point x="152" y="971" type="curve" smooth="yes"/>
      <point x="108" y="971"/>
      <point x="-2" y="957"/>
      <point x="-65" y="948" type="curve"/>
      <point x="-61" y="890" type="line"/>
      <point x="27" y="890"/>
      <point x="44" y="876"/>
      <point x="63" y="852" type="curve" smooth="yes"/>
      <point x="137" y="754"/>
      <point x="233" y="587"/>
      <point x="308" y="423" type="curve"/>
      <point x="308" y="406" type="line"/>
      <point x="86" y="406" type="line"/>
      <point x="80" y="389"/>
      <point x="65" y="345"/>
      <point x="60" y="329" type="curve"/>
      <point x="77" y="310" type="line"/>
      <point x="308" y="310" type="line"/>
      <point x="308" y="116" type="line" smooth="yes"/>
      <point x="308" y="100"/>
      <point x="279" y="78"/>
      <point x="182" y="58" type="curve"/>
    </contour>
  </outline>
</glyph>
<glyph name="brokenbar" format="2">
  <advance width="400"/>
  <unicode hex="00A6"/>
  <outline>
    <contour>
      <point x="271" y="613" type="curve"/>
      <point x="271" y="1312" type="line"/>
      <point x="236" y="1336" type="line"/>
      <point x="203" y="1328"/>
      <point x="159" y="1308"/>
      <point x="128" y="1290" type="curve"/>
      <point x="128" y="590" type="line"/>
      <point x="164" y="566" type="line"/>
      <point x="190" y="574"/>
      <point x="250" y="596"/>
    </contour>
    <contour>
      <point x="271" y="-296" type="curve"/>
      <point x="271" y="394" type="line"/>
      <point x="236" y="420" type="line"/>
      <point x="203" y="409"/>
      <point x="159" y="390"/>
      <point x="128" y="372" type="curve"/>
      <point x="128" y="-319" type="line"/>
      <point x="164" y="-343" type="line"/>
      <point x="190" y="-334"/>
      <point x="250" y="-312"/>
    </contour>
  </outline>
</glyph>
<glyph name="section" format="2">
  <advance width="819"/>
  <unicode hex="00A7"/>
  <outline>
    <contour>
      <point x="371" y="-24" type="curve" smooth="yes"/>
      <point x="463" y="-24"/>
      <point x="688" y="-4"/>
      <point x="688" y="222" type="curve" smooth="yes"/>
      <point x="688" y="341"/>
      <point x="561" y="400"/>
      <point x="468" y="447" type="curve"/>
      <point x="322" y="528"/>
      <point x="254" y="568"/>
      <point x="254" y="662" type="curve" smooth="yes"/>
      <point x="254" y="723"/>
      <point x="313" y="786"/>
      <point x="376" y="791" type="curve"/>
      <point x="308" y="866" type="line"/>
      <point x="189" y="844"/>
      <point x="83" y="731"/>
      <point x="83" y="623" type="curve" smooth="yes"/>
      <point x="83" y="476"/>
      <point x="199" y="394"/>
      <point x="301" y="341" type="curve" smooth="yes"/>
      <point x="399" y="289"/>
      <point x="512" y="245"/>
      <point x="512" y="159" type="curve" smooth="yes"/>
      <point x="512" y="96"/>
      <point x="475" y="72"/>
      <point x="399" y="72" type="curve" smooth="yes"/>
      <point x="306" y="72"/>
      <point x="227" y="148"/>
      <point x="205" y="261" type="curve"/>
      <point x="140" y="270" type="line"/>
      <point x="119" y="192"/>
      <point x="120" y="42"/>
      <point x="135" y="36" type="curve"/>
      <point x="206" y="-2"/>
      <point x="302" y="-24"/>
    </contour>
    <contour>
      <point x="554" y="275" type="line"/>
      <point x="638" y="296"/>
      <point x="736" y="393"/>
      <point x="736" y="535" type="curve" smooth="yes"/>
      <point x="736" y="697"/>
      <point x="615" y="769"/>
      <point x="510" y="825" type="curve" smooth="yes"/>
      <point x="390" y="889"/>
      <point x="309" y="921"/>
      <point x="309" y="992" type="curve" smooth="yes"/>
      <point x="309" y="1039"/>
      <point x="345" y="1068"/>
      <point x="410" y="1068" type="curve" smooth="yes"/>
      <point x="480" y="1068"/>
      <point x="531" y="1014"/>
      <point x="558" y="920" type="curve"/>
      <point x="613" y="914" type="line"/>
      <point x="639" y="949"/>
      <point x="672" y="1077"/>
      <point x="659" y="1088" type="curve"/>
      <point x="610" y="1126"/>
      <point x="510" y="1152"/>
      <point x="419" y="1152" type="curve" smooth="yes"/>
      <point x="274" y="1152"/>
      <point x="133" y="1074"/>
      <point x="133" y="942" type="curve" smooth="yes"/>
      <point x="133" y="838"/>
      <point x="251" y="769"/>
      <point x="343" y="719" type="curve" smooth="yes"/>
      <point x="497" y="636"/>
      <point x="565" y="589"/>
      <point x="565" y="483" type="curve" smooth="yes"/>
      <point x="565" y="417"/>
      <point x="511" y="357"/>
      <point x="452" y="353" type="curve"/>
    </contour>
  </outline>
</glyph>
<glyph name="dieresis" format="2">
  <advance width="640"/>
  <unicode hex="00A8"/>
  <anchor x="321" y="1128" name="U"/>
  <outline>
    <contour>
      <point x="262" y="1014" type="curve"/>
      <point x="262" y="1078"/>
      <point x="226" y="1111"/>
      <point x="167" y="1111" type="curve" smooth="yes"/>
      <point x="101" y="1111"/>
      <point x="42" y="1048"/>
      <point x="42" y="970" type="curve" smooth="yes"/>
      <point x="42" y="906"/>
      <point x="75" y="872"/>
      <point x="137" y="872" type="curve" smooth="yes"/>
      <point x="205" y="872"/>
      <point x="262" y="936"/>
    </contour>
    <contour>
      <point x="600" y="1014" type="curve"/>
      <point x="600" y="1078"/>
      <point x="564" y="1111"/>
      <point x="505" y="1111" type="curve" smooth="yes"/>
      <point x="439" y="1111"/>
      <point x="380" y="1048"/>
      <point x="380" y="970" type="curve" smooth="yes"/>
      <point x="380" y="906"/>
      <point x="413" y="872"/>
      <point x="475" y="872" type="curve" smooth="yes"/>
      <point x="543" y="872"/>
      <point x="600" y="936"/>
    </contour>
  </outline>
</glyph>
<glyph name="copyright" format="2">
  <advance width="1196"/>
  <unicode hex="00A9"/>
  <outline>
    <contour>
      <point x="597" y="-24" type="curve" smooth="yes"/>
      <point x="904" y="-24"/>
      <point x="1128" y="225"/>
      <point x="1128" y="532" type="curve" smooth="yes"/>
      <point x="1128" y="839"/>
      <point x="904" y="1087"/>
      <point x="597" y="1087" type="curve" smooth="yes"/>
      <point x="290" y="1087"/>
      <point x="68" y="839"/>
      <point x="68" y="532" type="curve" smooth="yes"/>
      <point x="68" y="225"/>
      <point x="290" y="-24"/>
    </contour>
    <contour>
      <point x="580" y="186" type="curve" smooth="yes"/>
      <point x="663" y="186"/>
      <point x="741" y="208"/>
      <point x="854" y="329" type="curve"/>
      <point x="818" y="371" type="line"/>
      <point x="728" y="306"/>
      <point x="691" y="297"/>
      <point x="642" y="297" type="curve" smooth="yes"/>
      <point x="548" y="297"/>
      <point x="448" y="387"/>
      <point x="448" y="535" type="curve" smooth="yes"/>
      <point x="448" y="715"/>
      <point x="524" y="790"/>
      <point x="613" y="790" type="curve" smooth="yes"/>
      <point x="689" y="790"/>
      <point x="721" y="722"/>
      <point x="742" y="650" type="curve"/>
      <point x="786" y="644" type="line"/>
      <point x="804" y="666"/>
      <point x="848" y="795"/>
      <point x="843" y="813" type="curve"/>
      <point x="811" y="844"/>
      <point x="729" y="872"/>
      <point x="658" y="872" type="curve" smooth="yes"/>
      <point x="446" y="872"/>
      <point x="288" y="711"/>
      <point x="288" y="511" type="curve" smooth="yes"/>
      <point x="288" y="310"/>
      <point x="431" y="186"/>
    </contour>
    <contour>
      <point x="597" y="72" type="curve" smooth="yes"/>
      <point x="345" y="72"/>
      <point x="163" y="278"/>
      <point x="163" y="532" type="curve" smooth="yes"/>
      <point x="163" y="784"/>
      <point x="345" y="990"/>
      <point x="597" y="990" type="curve" smooth="yes"/>
      <point x="852" y="990"/>
      <point x="1033" y="784"/>
      <point x="1033" y="532" type="curve" smooth="yes"/>
      <point x="1033" y="278"/>
      <point x="852" y="72"/>
    </contour>
  </outline>
</glyph>
<glyph name="ordfeminine" format="2">
  <advance width="451"/>
  <unicode hex="00AA"/>
  <outline>
    <contour>
      <point x="440" y="640" type="curve"/>
      <point x="430" y="672" type="line"/>
      <point x="400" y="660"/>
      <point x="390" y="658"/>
      <point x="385" y="661" type="curve" smooth="yes"/>
      <point x="378" y="668"/>
      <point x="374" y="680"/>
      <point x="374" y="709" type="curve" smooth="yes"/>
      <point x="374" y="866" type="line" smooth="yes"/>
      <point x="374" y="978"/>
      <point x="335" y="1009"/>
      <point x="259" y="1009" type="curve" smooth="yes"/>
      <point x="173" y="1009"/>
      <point x="69" y="959"/>
      <point x="42" y="885" type="curve"/>
      <point x="51" y="864" type="line"/>
      <point x="65" y="861"/>
      <point x="167" y="887"/>
      <point x="164" y="897" type="curve" smooth="yes"/>
      <point x="154" y="935"/>
      <point x="183" y="953"/>
      <point x="214" y="953" type="curve" smooth="yes"/>
      <point x="266" y="953"/>
      <point x="269" y="918"/>
      <point x="269" y="852" type="curve" smooth="yes"/>
      <point x="269" y="712" type="line" smooth="yes"/>
      <point x="269" y="605"/>
      <point x="287" y="580"/>
      <point x="306" y="580" type="curve" smooth="yes"/>
      <point x="341" y="580"/>
      <point x="391" y="607"/>
    </contour>
    <contour>
      <point x="229" y="792" type="curve"/>
      <point x="322" y="813" type="line"/>
      <point x="322" y="854" type="line"/>
      <point x="186" y="825" type="line" smooth="yes"/>
      <point x="76" y="801"/>
      <point x="33" y="737"/>
      <point x="33" y="672" type="curve" smooth="yes"/>
      <point x="33" y="604"/>
      <point x="88" y="580"/>
      <point x="130" y="580" type="curve" smooth="yes"/>
      <point x="169" y="580"/>
      <point x="224" y="597"/>
      <point x="279" y="654" type="curve"/>
      <point x="275" y="702" type="line"/>
      <point x="231" y="663"/>
      <point x="205" y="654"/>
      <point x="181" y="654" type="curve" smooth="yes"/>
      <point x="166" y="654"/>
      <point x="143" y="665"/>
      <point x="143" y="703" type="curve" smooth="yes"/>
      <point x="143" y="748"/>
      <point x="175" y="779"/>
    </contour>
    <contour>
      <point x="34" y="468" type="line"/>
      <point x="418" y="468" type="line"/>
      <point x="418" y="539" type="line"/>
      <point x="34" y="539" type="line"/>
    </contour>
  </outline>
</glyph>
<glyph name="guillemotleft" format="2">
  <advance width="843"/>
  <unicode hex="00AB"/>
  <outline>
    <contour>
      <point x="378" y="344" type="curve"/>
      <point x="696" y="1" type="line"/>
      <point x="743" y="37" type="line"/>
      <point x="582" y="373" type="line"/>
      <point x="580" y="372"/>
      <point x="743" y="706"/>
      <point x="742" y="706" type="curve"/>
      <point x="696" y="742" type="line"/>
      <point x="379" y="402" type="line"/>
      <point x="378" y="400"/>
      <point x="378" y="344"/>
    </contour>
    <contour>
      <point x="52" y="344" type="curve"/>
      <point x="370" y="1" type="line"/>
      <point x="417" y="37" type="line"/>
      <point x="256" y="373" type="line"/>
      <point x="254" y="372"/>
      <point x="417" y="706"/>
      <point x="416" y="706" type="curve"/>
      <point x="370" y="742" type="line"/>
      <point x="53" y="402" type="line"/>
      <point x="52" y="400"/>
      <point x="52" y="344"/>
    </contour>
  </outline>
</glyph>
<glyph name="logicalnot" format="2">
  <advance width="828"/>
  <unicode hex="00AC"/>
  <outline>
    <contour>
      <point x="760" y="186" type="curve"/>
      <point x="760" y="482" type="line"/>
      <point x="731" y="506" type="line"/>
      <point x="731" y="506"/>
      <point x="726" y="506"/>
      <point x="97" y="506" type="curve"/>
      <point x="87" y="485"/>
      <point x="65" y="439"/>
      <point x="60" y="418" type="curve"/>
      <point x="86" y="392" type="line"/>
      <point x="642" y="392" type="line"/>
      <point x="642" y="159" type="line"/>
      <point x="668" y="133" type="line"/>
      <point x="694" y="142"/>
      <point x="739" y="170"/>
    </contour>
  </outline>
</glyph>
<glyph name="registered" format="2">
  <advance width="584"/>
  <unicode hex="00AE"/>
  <outline>
    <contour>
      <point x="568" y="867" type="curve"/>
      <point x="568" y="1026"/>
      <point x="450" y="1156"/>
      <point x="291" y="1156" type="curve" smooth="yes"/>
      <point x="132" y="1156"/>
      <point x="16" y="1026"/>
      <point x="16" y="867" type="curve" smooth="yes"/>
      <point x="16" y="708"/>
      <point x="132" y="578"/>
      <point x="291" y="578" type="curve" smooth="yes"/>
      <point x="450" y="578"/>
      <point x="568" y="708"/>
    </contour>
    <contour>
      <point x="509" y="867" type="curve"/>
      <point x="509" y="740"/>
      <point x="418" y="637"/>
      <point x="291" y="637" type="curve" smooth="yes"/>
      <point x="165" y="637"/>
      <point x="74" y="740"/>
      <point x="74" y="867" type="curve" smooth="yes"/>
      <point x="74" y="993"/>
      <point x="165" y="1096"/>
      <point x="291" y="1096" type="curve" smooth="yes"/>
      <point x="418" y="1096"/>
      <point x="509" y="993"/>
    </contour>
    <contour>
      <point x="411" y="956" type="curve"/>
      <point x="411" y="1000"/>
      <point x="373" y="1034"/>
      <point x="281" y="1034" type="curve" smooth="yes"/>
      <point x="237" y="1034"/>
      <point x="195" y="1029"/>
      <point x="164" y="1022" type="curve"/>
      <point x="167" y="995" type="line"/>
      <point x="201" y="1000"/>
      <point x="242" y="1004"/>
      <point x="272" y="1004" type="curve" smooth="yes"/>
      <point x="321" y="1004"/>
      <point x="345" y="980"/>
      <point x="345" y="949" type="curve" smooth="yes"/>
      <point x="345" y="908"/>
      <point x="325" y="886"/>
      <point x="272" y="886" type="curve" smooth="yes"/>
      <point x="262" y="886"/>
      <point x="255" y="887"/>
      <point x="244" y="890" type="curve"/>
      <point x="245" y="857" type="line"/>
      <point x="256" y="855"/>
      <point x="266" y="853"/>
      <point x="275" y="853" type="curve" smooth="yes"/>
      <point x="364" y="853"/>
      <point x="411" y="892"/>
    </contour>
    <contour>
      <point x="447" y="719" type="curve"/>
      <point x="445" y="738" type="line"/>
      <point x="422" y="736"/>
      <point x="414" y="739"/>
      <point x="407" y="750" type="curve" smooth="yes"/>
      <point x="320" y="877" type="line"/>
      <point x="275" y="865" type="line"/>
      <point x="353" y="716" type="line" smooth="yes"/>
      <point x="356" y="709"/>
      <point x="365" y="703"/>
      <point x="375" y="703" type="curve" smooth="yes"/>
      <point x="387" y="703"/>
      <point x="426" y="713"/>
    </contour>
    <contour>
      <point x="165" y="707" type="line"/>
      <point x="284" y="707" type="line"/>
      <point x="284" y="725" type="line"/>
      <point x="260" y="730"/>
      <point x="255" y="735"/>
      <point x="255" y="739" type="curve" smooth="yes"/>
      <point x="255" y="1018" type="line"/>
      <point x="197" y="1018" type="line"/>
      <point x="197" y="739" type="line" smooth="yes"/>
      <point x="197" y="735"/>
      <point x="188" y="730"/>
      <point x="165" y="725" type="curve"/>
    </contour>
  </outline>
</glyph>
<glyph name="macron" format="2">
  <advance width="808"/>
  <unicode hex="00AF"/>
  <outline>
    <contour>
      <point x="744" y="1045" type="curve"/>
      <point x="719" y="1070" type="line"/>
      <point x="108" y="1070" type="line"/>
      <point x="98" y="1049"/>
      <point x="68" y="988"/>
      <point x="63" y="965" type="curve"/>
      <point x="88" y="940" type="line"/>
      <point x="700" y="940" type="line"/>
      <point x="708" y="958"/>
      <point x="738" y="1022"/>
    </contour>
  </outline>
</glyph>
<glyph name="degree" format="2">
  <advance width="586"/>
  <unicode hex="00B0"/>
  <outline>
    <contour>
      <point x="494" y="840" type="curve"/>
      <point x="494" y="930"/>
      <point x="419" y="1009"/>
      <point x="326" y="1009" type="curve" smooth="yes"/>
      <point x="215" y="1009"/>
      <point x="91" y="902"/>
      <point x="91" y="754" type="curve" smooth="yes"/>
      <point x="91" y="662"/>
      <point x="162" y="585"/>
      <point x="259" y="585" type="curve" smooth="yes"/>
      <point x="369" y="585"/>
      <point x="494" y="694"/>
    </contour>
    <contour>
      <point x="373" y="796" type="curve"/>
      <point x="373" y="733"/>
      <point x="329" y="698"/>
      <point x="285" y="698" type="curve" smooth="yes"/>
      <point x="240" y="698"/>
      <point x="213" y="747"/>
      <point x="213" y="798" type="curve" smooth="yes"/>
      <point x="213" y="858"/>
      <point x="256" y="896"/>
      <point x="301" y="896" type="curve" smooth="yes"/>
      <point x="345" y="896"/>
      <point x="373" y="849"/>
    </contour>
  </outline>
</glyph>
<glyph name="plusminus" format="2">
  <advance width="690"/>
  <unicode hex="00B1"/>
  <outline>
    <contour>
      <point x="647" y="580" type="curve"/>
      <point x="621" y="605" type="line"/>
      <point x="79" y="605" type="line"/>
      <point x="69" y="584"/>
      <point x="47" y="538"/>
      <point x="42" y="515" type="curve"/>
      <point x="68" y="490" type="line"/>
      <point x="611" y="490" type="line"/>
      <point x="619" y="508"/>
      <point x="641" y="557"/>
    </contour>
    <contour>
      <point x="404" y="278" type="curve"/>
      <point x="404" y="823" type="line"/>
      <point x="379" y="848" type="line"/>
      <point x="356" y="842"/>
      <point x="308" y="825"/>
      <point x="288" y="818" type="curve"/>
      <point x="288" y="271" type="line"/>
      <point x="314" y="248" type="line"/>
      <point x="337" y="252"/>
      <point x="383" y="268"/>
    </contour>
    <contour>
      <point x="647" y="179" type="curve"/>
      <point x="621" y="205" type="line"/>
      <point x="79" y="205" type="line"/>
      <point x="69" y="184"/>
      <point x="47" y="138"/>
      <point x="42" y="115" type="curve"/>
      <point x="68" y="90" type="line"/>
      <point x="611" y="90" type="line"/>
      <point x="619" y="107"/>
      <point x="641" y="157"/>
    </contour>
  </outline>
</glyph>
<glyph name="uni00B2" format="2">
  <advance width="568"/>
  <unicode hex="00B2"/>
  <anchor x="291" y="440" name="L"/>
  <anchor x="291" y="1128" name="U"/>
  <outline>
    <contour>
      <point x="512" y="496" type="line"/>
      <point x="520" y="672" type="line"/>
      <point x="473" y="681" type="line"/>
      <point x="473" y="681"/>
      <point x="467" y="587"/>
      <point x="416" y="587" type="curve" smooth="yes"/>
      <point x="215" y="587" type="line"/>
      <point x="454" y="814"/>
      <point x="512" y="881"/>
      <point x="512" y="967" type="curve" smooth="yes"/>
      <point x="512" y="1047"/>
      <point x="437" y="1088"/>
      <point x="320" y="1088" type="curve" smooth="yes"/>
      <point x="179" y="1088"/>
      <point x="59" y="1005"/>
      <point x="59" y="938" type="curve"/>
      <point x="78" y="906" type="line"/>
      <point x="113" y="909"/>
      <point x="192" y="924"/>
      <point x="217" y="936" type="curve"/>
      <point x="208" y="984"/>
      <point x="228" y="1025"/>
      <point x="282" y="1025" type="curve" smooth="yes"/>
      <point x="336" y="1025"/>
      <point x="356" y="993"/>
      <point x="356" y="939" type="curve" smooth="yes"/>
      <point x="356" y="870"/>
      <point x="306" y="794"/>
      <point x="44" y="531" type="curve"/>
      <point x="60" y="496" type="line"/>
    </contour>
  </outline>
</glyph>
<glyph name="uni00B3" format="2">
  <advance width="568"/>
  <unicode hex="00B3"/>
  <anchor x="298" y="440" name="L"/>
  <anchor x="298" y="1128" name="U"/>
  <outline>
    <contour>
      <point x="514" y="679" type="curve"/>
      <point x="514" y="756"/>
      <point x="460" y="823"/>
      <point x="369" y="831" type="curve"/>
      <point x="440" y="850"/>
      <point x="481" y="908"/>
      <point x="481" y="956" type="curve" smooth="yes"/>
      <point x="481" y="1020"/>
      <point x="428" y="1088"/>
      <point x="291" y="1088" type="curve" smooth="yes"/>
      <point x="153" y="1088"/>
      <point x="56" y="999"/>
      <point x="56" y="946" type="curve"/>
      <point x="75" y="916" type="line"/>
      <point x="117" y="920"/>
      <point x="172" y="934"/>
      <point x="203" y="950" type="curve"/>
      <point x="189" y="993"/>
      <point x="221" y="1025"/>
      <point x="259" y="1025" type="curve" smooth="yes"/>
      <point x="305" y="1025"/>
      <point x="322" y="991"/>
      <point x="322" y="947" type="curve" smooth="yes"/>
      <point x="322" y="908"/>
      <point x="316" y="854"/>
      <point x="190" y="825" type="curve"/>
      <point x="199" y="774" type="line"/>
      <point x="222" y="777"/>
      <point x="225" y="777"/>
      <point x="246" y="777" type="curve" smooth="yes"/>
      <point x="295" y="777"/>
      <point x="354" y="755"/>
      <point x="354" y="669" type="curve" smooth="yes"/>
      <point x="354" y="599"/>
      <point x="307" y="558"/>
      <point x="241" y="558" type="curve" smooth="yes"/>
      <point x="185" y="558"/>
      <point x="131" y="578"/>
      <point x="63" y="621" type="curve"/>
      <point x="40" y="562" type="line"/>
      <point x="107" y="506"/>
      <point x="198" y="481"/>
      <point x="258" y="481" type="curve" smooth="yes"/>
      <point x="410" y="481"/>
      <point x="514" y="571"/>
    </contour>
  </outline>
</glyph>
<glyph name="acute" format="2">
  <advance width="522"/>
  <unicode hex="00B4"/>
  <anchor x="261" y="1128" name="U"/>
  <outline>
    <contour>
      <point x="231" y="831" type="curve"/>
      <point x="537" y="1135" type="line"/>
      <point x="512" y="1178" type="line"/>
      <point x="488" y="1185"/>
      <point x="355" y="1207"/>
      <point x="330" y="1209" type="curve"/>
      <point x="161" y="866" type="line"/>
      <point x="173" y="856"/>
      <point x="212" y="835"/>
    </contour>
  </outline>
</glyph>
<glyph name="mu" format="2">
  <advance width="932"/>
  <unicode hex="00B5"/>
  <outline>
    <contour>
      <point x="928" y="77" type="curve"/>
      <point x="908" y="137" type="line"/>
      <point x="872" y="121"/>
      <point x="852" y="115"/>
      <point x="829" y="115" type="curve" smooth="yes"/>
      <point x="806" y="115"/>
      <point x="798" y="139"/>
      <point x="798" y="238" type="curve" smooth="yes"/>
      <point x="798" y="270"/>
      <point x="798" y="588"/>
      <point x="798" y="607" type="curve"/>
      <point x="799" y="673"/>
      <point x="806" y="703"/>
      <point x="810" y="730" type="curve"/>
      <point x="782" y="768" type="line"/>
      <point x="722" y="748"/>
      <point x="634" y="730"/>
      <point x="575" y="720" type="curve"/>
      <point x="590" y="700"/>
      <point x="606" y="632"/>
      <point x="606" y="598" type="curve" smooth="yes"/>
      <point x="606" y="572"/>
      <point x="606" y="196"/>
      <point x="606" y="172" type="curve" smooth="yes"/>
      <point x="606" y="69"/>
      <point x="636" y="-24"/>
      <point x="702" y="-24" type="curve" smooth="yes"/>
      <point x="756" y="-24"/>
      <point x="865" y="31"/>
    </contour>
    <contour>
      <point x="654" y="193" type="curve"/>
      <point x="642" y="294" type="line"/>
      <point x="544" y="154"/>
      <point x="495" y="134"/>
      <point x="448" y="134" type="curve" smooth="yes"/>
      <point x="399" y="134"/>
      <point x="326" y="210"/>
      <point x="326" y="304" type="curve" smooth="yes"/>
      <point x="326" y="316"/>
      <point x="326" y="721"/>
      <point x="326" y="727" type="curve"/>
      <point x="317" y="738"/>
      <point x="290" y="768"/>
      <point x="289" y="768" type="curve"/>
      <point x="209" y="739"/>
      <point x="132" y="723"/>
      <point x="36" y="715" type="curve"/>
      <point x="36" y="659" type="line"/>
      <point x="137" y="648"/>
      <point x="134" y="637"/>
      <point x="134" y="554" type="curve" smooth="yes"/>
      <point x="134" y="545"/>
      <point x="134" y="381"/>
      <point x="134" y="365" type="curve" smooth="yes"/>
      <point x="134" y="161"/>
      <point x="301" y="-24"/>
      <point x="398" y="-24" type="curve" smooth="yes"/>
      <point x="477" y="-24"/>
      <point x="550" y="38"/>
    </contour>
    <contour>
      <point x="234" y="367" type="curve"/>
      <point x="228" y="409"/>
      <point x="134" y="492"/>
      <point x="134" y="492" type="curve"/>
      <point x="134" y="435"/>
      <point x="134" y="-347"/>
      <point x="134" y="-370" type="curve"/>
      <point x="171" y="-400" type="line"/>
      <point x="196" y="-387"/>
      <point x="339" y="-329"/>
      <point x="370" y="-319" type="curve"/>
      <point x="307" y="-252"/>
      <point x="236" y="-126"/>
      <point x="236" y="68" type="curve"/>
      <point x="238" y="193"/>
      <point x="227" y="269"/>
    </contour>
  </outline>
</glyph>
<glyph name="paragraph" format="2">
  <advance width="992"/>
  <unicode hex="00B6"/>
  <outline>
    <contour>
      <point x="883" y="1008" type="curve"/>
      <point x="883" y="1008"/>
      <point x="524" y="1032"/>
      <point x="431" y="1032" type="curve" smooth="yes"/>
      <point x="185" y="1032"/>
      <point x="27" y="904"/>
      <point x="27" y="722" type="curve" smooth="yes"/>
      <point x="27" y="522"/>
      <point x="199" y="414"/>
      <point x="427" y="414" type="curve" smooth="yes"/>
      <point x="535" y="414"/>
      <point x="565" y="444"/>
      <point x="565" y="444" type="curve"/>
      <point x="559" y="512" type="line"/>
      <point x="559" y="512"/>
      <point x="531" y="506"/>
      <point x="462" y="506" type="curve" smooth="yes"/>
      <point x="305" y="506"/>
      <point x="238" y="634"/>
      <point x="238" y="750" type="curve" smooth="yes"/>
      <point x="238" y="869"/>
      <point x="342" y="940"/>
      <point x="445" y="940" type="curve" smooth="yes"/>
      <point x="503" y="940"/>
      <point x="661" y="932"/>
      <point x="764" y="893" type="curve"/>
      <point x="773" y="885"/>
      <point x="883" y="1008"/>
    </contour>
    <contour>
      <point x="385" y="-200" type="line"/>
      <point x="934" y="-200" type="line"/>
      <point x="934" y="-141" type="line"/>
      <point x="857" y="-126"/>
      <point x="823" y="-105"/>
      <point x="823" y="-92" type="curve" smooth="yes"/>
      <point x="823" y="900" type="line" smooth="yes"/>
      <point x="823" y="915"/>
      <point x="862" y="934"/>
      <point x="934" y="949" type="curve"/>
      <point x="934" y="1008" type="line"/>
      <point x="381" y="1008" type="line"/>
      <point x="381" y="949" type="line"/>
      <point x="459" y="934"/>
      <point x="498" y="965"/>
      <point x="498" y="952" type="curve" smooth="yes"/>
      <point x="496" y="-92" type="line" smooth="yes"/>
      <point x="496" y="-107"/>
      <point x="458" y="-126"/>
      <point x="385" y="-141" type="curve"/>
    </contour>
    <contour>
      <point x="693" y="939" type="line"/>
      <point x="693" y="-92" type="line"/>
      <point x="693" y="-104"/>
      <point x="673" y="-113"/>
      <point x="660" y="-116" type="curve"/>
      <point x="650" y="-113"/>
      <point x="629" y="-104"/>
      <point x="629" y="-92" type="curve" smooth="yes"/>
      <point x="629" y="954" type="line"/>
    </contour>
  </outline>
</glyph>
<glyph name="periodcentered" format="2">
  <advance width="335"/>
  <unicode hex="00B7"/>
  <outline>
    <contour>
      <point x="295" y="566" type="curve"/>
      <point x="295" y="639"/>
      <point x="240" y="670"/>
      <point x="183" y="670" type="curve" smooth="yes"/>
      <point x="107" y="670"/>
      <point x="40" y="620"/>
      <point x="40" y="539" type="curve" smooth="yes"/>
      <point x="40" y="465"/>
      <point x="93" y="434"/>
      <point x="153" y="434" type="curve" smooth="yes"/>
      <point x="231" y="434"/>
      <point x="295" y="483"/>
    </contour>
  </outline>
</glyph>
<glyph name="cedilla" format="2">
  <advance width="375"/>
  <unicode hex="00B8"/>
  <anchor x="194" y="-480" name="L"/>
  <outline>
    <contour>
      <point x="363" y="-183" type="curve"/>
      <point x="363" y="-123"/>
      <point x="314" y="-86"/>
      <point x="233" y="-71" type="curve"/>
      <point x="274" y="40" type="line"/>
      <point x="176" y="41" type="line"/>
      <point x="119" y="-136"/>
      <point x="101" y="-161"/>
      <point x="101" y="-161" type="curve"/>
      <point x="148" y="-165"/>
      <point x="174" y="-178"/>
      <point x="174" y="-214" type="curve" smooth="yes"/>
      <point x="174" y="-249"/>
      <point x="137" y="-284"/>
      <point x="45" y="-298" type="curve"/>
      <point x="74" y="-355" type="line"/>
      <point x="241" y="-337"/>
      <point x="363" y="-262"/>
    </contour>
  </outline>
</glyph>
<glyph name="uni00B9" format="2">
  <advance width="568"/>
  <unicode hex="00B9"/>
  <anchor x="306" y="440" name="L"/>
  <anchor x="306" y="1128" name="U"/>
  <outline>
    <contour>
      <point x="86" y="496" type="line"/>
      <point x="512" y="496" type="line"/>
      <point x="512" y="544" type="line"/>
      <point x="399" y="556"/>
      <point x="380" y="574"/>
      <point x="380" y="587" type="curve" smooth="yes"/>
      <point x="380" y="1073" type="line"/>
      <point x="355" y="1093" type="line"/>
      <point x="301" y="1072"/>
      <point x="133" y="1023"/>
      <point x="69" y="1012" type="curve"/>
      <point x="85" y="964" type="line"/>
      <point x="183" y="983"/>
      <point x="210" y="980"/>
      <point x="219" y="972" type="curve" smooth="yes"/>
      <point x="229" y="963"/>
      <point x="230" y="950"/>
      <point x="230" y="924" type="curve" smooth="yes"/>
      <point x="230" y="587" type="line" smooth="yes"/>
      <point x="230" y="573"/>
      <point x="203" y="556"/>
      <point x="86" y="544" type="curve"/>
    </contour>
  </outline>
</glyph>
<glyph name="ordmasculine" format="2">
  <advance width="460"/>
  <unicode hex="00BA"/>
  <outline>
    <contour>
      <point x="432" y="802" type="curve"/>
      <point x="432" y="918"/>
      <point x="354" y="1010"/>
      <point x="239" y="1010" type="curve" smooth="yes"/>
      <point x="114" y="1010"/>
      <point x="27" y="896"/>
      <point x="27" y="785" type="curve" smooth="yes"/>
      <point x="27" y="668"/>
      <point x="102" y="580"/>
      <point x="220" y="580" type="curve" smooth="yes"/>
      <point x="332" y="580"/>
      <point x="432" y="692"/>
    </contour>
    <contour>
      <point x="35" y="468" type="line"/>
      <point x="423" y="468" type="line"/>
      <point x="423" y="539" type="line"/>
      <point x="35" y="539" type="line"/>
    </contour>
    <contour>
      <point x="323" y="783" type="curve"/>
      <point x="323" y="692"/>
      <point x="299" y="633"/>
      <point x="236" y="633" type="curve" smooth="yes"/>
      <point x="182" y="633"/>
      <point x="136" y="713"/>
      <point x="136" y="803" type="curve" smooth="yes"/>
      <point x="136" y="894"/>
      <point x="160" y="957"/>
      <point x="223" y="957" type="curve" smooth="yes"/>
      <point x="288" y="957"/>
      <point x="323" y="872"/>
    </contour>
  </outline>
</glyph>
<glyph name="guillemotright" format="2">
  <advance width="843"/>
  <unicode hex="00BB"/>
  <outline>
    <contour>
      <point x="464" y="342" type="line"/>
      <point x="464" y="400" type="line"/>
      <point x="146" y="742" type="line"/>
      <point x="100" y="706" type="line"/>
      <point x="260" y="371" type="line"/>
      <point x="100" y="37" type="line"/>
      <point x="146" y="1" type="line"/>
    </contour>
    <contour>
      <point x="790" y="342" type="line"/>
      <point x="790" y="400" type="line"/>
      <point x="472" y="742" type="line"/>
      <point x="426" y="706" type="line"/>
      <point x="586" y="371" type="line"/>
      <point x="426" y="37" type="line"/>
      <point x="472" y="1" type="line"/>
    </contour>
  </outline>
</glyph>
<glyph name="onequarter" format="2">
  <advance width="1020"/>
  <unicode hex="00BC"/>
  <outline>
    <contour>
      <point x="248" y="2" type="curve"/>
      <point x="957" y="965" type="line"/>
      <point x="937" y="988" type="line"/>
      <point x="914" y="983"/>
      <point x="856" y="971"/>
      <point x="836" y="962" type="curve"/>
      <point x="124" y="0" type="line"/>
      <point x="144" y="-24" type="line"/>
      <point x="173" y="-16"/>
      <point x="224" y="-9"/>
    </contour>
    <contour>
      <point x="974" y="171" type="curve"/>
      <point x="962" y="183" type="line"/>
      <point x="904" y="183" type="line"/>
      <point x="904" y="461" type="line"/>
      <point x="884" y="478" type="line"/>
      <point x="858" y="469"/>
      <point x="810" y="456"/>
      <point x="782" y="448" type="curve"/>
      <point x="563" y="143" type="line"/>
      <point x="582" y="127" type="line"/>
      <point x="797" y="127" type="line"/>
      <point x="797" y="57" type="line" smooth="yes"/>
      <point x="797" y="48"/>
      <point x="782" y="40"/>
      <point x="703" y="29" type="curve"/>
      <point x="703" y="0" type="line"/>
      <point x="966" y="0" type="line"/>
      <point x="966" y="29" type="line"/>
      <point x="916" y="39"/>
      <point x="904" y="45"/>
      <point x="904" y="53" type="curve" smooth="yes"/>
      <point x="904" y="127" type="line"/>
      <point x="928" y="127" type="line"/>
      <point x="942" y="136"/>
      <point x="961" y="155"/>
    </contour>
    <contour>
      <point x="797" y="374" type="line"/>
      <point x="797" y="183" type="line"/>
      <point x="653" y="183" type="line"/>
    </contour>
    <contour>
      <point x="70" y="509" type="line"/>
      <point x="416" y="509" type="line"/>
      <point x="416" y="543" type="line"/>
      <point x="324" y="553"/>
      <point x="303" y="567"/>
      <point x="303" y="577" type="curve" smooth="yes"/>
      <point x="303" y="971" type="line"/>
      <point x="284" y="988" type="line"/>
      <point x="240" y="971"/>
      <point x="108" y="932"/>
      <point x="56" y="922" type="curve"/>
      <point x="69" y="889" type="line"/>
      <point x="149" y="904"/>
      <point x="176" y="901"/>
      <point x="183" y="895" type="curve" smooth="yes"/>
      <point x="190" y="888"/>
      <point x="191" y="877"/>
      <point x="191" y="857" type="curve" smooth="yes"/>
      <point x="191" y="577" type="line" smooth="yes"/>
      <point x="191" y="566"/>
      <point x="165" y="553"/>
      <point x="70" y="543" type="curve"/>
    </contour>
  </outline>
</glyph>
<glyph name="onehalf" format="2">
  <advance width="1020"/>
  <unicode hex="00BD"/>
  <outline>
    <contour>
      <point x="247" y="2" type="curve"/>
      <point x="955" y="965" type="line"/>
      <point x="935" y="988" type="line"/>
      <point x="912" y="983"/>
      <point x="855" y="971"/>
      <point x="834" y="962" type="curve"/>
      <point x="122" y="0" type="line"/>
      <point x="142" y="-24" type="line"/>
      <point x="171" y="-16"/>
      <point x="222" y="-9"/>
    </contour>
    <contour>
      <point x="70" y="509" type="line"/>
      <point x="416" y="509" type="line"/>
      <point x="416" y="543" type="line"/>
      <point x="324" y="553"/>
      <point x="303" y="567"/>
      <point x="303" y="577" type="curve" smooth="yes"/>
      <point x="303" y="971" type="line"/>
      <point x="284" y="988" type="line"/>
      <point x="240" y="971"/>
      <point x="108" y="932"/>
      <point x="56" y="922" type="curve"/>
      <point x="69" y="889" type="line"/>
      <point x="149" y="904"/>
      <point x="176" y="901"/>
      <point x="183" y="895" type="curve" smooth="yes"/>
      <point x="190" y="888"/>
      <point x="191" y="877"/>
      <point x="191" y="857" type="curve" smooth="yes"/>
      <point x="191" y="577" type="line" smooth="yes"/>
      <point x="191" y="566"/>
      <point x="165" y="553"/>
      <point x="70" y="543" type="curve"/>
    </contour>
    <contour>
      <point x="958" y="0" type="line"/>
      <point x="965" y="136" type="line"/>
      <point x="927" y="143" type="line"/>
      <point x="927" y="143"/>
      <point x="922" y="68"/>
      <point x="881" y="68" type="curve" smooth="yes"/>
      <point x="703" y="68" type="line"/>
      <point x="897" y="249"/>
      <point x="958" y="307"/>
      <point x="958" y="377" type="curve" smooth="yes"/>
      <point x="958" y="441"/>
      <point x="898" y="474"/>
      <point x="803" y="474" type="curve" smooth="yes"/>
      <point x="688" y="474"/>
      <point x="591" y="407"/>
      <point x="591" y="354" type="curve"/>
      <point x="607" y="328" type="line"/>
      <point x="635" y="330"/>
      <point x="689" y="343"/>
      <point x="710" y="353" type="curve"/>
      <point x="702" y="391"/>
      <point x="724" y="427"/>
      <point x="772" y="427" type="curve" smooth="yes"/>
      <point x="822" y="427"/>
      <point x="841" y="398"/>
      <point x="841" y="355" type="curve" smooth="yes"/>
      <point x="841" y="299"/>
      <point x="792" y="239"/>
      <point x="579" y="28" type="curve"/>
      <point x="592" y="0" type="line"/>
    </contour>
  </outline>
</glyph>
<glyph name="threequarters" format="2">
  <advance width="1020"/>
  <unicode hex="00BE"/>
  <outline>
    <contour>
      <point x="246" y="2" type="curve"/>
      <point x="955" y="965" type="line"/>
      <point x="935" y="988" type="line"/>
      <point x="912" y="983"/>
      <point x="854" y="971"/>
      <point x="834" y="962" type="curve"/>
      <point x="122" y="0" type="line"/>
      <point x="142" y="-24" type="line"/>
      <point x="171" y="-16"/>
      <point x="222" y="-9"/>
    </contour>
    <contour>
      <point x="427" y="656" type="curve" smooth="yes"/>
      <point x="427" y="718"/>
      <point x="378" y="771"/>
      <point x="304" y="777" type="curve"/>
      <point x="362" y="793"/>
      <point x="400" y="839"/>
      <point x="400" y="877" type="curve" smooth="yes"/>
      <point x="400" y="929"/>
      <point x="357" y="984"/>
      <point x="246" y="984" type="curve" smooth="yes"/>
      <point x="134" y="984"/>
      <point x="56" y="917"/>
      <point x="56" y="874" type="curve"/>
      <point x="71" y="851" type="line"/>
      <point x="105" y="853"/>
      <point x="150" y="865"/>
      <point x="175" y="877" type="curve"/>
      <point x="163" y="913"/>
      <point x="189" y="937"/>
      <point x="220" y="937" type="curve" smooth="yes"/>
      <point x="265" y="937"/>
      <point x="281" y="905"/>
      <point x="281" y="870" type="curve" smooth="yes"/>
      <point x="281" y="839"/>
      <point x="267" y="796"/>
      <point x="164" y="772" type="curve"/>
      <point x="171" y="736" type="line"/>
      <point x="190" y="739"/>
      <point x="192" y="739"/>
      <point x="209" y="739" type="curve" smooth="yes"/>
      <point x="249" y="739"/>
      <point x="307" y="717"/>
      <point x="307" y="646" type="curve" smooth="yes"/>
      <point x="307" y="580"/>
      <point x="261" y="553"/>
      <point x="205" y="553" type="curve" smooth="yes"/>
      <point x="160" y="553"/>
      <point x="116" y="565"/>
      <point x="61" y="600" type="curve"/>
      <point x="42" y="562" type="line"/>
      <point x="97" y="518"/>
      <point x="170" y="498"/>
      <point x="219" y="498" type="curve" smooth="yes"/>
      <point x="342" y="498"/>
      <point x="427" y="569"/>
    </contour>
    <contour>
      <point x="974" y="171" type="curve"/>
      <point x="962" y="183" type="line"/>
      <point x="904" y="183" type="line"/>
      <point x="904" y="461" type="line"/>
      <point x="884" y="478" type="line"/>
      <point x="858" y="469"/>
      <point x="810" y="456"/>
      <point x="782" y="448" type="curve"/>
      <point x="563" y="143" type="line"/>
      <point x="582" y="127" type="line"/>
      <point x="797" y="127" type="line"/>
      <point x="797" y="57" type="line" smooth="yes"/>
      <point x="797" y="48"/>
      <point x="782" y="40"/>
      <point x="703" y="29" type="curve"/>
      <point x="703" y="0" type="line"/>
      <point x="966" y="0" type="line"/>
      <point x="966" y="29" type="line"/>
      <point x="916" y="39"/>
      <point x="904" y="45"/>
      <point x="904" y="53" type="curve" smooth="yes"/>
      <point x="904" y="127" type="line"/>
      <point x="928" y="127" type="line"/>
      <point x="942" y="136"/>
      <point x="961" y="155"/>
    </contour>
    <contour>
      <point x="797" y="374" type="line"/>
      <point x="797" y="183" type="line"/>
      <point x="653" y="183" type="line"/>
    </contour>
  </outline>
</glyph>
<glyph name="questiondown" format="2">
  <advance width="745"/>
  <unicode hex="00BF"/>
  <outline>
    <contour>
      <point x="521" y="660" type="curve" smooth="yes"/>
      <point x="521" y="736"/>
      <point x="468" y="768"/>
      <point x="405" y="768" type="curve" smooth="yes"/>
      <point x="325" y="768"/>
      <point x="259" y="717"/>
      <point x="259" y="632" type="curve" smooth="yes"/>
      <point x="259" y="556"/>
      <point x="315" y="523"/>
      <point x="374" y="523" type="curve" smooth="yes"/>
      <point x="452" y="523"/>
      <point x="521" y="576"/>
    </contour>
    <contour>
      <point x="345" y="406" type="curve"/>
      <point x="340" y="329" type="line"/>
      <point x="327" y="141"/>
      <point x="52" y="44"/>
      <point x="52" y="-196" type="curve" smooth="yes"/>
      <point x="52" y="-345"/>
      <point x="149" y="-447"/>
      <point x="326" y="-447" type="curve" smooth="yes"/>
      <point x="521" y="-447"/>
      <point x="693" y="-331"/>
      <point x="693" y="-180" type="curve" smooth="yes"/>
      <point x="693" y="-172"/>
      <point x="693" y="-150"/>
      <point x="692" y="-142" type="curve"/>
      <point x="664" y="-112" type="line"/>
      <point x="617" y="-116"/>
      <point x="509" y="-142"/>
      <point x="474" y="-160" type="curve"/>
      <point x="479" y="-175"/>
      <point x="484" y="-197"/>
      <point x="484" y="-212" type="curve" smooth="yes"/>
      <point x="484" y="-296"/>
      <point x="435" y="-353"/>
      <point x="382" y="-353" type="curve" smooth="yes"/>
      <point x="308" y="-353"/>
      <point x="262" y="-291"/>
      <point x="262" y="-160" type="curve" smooth="yes"/>
      <point x="262" y="-8"/>
      <point x="466" y="146"/>
      <point x="455" y="329" type="curve"/>
      <point x="449" y="416" type="line"/>
      <point x="423" y="439" type="line"/>
      <point x="394" y="431"/>
      <point x="364" y="421"/>
    </contour>
  </outline>
</glyph>
